<svg width="25" height="25" viewBox="0 0 25 25" fill="none" xmlns="http://www.w3.org/2000/svg">
<g clip-path="url(#clip0_1563_4935)">
<path fill-rule="evenodd" clip-rule="evenodd" d="M24.2343 12.2265C24.2343 18.7539 18.8203 24.1796 12.2812 24.1796C5.75391 24.1796 0.328125 18.7539 0.328125 12.2265C0.328125 5.6875 5.74218 0.273438 12.2695 0.273438C18.8086 0.273438 24.2343 5.6875 24.2343 12.2265ZM9.50397 16.914C9.14069 17.2539 9.14069 17.8398 9.50397 18.2148C9.8321 18.5195 10.4649 18.4961 10.8048 18.1679L15.8321 13.4336C16.5118 12.8007 16.5235 11.6875 15.8321 11.0429L10.8048 6.32025C10.4298 5.96868 9.86725 5.93353 9.51569 6.27337C9.14069 6.62493 9.12897 7.22259 9.50397 7.57415L14.4727 12.2382L9.50397 16.914Z" fill="#FF6B4E"/>
</g>
<defs>
<clipPath id="clip0_1563_4935">
<rect width="23.9062" height="23.918" fill="white" transform="translate(0.328125 0.273438)"/>
</clipPath>
</defs>
</svg>
