<svg width="26" height="26" viewBox="0 0 26 26" fill="none" xmlns="http://www.w3.org/2000/svg">
<g filter="url(#filter0_d_1412_43590)">
<path fill-rule="evenodd" clip-rule="evenodd" d="M24.4062 11.9531C24.4062 18.4805 18.9922 23.9062 12.4531 23.9062C5.92578 23.9062 0.5 18.4805 0.5 11.9531C0.5 5.41406 5.91406 0 12.4414 0C18.9805 0 24.4062 5.41406 24.4062 11.9531ZM7.55469 15.9023C7.55469 16.4414 7.97656 16.875 8.51562 16.875C8.78516 16.875 9.03125 16.7812 9.21875 16.5938L12.4531 13.3359L15.6992 16.5938C15.875 16.7812 16.1211 16.875 16.3906 16.875C16.9414 16.875 17.375 16.4414 17.375 15.9023C17.375 15.6328 17.2812 15.3867 17.082 15.2109L13.8359 11.9648L17.0938 8.70703C17.3047 8.49609 17.3867 8.28516 17.3867 8.01562C17.3867 7.47656 16.9531 7.05469 16.4141 7.05469C16.1562 7.05469 15.9453 7.13672 15.7461 7.33594L12.4531 10.6055L9.18359 7.34766C8.99609 7.17188 8.78516 7.07812 8.51562 7.07812C7.97656 7.07812 7.55469 7.48828 7.55469 8.03906C7.55469 8.29688 7.64844 8.53125 7.83594 8.71875L11.082 11.9648L7.83594 15.2227C7.64844 15.3984 7.55469 15.6445 7.55469 15.9023Z" fill="#F6F3E8"/>
</g>
<defs>
<filter id="filter0_d_1412_43590" x="0.5" y="0" width="24.9062" height="25.9062" filterUnits="userSpaceOnUse" color-interpolation-filters="sRGB">
<feFlood flood-opacity="0" result="BackgroundImageFix"/>
<feColorMatrix in="SourceAlpha" type="matrix" values="0 0 0 0 0 0 0 0 0 0 0 0 0 0 0 0 0 0 127 0" result="hardAlpha"/>
<feOffset dx="1" dy="2"/>
<feComposite in2="hardAlpha" operator="out"/>
<feColorMatrix type="matrix" values="0 0 0 0 0.141176 0 0 0 0 0.141176 0 0 0 0 0.141176 0 0 0 1 0"/>
<feBlend mode="normal" in2="BackgroundImageFix" result="effect1_dropShadow_1412_43590"/>
<feBlend mode="normal" in="SourceGraphic" in2="effect1_dropShadow_1412_43590" result="shape"/>
</filter>
</defs>
</svg>
