<svg width="48" height="48" viewBox="0 0 48 48" fill="none" xmlns="http://www.w3.org/2000/svg">
<rect width="48" height="48" fill="#FEFDFB"/>
<g clip-path="url(#clip0_1629_11385)">
<g style="mix-blend-mode:multiply">
<path d="M19.1836 11.5639C19.1912 11.5639 19.1912 11.5686 19.1912 11.577C19.1912 11.5714 19.1927 11.5686 19.1956 11.5686C19.1956 11.5686 19.188 11.5603 19.1836 11.5639Z" fill="#242424"/>
<path d="M19.1836 11.5639C19.1912 11.5639 19.1912 11.5686 19.1912 11.577C19.1912 11.5714 19.1927 11.5686 19.1956 11.5686C19.1956 11.5686 19.188 11.5603 19.1836 11.5639Z" fill="#242424"/>
<path d="M42.1654 12.6953C41.8659 12.1565 41.5292 11.6522 41.1684 11.1754C41.0427 10.9143 40.9093 10.658 40.7672 10.4017C39.0684 7.38325 36.284 5.19097 33.1225 4.37318C29.9282 3.53751 26.6125 4.11688 23.7921 6.01352C23.1318 6.46056 22.5316 6.96006 21.9927 7.48578C21.5751 7.90182 21.1947 8.33932 20.858 8.77683C20.5704 9.144 20.307 9.52786 20.0599 9.92125C18.0659 7.91493 15.5571 7.02205 12.8853 7.38802C7.09682 8.17362 3.32311 13.9029 4.10146 20.7003C4.43817 23.6305 5.5729 26.482 7.47397 29.2048C10.2583 34.5049 15.8238 39.389 23.9025 43.5792C24.202 43.7342 24.9727 44.074 25.621 43.9857C26.1927 43.9059 26.7962 43.4863 27.1613 43.1727C27.3034 43.0666 41.6232 32.2196 43.662 22.8532C44.424 19.3616 43.8894 15.7542 42.1665 12.6965L42.1654 12.6953ZM23.2204 39.6226C16.6251 36.1965 11.8019 32.3424 8.90824 28.2273C7.7735 26.6275 6.9383 24.9823 6.40373 23.3074C6.09982 22.3752 5.89321 21.4239 5.78389 20.4702C5.69862 19.7192 5.6702 18.9849 5.70737 18.2779C5.93038 13.469 8.82079 9.80085 13.0963 9.21672C14.3119 9.0534 15.4838 9.20837 16.5661 9.67687C17.5182 10.075 18.3983 10.7021 19.1722 11.5556C19.1766 11.5556 19.1799 11.5604 19.1843 11.564C19.1886 11.5592 19.1919 11.564 19.1963 11.5687C19.1963 11.5687 19.1948 11.5715 19.1919 11.5771C19.0618 11.8465 18.9492 12.129 18.8432 12.4128C18.6082 13.041 18.4136 13.6859 18.2758 14.344C16.5081 22.4503 21.7369 35.9092 23.298 39.6536C23.2739 39.6453 23.2455 39.6357 23.2214 39.6226H23.2204ZM40.6131 20.1305C38.9755 27.667 28.0118 36.8033 25.3488 38.9336C25.199 39.0576 25.0777 39.1506 24.9837 39.2257C23.8446 36.5422 19.1023 24.7368 19.6456 16.7938C19.6904 16.0868 19.7833 15.4109 19.9211 14.7743C20.014 14.3499 20.1277 13.9387 20.2698 13.5274C20.3715 13.2222 20.4852 12.9218 20.6021 12.6261C20.7158 12.3698 20.8328 12.1183 20.9585 11.8656V11.8572C20.9706 11.831 20.987 11.8036 20.999 11.7774C21.3193 11.1455 21.7041 10.5352 22.1501 9.96536C22.442 9.58508 22.77 9.20956 23.1274 8.85551C23.6019 8.39535 24.108 7.9805 24.6841 7.57757C27.1198 5.94676 29.9774 5.45204 32.7344 6.17207C33.0832 6.26029 33.4275 6.36639 33.7642 6.49513C34.7415 6.87065 35.6697 7.40114 36.5038 8.0556C36.8569 8.33813 37.1968 8.63854 37.5128 8.97114C38.2102 9.67329 38.8181 10.4827 39.3242 11.3709C39.4827 11.6498 39.6237 11.9323 39.7495 12.2196C40.8962 14.6682 41.2045 17.4351 40.6131 20.1317V20.1305Z" fill="#242424"/>
</g>
<path d="M19.1816 11.5639C19.1893 11.5639 19.1893 11.5686 19.1893 11.577C19.1893 11.5714 19.1908 11.5686 19.1937 11.5686C19.1937 11.5686 19.186 11.5603 19.1816 11.5639Z" fill="#FF6B4E"/>
<path d="M19.1816 11.5639C19.1893 11.5639 19.1893 11.5686 19.1893 11.577C19.1893 11.5714 19.1908 11.5686 19.1937 11.5686C19.1937 11.5686 19.186 11.5603 19.1816 11.5639Z" fill="#242424"/>
<path d="M23.2969 39.6536C23.2729 39.6453 23.2444 39.6358 23.2204 39.6227C16.6251 36.1965 11.802 32.3424 8.90828 28.2273C7.77355 26.6275 6.93835 24.9824 6.40377 23.3075C6.09986 22.3752 5.89325 21.4239 5.78393 20.4702C5.69866 19.7192 5.67024 18.9849 5.70741 18.278C5.93042 13.469 8.82083 9.80087 13.0963 9.21674C14.3119 9.05342 15.4838 9.20839 16.5661 9.67689C17.5183 10.0751 18.3983 10.7021 19.1723 11.5557C19.1767 11.5557 19.1799 11.5604 19.1843 11.564C19.192 11.564 19.192 11.5688 19.192 11.5771C19.0619 11.8465 18.9493 12.1291 18.8432 12.4128C18.6082 13.041 18.4136 13.686 18.2759 14.344C16.5082 22.4503 21.7369 35.9092 23.298 39.6536H23.2969Z" fill="#FF6B4E"/>
<path d="M39.7486 12.2184C39.6229 11.9311 39.4808 11.6485 39.3233 11.3696C38.8172 10.4815 38.2083 9.67203 37.5119 8.96987C37.196 8.63847 36.8549 8.33806 36.5029 8.05434C35.6677 7.39987 34.7396 6.86938 33.7634 6.49387C33.4266 6.36512 33.0823 6.25902 32.7336 6.1708C29.9776 5.45077 27.12 5.9455 24.6833 7.5763C24.1083 7.97804 23.601 8.39409 23.1266 8.85424C22.7702 9.2083 22.4411 9.58381 22.1492 9.96409C21.7032 10.5339 21.3184 11.1443 20.9981 11.7761C20.9861 11.8023 20.9697 11.8297 20.9577 11.856C20.9577 11.856 20.7139 12.3686 20.6013 12.6249C20.4843 12.9205 20.3706 13.2221 20.269 13.5261C20.1268 13.9374 20.0131 14.3487 19.9202 14.7731C19.7825 15.4096 19.6896 16.0856 19.6447 16.7925C19.1014 24.7355 23.8437 36.541 24.9828 39.2244C25.0757 39.1493 25.1982 39.0563 25.3479 38.9323C28.011 36.802 38.9757 27.6657 40.6122 20.1292C41.2036 17.4327 40.8964 14.6658 39.7486 12.2172V12.2184ZM35.0828 18.6975C35.0347 18.9144 34.9779 19.1266 34.9003 19.3388C34.7505 19.7847 34.5439 20.2091 34.2761 20.612C33.8945 21.1866 33.4048 21.6813 32.8658 22.0401C32.3061 22.4204 31.6983 22.6636 31.05 22.7781C30.9812 22.7864 30.92 22.7995 30.8555 22.8091C30.604 22.8448 30.3493 22.8532 30.0891 22.8401C29.7688 22.8269 29.4441 22.7781 29.1162 22.6946C28.8691 22.6279 28.6297 22.5492 28.399 22.4383C28.2121 22.3632 28.0339 22.2702 27.8601 22.1641C27.5442 21.9746 27.2523 21.7445 26.9801 21.4834C26.6237 21.1425 26.311 20.736 26.052 20.277C25.6748 19.6094 25.4354 18.8715 25.3512 18.0847C25.2944 17.4708 25.3228 16.8473 25.4485 16.2155C25.5939 15.5885 25.8213 15.0174 26.1252 14.5048C26.2914 14.2306 26.486 13.9696 26.6969 13.7312C26.9724 13.4045 27.3048 13.1041 27.6775 12.8609C28.7926 12.1135 30.158 11.8703 31.4152 12.216C32.68 12.5295 33.8071 13.4141 34.4794 14.6383C34.674 14.9781 34.8281 15.3369 34.9451 15.7077C35.132 16.287 35.2162 16.901 35.2086 17.5113C35.2129 17.9047 35.1681 18.3112 35.0828 18.6999V18.6975Z" fill="#FF6B4E"/>
<path d="M34.944 15.7077C34.827 15.3322 34.6718 14.9757 34.4794 14.636C33.8049 13.4129 32.6789 12.5295 31.4141 12.2124C30.1569 11.8691 28.7915 12.1111 27.6764 12.8586C27.3058 13.1018 26.9702 13.401 26.6958 13.73C26.4848 13.9696 26.2924 14.2319 26.1241 14.5025C25.8191 15.0151 25.5939 15.5861 25.4496 16.2132C25.3228 16.845 25.2922 17.4696 25.3512 18.0812C25.4354 18.8704 25.6737 19.6071 26.0519 20.2747C26.3099 20.736 26.6237 21.1401 26.9811 21.4823C27.2501 21.7433 27.543 21.9698 27.8612 22.163C28.0328 22.2703 28.2143 22.3632 28.399 22.4372C28.6275 22.5492 28.8702 22.6267 29.1172 22.6935C29.4452 22.7793 29.7699 22.8282 30.0902 22.8401C30.3482 22.8544 30.6029 22.8449 30.8543 22.8103C30.921 22.8007 30.9822 22.7864 31.05 22.7769C31.6972 22.6637 32.3061 22.4193 32.8658 22.039C33.4048 21.6802 33.8945 21.1854 34.2782 20.612C34.545 20.2091 34.7527 19.7847 34.9002 19.3365C34.979 19.1267 35.0336 18.9145 35.0828 18.6975C35.1692 18.3077 35.214 17.9036 35.2085 17.5078C35.2184 16.8986 35.1309 16.2835 34.9451 15.7077H34.944ZM33.4343 18.2707V18.2767C33.3381 18.7237 33.1588 19.1457 32.9074 19.5272C32.6548 19.9027 32.3334 20.2318 31.9749 20.4738C31.6097 20.7157 31.2085 20.8826 30.7778 20.953C30.3657 21.034 29.9426 21.0114 29.5086 20.8969C29.2156 20.8195 28.9412 20.7074 28.6898 20.55C28.6166 20.5047 28.5422 20.4583 28.4734 20.3998C28.4526 20.3224 28.4449 20.2484 28.4351 20.1698C28.3936 19.7597 28.4187 19.3341 28.5029 18.9264C28.5936 18.5235 28.7379 18.1432 28.938 17.8118C29.0484 17.6353 29.1763 17.4625 29.3326 17.2861C29.513 17.0691 29.7196 16.8855 29.9623 16.7222C30.3591 16.4575 30.8051 16.2847 31.2588 16.2227C31.6458 16.1702 32.0404 16.1965 32.4231 16.3002C32.7926 16.392 33.1413 16.5565 33.4572 16.7854C33.548 17.2753 33.5436 17.7844 33.4343 18.2707Z" fill="#242424"/>
</g>
<defs>
<clipPath id="clip0_1629_11385">
<rect width="40" height="40" fill="white" transform="translate(4 4)"/>
</clipPath>
</defs>
</svg>
