<svg width="21" height="21" viewBox="0 0 21 21" fill="none" xmlns="http://www.w3.org/2000/svg">
    <g clip-path="url(#clip0_669_2188)">
        <g clip-path="url(#clip1_669_2188)">
            <path
                d="M0.501559 4.99688C0.563305 2.09565 3.44197 0.052827 6.26823 0.90201C8.01863 1.42791 9.26758 2.99826 9.39201 4.8007C9.44159 5.52094 9.2339 6.17671 8.9364 6.81405C8.31052 8.1523 7.43485 9.33213 6.51148 10.4788C6.17842 10.8923 5.82947 11.2948 5.47957 11.6946C5.16243 12.0565 4.75079 12.0584 4.43645 11.7038C3.29883 10.4217 2.22857 9.0899 1.37816 7.60153C0.948748 6.85274 0.571725 6.08092 0.502495 5.20318C0.496882 5.13503 0.502495 5.06595 0.502495 4.99688H0.501559ZM6.85482 5.07885C6.85014 4.05743 5.97728 3.20364 4.94632 3.21286C3.90132 3.22207 3.04717 4.06941 3.05372 5.09266C3.06026 6.12513 3.92283 6.97063 4.95941 6.96142C5.99973 6.95221 6.85856 6.09934 6.85482 5.07885Z"
                fill="currentColor" />
            <path
                d="M2.46984 11.3639C2.79821 11.7415 3.11255 12.0979 3.42035 12.4589C3.74217 12.8356 4.13323 13.0917 4.63281 13.1737C5.29798 13.2833 5.88175 13.1027 6.32707 12.6192C7.53111 11.3123 8.6285 9.92429 9.52382 8.38987C9.59398 8.26922 9.66041 8.19922 9.82413 8.19922C11.6606 8.20659 13.4971 8.2029 15.3335 8.20475C15.8359 8.20475 16.1503 8.50592 16.052 8.93788C16.0127 9.11011 15.8687 9.298 15.718 9.40207C14.1707 10.4695 12.6111 11.5213 11.0562 12.5778C8.46385 14.3397 5.87333 16.1016 3.28095 17.8635C2.85247 18.1555 2.42399 18.4474 1.99552 18.7385C1.75789 18.8997 1.51091 18.9789 1.23305 18.8251C0.958002 18.6731 0.85977 18.4161 0.946775 18.0274C1.28638 16.5197 1.62785 15.0129 1.96839 13.5062C2.11807 12.8421 2.26682 12.1771 2.41651 11.5131C2.42587 11.4707 2.44551 11.4302 2.4689 11.3639H2.46984Z"
                fill="currentColor" />
            <path
                d="M10.4045 20.7074C8.10115 20.7074 5.79691 20.712 3.49361 20.6991C3.30089 20.6981 3.06887 20.6245 2.92387 20.5038C2.61233 20.245 2.69559 19.7808 3.06794 19.5248C3.83415 18.9998 4.60316 18.4803 5.37124 17.9581C6.5809 17.1356 7.79336 16.3178 8.99833 15.4888C9.29958 15.2816 9.58586 15.2503 9.91142 15.4198C12.3083 16.6705 14.7079 17.9167 17.1067 19.1646C17.3125 19.2715 17.5192 19.3783 17.7251 19.487C18.0656 19.6684 18.1984 19.9217 18.1217 20.234C18.0478 20.5324 17.7915 20.7055 17.4098 20.7055C15.0747 20.7064 12.7405 20.7055 10.4054 20.7055L10.4045 20.7074Z"
                fill="currentColor" />
            <path
                d="M20.5002 18.4135C20.504 18.9375 20.0315 19.2387 19.5778 19.0324C19.197 18.8592 18.8321 18.6529 18.4607 18.4604C16.1921 17.2806 13.9234 16.1008 11.6556 14.92C11.0952 14.6281 11.0587 14.0985 11.5789 13.7439C13.5548 12.3974 15.5325 11.0517 17.5112 9.70981C18.0351 9.35429 18.4991 9.54494 18.6376 10.1583C19.2447 12.845 19.8528 15.5307 20.4609 18.2173C20.4796 18.2993 20.4937 18.3812 20.4993 18.4135H20.5002Z"
                fill="currentColor" />
        </g>
    </g>
    <defs>
        <clipPath id="clip0_669_2188">
            <rect width="20" height="20" fill="white" transform="translate(0.5 0.70752)" />
        </clipPath>
        <clipPath id="clip1_669_2188">
            <rect width="20" height="20" fill="white" transform="translate(0.5 0.70752)" />
        </clipPath>
    </defs>
</svg>