<svg width="21" height="21" viewBox="0 0 21 21" fill="none" xmlns="http://www.w3.org/2000/svg">
    <g clip-path="url(#clip0_669_2205)">
        <path fill-rule="evenodd" clip-rule="evenodd"
            d="M9.45984 17.4711C8.03683 18.4922 5.53404 19.5888 4.52957 19.5888C3.88504 19.5888 3.70089 19.0614 4.02734 18.6429C4.12104 18.5197 4.25976 18.3528 4.42083 18.159C4.80659 17.695 5.32055 17.0768 5.65123 16.5335C5.71819 16.408 5.67634 16.2824 5.55078 16.2154C2.86384 14.7757 1.21484 12.4236 1.21484 9.74502C1.21484 5.53467 5.43359 2.13623 10.7071 2.13623C15.9805 2.13623 20.1992 5.53467 20.1992 9.74502C20.1992 13.9136 16.1981 17.3455 10.1629 17.3455C10.0551 17.3455 9.94724 17.3372 9.83934 17.3289L9.83649 17.3287C9.71927 17.3287 9.60213 17.3706 9.45984 17.4711ZM6.6808 11.0759C5.99442 11.0759 5.42522 10.5152 5.42522 9.82037C5.42522 9.12563 5.99442 8.5648 6.6808 8.5648C7.35882 8.5648 7.92802 9.12563 7.92802 9.82037C7.92802 10.5152 7.36719 11.0759 6.6808 11.0759ZM9.45145 9.82037C9.45145 10.5152 10.0123 11.0759 10.7071 11.0759C11.4018 11.0759 11.9627 10.5152 11.9627 9.82037C11.9627 9.12563 11.4018 8.5648 10.7071 8.5648C10.0123 8.5648 9.45145 9.12563 9.45145 9.82037ZM13.486 9.82037C13.486 10.5152 14.0468 11.0759 14.7416 11.0759C15.4196 11.0759 15.9972 10.5152 15.9972 9.82037C15.9972 9.12563 15.4196 8.5648 14.7416 8.5648C14.0468 8.5648 13.486 9.12563 13.486 9.82037Z"
            fill="currentColor" />
    </g>
    <defs>
        <clipPath id="clip0_669_2205">
            <rect width="18.9844" height="17.4526" fill="white"
                transform="translate(1.21484 2.13623)" />
        </clipPath>
    </defs>
</svg>