<svg width="29" height="29" viewBox="0 0 29 29" fill="none" xmlns="http://www.w3.org/2000/svg">
<path d="M14.0957 0.254395C21.8279 0.254395 28.0957 6.52219 28.0957 14.2544C28.0957 21.9866 21.8279 28.2544 14.0957 28.2544C6.3635 28.2544 0.0957031 21.9866 0.0957031 14.2544C0.0957031 6.52219 6.3635 0.254395 14.0957 0.254395ZM20.3145 8.65439C19.7811 8.66419 18.9621 8.94419 15.0239 10.5612C12.2596 11.7152 9.50292 12.8875 6.7541 14.078C6.0821 14.3426 5.7321 14.6002 5.6999 14.8522C5.6383 15.3366 6.3439 15.4864 7.2315 15.772C7.9553 16.0044 8.9297 16.276 9.4365 16.2872C9.8957 16.297 10.4081 16.1094 10.9737 15.7272C14.8377 13.1512 16.8299 11.8506 16.9559 11.8226C17.0441 11.803 17.1659 11.7778 17.2499 11.8506C17.3325 11.9234 17.3241 12.0606 17.3143 12.0984C17.2443 12.3938 13.6169 15.6516 13.4083 15.8658L13.3075 15.9666C12.5375 16.7268 11.7605 17.2238 13.1017 18.096C14.3141 18.8842 15.0197 19.3868 16.2657 20.196C17.0637 20.7112 17.6895 21.323 18.5127 21.2488C18.8921 21.2138 19.2827 20.8624 19.4829 19.8124C19.9519 17.3344 20.8759 11.9612 21.0887 9.74639C21.1016 9.56268 21.0936 9.37811 21.0649 9.19619C21.0476 9.04933 20.9756 8.91436 20.8633 8.81819C20.6939 8.68099 20.4307 8.65299 20.3145 8.65439V8.65439Z" fill="#FF6B4E"/>
</svg>
