<svg width="25" height="26" viewBox="0 0 25 26" fill="none" xmlns="http://www.w3.org/2000/svg">
<g clip-path="url(#clip0_954_4734)">
<path d="M11.168 25.3491H13.3242C13.9336 25.3491 14.3789 24.9858 14.5078 24.3881L15.1172 21.81C15.5742 21.6577 16.0195 21.4819 16.4062 21.2944L18.668 22.6772C19.1719 22.9936 19.7461 22.9467 20.168 22.5249L21.6797 21.0249C22.1016 20.603 22.1602 19.9936 21.8203 19.4897L20.4375 17.2514C20.6367 16.8413 20.8125 16.4194 20.9414 15.9975L23.543 15.3764C24.1406 15.2475 24.4922 14.8022 24.4922 14.1928V12.0717C24.4922 11.4741 24.1406 11.0288 23.543 10.8999L20.9648 10.2788C20.8125 9.79834 20.625 9.36474 20.4609 9.00146L21.8438 6.72802C22.1719 6.22412 22.1367 5.6499 21.7031 5.22802L20.168 3.71631C19.7344 3.31787 19.2188 3.24755 18.7031 3.54052L16.4062 4.95849C16.0312 4.75927 15.5977 4.58349 15.1172 4.43115L14.5078 1.81787C14.3789 1.22021 13.9336 0.856934 13.3242 0.856934H11.168C10.5586 0.856934 10.1133 1.22021 9.97266 1.81787L9.36328 4.40771C8.90625 4.56005 8.46094 4.73584 8.0625 4.94677L5.78906 3.54052C5.27344 3.24755 4.74609 3.30615 4.3125 3.71631L2.78906 5.22802C2.35547 5.6499 2.30859 6.22412 2.64844 6.72802L4.01953 9.00146C3.86719 9.36474 3.67969 9.79834 3.52734 10.2788L0.949219 10.8999C0.351562 11.0288 0 11.4741 0 12.0717V14.1928C0 14.8022 0.351562 15.2475 0.949219 15.3764L3.55078 15.9975C3.67969 16.4194 3.85547 16.8413 4.04297 17.2514L2.67188 19.4897C2.32031 19.9936 2.39062 20.603 2.8125 21.0249L4.3125 22.5249C4.73438 22.9467 5.32031 22.9936 5.82422 22.6772L8.07422 21.2944C8.47266 21.4819 8.90625 21.6577 9.36328 21.81L9.97266 24.3881C10.1133 24.9858 10.5586 25.3491 11.168 25.3491ZM12.2461 17.2397C9.97266 17.2397 8.10938 15.3647 8.10938 13.0913C8.10938 10.8296 9.97266 8.96631 12.2461 8.96631C14.5195 8.96631 16.3828 10.8296 16.3828 13.0913C16.3828 15.3647 14.5195 17.2397 12.2461 17.2397Z" fill="currentColor"/>
</g>
<defs>
<clipPath id="clip0_954_4734">
<rect width="24.4922" height="24.5039" fill="white" transform="translate(0 0.856934)"/>
</clipPath>
</defs>
</svg>
