<svg width="21" height="21" viewBox="0 0 21 21" fill="none" xmlns="http://www.w3.org/2000/svg">
    <g clip-path="url(#clip0_669_5542)">
        <path
            d="M10.0126 4.07645C10.1213 4.07645 10.18 4.00949 10.1967 3.90904C10.4478 2.55301 10.4227 2.48605 11.8792 2.22656C11.9796 2.20145 12.0466 2.14286 12.0466 2.03404C12.0466 1.93359 11.9796 1.86663 11.8792 1.84989C10.4227 1.5904 10.4478 1.52344 10.1967 0.167411C10.18 0.0669643 10.1213 0 10.0126 0C9.9037 0 9.84514 0.0669643 9.8284 0.167411C9.57729 1.52344 9.6024 1.5904 8.14592 1.84989C8.03711 1.86663 7.97852 1.93359 7.97852 2.03404C7.97852 2.14286 8.03711 2.20145 8.14592 2.22656C9.6024 2.48605 9.57729 2.55301 9.8284 3.90904C9.84514 4.00949 9.9037 4.07645 10.0126 4.07645Z"
            fill="currentColor" />
        <path
            d="M5.96094 9.83536C6.11998 9.83536 6.2288 9.72657 6.24554 9.57586C6.54687 7.34093 6.62221 7.34093 8.93248 6.89732C9.07477 6.87221 9.1836 6.77177 9.1836 6.61272C9.1836 6.46206 9.07477 6.35324 8.93248 6.33649C6.62221 6.01004 6.5385 5.93471 6.24554 3.66629C6.2288 3.50726 6.11998 3.39844 5.96094 3.39844C5.81027 3.39844 5.70145 3.50726 5.67634 3.67467C5.40848 5.9096 5.28292 5.90123 2.9894 6.33649C2.8471 6.36161 2.73828 6.46206 2.73828 6.61272C2.73828 6.78014 2.8471 6.87221 3.02288 6.89732C5.29967 7.26564 5.40848 7.32422 5.67634 9.55914C5.70145 9.72657 5.81027 9.83536 5.96094 9.83536Z"
            fill="currentColor" />
        <path
            d="M11.6364 19.0931C11.8541 19.0931 12.0131 18.9341 12.055 18.7081C12.6493 14.1294 13.2938 13.4263 17.8306 12.9241C18.065 12.8989 18.2241 12.7315 18.2241 12.5055C18.2241 12.2879 18.065 12.1205 17.8306 12.0954C13.2938 11.5931 12.6493 10.89 12.055 6.30294C12.0131 6.07693 11.8541 5.92627 11.6364 5.92627C11.4188 5.92627 11.2598 6.07693 11.2263 6.30294C10.632 10.89 9.97906 11.5931 5.45061 12.0954C5.20786 12.1205 5.04883 12.2879 5.04883 12.5055C5.04883 12.7315 5.20786 12.8989 5.45061 12.9241C9.9707 13.5184 10.5985 14.1294 11.2263 18.7081C11.2598 18.9341 11.4188 19.0931 11.6364 19.0931Z"
            fill="currentColor" />
    </g>
    <defs>
        <clipPath id="clip0_669_5542">
            <rect width="15.4855" height="20.6334" fill="white" transform="translate(2.73828)" />
        </clipPath>
    </defs>
</svg>