<svg width="29" height="29" viewBox="0 0 29 29" fill="none" xmlns="http://www.w3.org/2000/svg">
<g clip-path="url(#clip0_1285_5358)">
<path d="M14.1953 26.625C20.7344 26.625 26.1484 21.1993 26.1484 14.6719C26.1484 8.13281 20.7227 2.71875 14.1836 2.71875C7.65625 2.71875 2.24219 8.13281 2.24219 14.6719C2.24219 21.1993 7.66797 26.625 14.1953 26.625ZM14.1953 16.5704C13.1406 16.5704 12.3086 15.7266 12.3086 14.6836C12.3086 13.9454 12.7305 13.3125 13.375 12.9727V7.16015C13.375 6.70312 13.7266 6.35156 14.1836 6.35156C14.6406 6.35156 15.0039 6.70312 15.0039 7.16015V12.9844C15.6602 13.3008 16.082 13.9454 16.082 14.6836C16.082 15.7266 15.2383 16.5704 14.1953 16.5704ZM12.9297 3.35156H15.4375V1.64062C15.4375 0.9375 14.8867 0.351562 14.1836 0.351562C13.5039 0.351562 12.9297 0.9375 12.9297 1.64062V3.35156ZM21.4961 5.97656L23.2188 7.78125L24.5313 6.45703C24.8008 6.1875 24.9531 5.82422 24.9531 5.50781C24.9531 4.85156 24.4258 4.32422 23.7461 4.32422C23.3477 4.32422 23.0664 4.4414 22.7852 4.71094L21.4961 5.97656Z" fill="#5D5DF0"/>
</g>
<defs>
<clipPath id="clip0_1285_5358">
<rect width="23.9062" height="28.6523" fill="white" transform="translate(2.24219 0.351562)"/>
</clipPath>
</defs>
</svg>
