<svg width="336" height="81" viewBox="0 0 336 81" fill="none" xmlns="http://www.w3.org/2000/svg">
<g filter="url(#filter0_d_1659_3847)">
<rect width="335" height="79" rx="7" fill="#FEFDFB"/>
<g clip-path="url(#clip0_1659_3847)">
<path fill-rule="evenodd" clip-rule="evenodd" d="M27.0449 21.0333C28.4134 19.9177 28.8925 18.1929 28.3065 16.1494L27.7165 14.0873C27.9929 13.1569 28.6371 12.8245 29.6491 13.0805L34.9038 14.4107C35.9123 14.6748 36.3051 15.2726 36.0344 16.2093L35.0365 19.7018C34.3094 22.2676 32.3243 23.3886 29.7075 22.7359C28.4762 22.4241 27.5763 21.8355 27.0449 21.0333ZM29.0706 16.6427C28.9697 16.9965 29.1873 17.3452 29.5536 17.4299C29.9251 17.5246 30.2967 17.3253 30.3975 16.9815C30.4931 16.6378 30.2754 16.284 29.9092 16.1894C29.5376 16.0947 29.1661 16.299 29.0706 16.6427ZM32.1915 17.42C32.0907 17.7687 32.303 18.1224 32.6692 18.2121C33.0408 18.3068 33.4123 18.1025 33.5078 17.7588C33.6087 17.41 33.3964 17.0562 33.0248 16.9716C32.6586 16.8769 32.2871 17.0762 32.1915 17.42ZM28.6725 20.1153C29.3519 19.9758 29.8773 19.9808 30.4347 20.1253C30.992 20.2598 31.4378 20.4989 31.9633 20.9474C32.1226 21.0819 32.3243 20.9972 32.3136 20.7979C32.2818 20.0007 31.6449 19.3331 30.7213 19.1139C29.819 18.8797 28.9007 19.1587 28.4443 19.8313C28.3328 19.9957 28.4549 20.1601 28.6725 20.1153Z" fill="#242424"/>
<path d="M24.6064 21.4555C27.2231 20.7929 28.3378 18.8897 27.6053 16.3239L26.6074 12.8364C26.342 11.8997 25.6839 11.5609 24.6701 11.81L19.4101 13.1203C18.3857 13.3794 18.0088 13.9773 18.2848 14.9339L19.2721 18.4164C19.9992 20.9772 21.9844 22.1132 24.6064 21.4555ZM21.4323 16.3986C21.029 16.5032 20.9812 16.7524 20.806 16.7773C20.7317 16.7922 20.6309 16.7075 20.5884 16.563C20.461 16.1396 20.7476 15.6862 21.1988 15.5815C21.6606 15.4769 22.133 15.731 22.2551 16.1396C22.3028 16.289 22.2604 16.4036 22.1754 16.4335C21.979 16.4982 21.7933 16.3089 21.4323 16.3986ZM24.6701 15.5766C24.272 15.6862 24.2189 15.9303 24.0438 15.9502C23.9695 15.9652 23.8686 15.8805 23.8261 15.741C23.6988 15.3225 23.9854 14.8641 24.4365 14.7595C24.9037 14.6449 25.376 14.904 25.4928 15.3175C25.5406 15.4719 25.4981 15.5815 25.4132 15.6114C25.2168 15.6762 25.031 15.4819 24.6701 15.5766ZM24.1074 19.6719C22.9981 19.941 21.9207 19.5822 21.3527 18.7403C21.2413 18.5808 21.3368 18.4313 21.5491 18.4463C22.2498 18.5011 23.0884 18.3865 23.6988 18.2321C24.2932 18.0876 25.0629 17.7986 25.6573 17.415C25.8325 17.2954 26.0023 17.3801 25.9917 17.5844C25.9546 18.5808 25.2221 19.383 24.1074 19.6719Z" fill="#242424"/>
</g>
<path d="M52.804 23H46.91V14.25H49.136V21.138H52.804V23ZM55.6707 20.228V20.256C55.7407 21.124 56.3427 21.628 57.3927 21.628C58.1067 21.628 58.8627 21.376 59.5207 20.998L59.7307 22.664C59.0727 23 58.1347 23.196 57.1967 23.196C54.9847 23.196 53.5567 21.964 53.5567 19.794C53.5567 17.666 55.0127 16.28 57.0847 16.28C58.9327 16.28 59.9407 17.386 59.9407 19.01C59.9407 19.36 59.8847 19.878 59.8007 20.158L55.6707 20.228ZM55.6847 19.15L57.9387 19.136C57.9387 19.108 57.9387 19.038 57.9387 19.01C57.9387 18.24 57.6167 17.764 56.9447 17.764C56.2027 17.764 55.7547 18.408 55.6847 19.15ZM66.4308 21.068C66.4308 22.244 65.3948 23.21 63.4768 23.21C62.5808 23.21 61.4048 23 60.7188 22.636L61.1388 21.082C61.8948 21.474 62.7628 21.698 63.5188 21.698C64.0928 21.698 64.4008 21.502 64.4008 21.166C64.4008 20.802 64.0368 20.662 63.2948 20.494C61.7828 20.2 60.8168 19.64 60.8168 18.366C60.8168 17.148 61.8808 16.28 63.6868 16.28C64.5548 16.28 65.6888 16.532 66.3328 16.84L65.8988 18.38C65.1568 18.016 64.2748 17.792 63.6588 17.792C63.1408 17.792 62.8608 17.96 62.8608 18.282C62.8608 18.632 63.2668 18.772 63.9808 18.926C65.5208 19.262 66.4308 19.766 66.4308 21.068ZM76.3498 22.678C75.8038 23.014 74.9078 23.21 73.9698 23.21C71.8138 23.21 70.4418 22.006 70.4418 19.794C70.4418 17.638 71.8418 16.28 74.0258 16.28C74.9358 16.28 75.8038 16.49 76.3918 16.826L75.9718 18.45C75.4538 18.156 74.8238 17.946 74.2498 17.946C73.2138 17.946 72.6398 18.674 72.6398 19.724C72.6398 20.886 73.2978 21.53 74.3058 21.53C74.9638 21.53 75.5238 21.348 76.0278 21.04L76.3498 22.678ZM84.1267 19.724C84.1267 21.908 82.5447 23.21 80.5987 23.21C78.6387 23.21 77.1407 21.978 77.1407 19.766C77.1407 17.554 78.7087 16.28 80.6827 16.28C82.6427 16.28 84.1267 17.54 84.1267 19.724ZM81.9847 19.738C81.9847 18.646 81.5087 17.918 80.6267 17.918C79.7447 17.918 79.2827 18.632 79.2827 19.752C79.2827 20.858 79.7587 21.558 80.6407 21.558C81.5227 21.558 81.9847 20.858 81.9847 19.738ZM91.723 23H89.567V19.15C89.567 18.366 89.217 18.114 88.643 18.114C88.167 18.114 87.747 18.352 87.467 18.604V23H85.311V16.602L87.467 16.336C87.467 16.336 87.467 17.302 87.467 17.4C88.041 16.742 88.811 16.28 89.651 16.28C90.953 16.28 91.723 17.134 91.723 18.52V23ZM98.505 21.068C98.505 22.244 97.469 23.21 95.551 23.21C94.655 23.21 93.479 23 92.793 22.636L93.213 21.082C93.969 21.474 94.837 21.698 95.593 21.698C96.167 21.698 96.475 21.502 96.475 21.166C96.475 20.802 96.111 20.662 95.369 20.494C93.857 20.2 92.891 19.64 92.891 18.366C92.891 17.148 93.955 16.28 95.761 16.28C96.629 16.28 97.763 16.532 98.407 16.84L97.973 18.38C97.231 18.016 96.349 17.792 95.733 17.792C95.215 17.792 94.935 17.96 94.935 18.282C94.935 18.632 95.341 18.772 96.055 18.926C97.595 19.262 98.505 19.766 98.505 21.068ZM105.238 22.678C104.692 23.014 103.796 23.21 102.858 23.21C100.702 23.21 99.3305 22.006 99.3305 19.794C99.3305 17.638 100.73 16.28 102.914 16.28C103.824 16.28 104.692 16.49 105.28 16.826L104.86 18.45C104.342 18.156 103.712 17.946 103.138 17.946C102.102 17.946 101.528 18.674 101.528 19.724C101.528 20.886 102.186 21.53 103.194 21.53C103.852 21.53 104.412 21.348 104.916 21.04L105.238 22.678ZM108.604 19.206V23H106.448V16.602L108.604 16.336V17.288C108.982 16.63 109.486 16.28 110.172 16.28C110.522 16.28 110.9 16.364 111.25 16.546L110.816 18.45C110.564 18.324 110.284 18.254 110.004 18.254C109.472 18.254 108.996 18.52 108.604 19.206ZM114.419 14.418C114.419 15.16 113.943 15.566 113.145 15.566C112.361 15.566 111.871 15.16 111.871 14.418C111.871 13.662 112.361 13.256 113.145 13.256C113.943 13.256 114.419 13.662 114.419 14.418ZM114.223 23H112.067V16.602L114.223 16.336V23ZM119.958 22.972C119.454 23.126 119.034 23.21 118.376 23.21C116.766 23.21 115.898 22.552 115.982 20.844L116.08 18.366L115.1 18.198L115.142 16.826L116.122 16.504L116.15 15.02H118.236L118.222 16.574H119.846L119.804 18.268H118.068L117.998 20.606C117.97 21.208 118.32 21.46 118.852 21.46C119.118 21.46 119.412 21.39 119.706 21.292L119.958 22.972ZM126.314 21.068C126.314 22.244 125.278 23.21 123.36 23.21C122.464 23.21 121.288 23 120.602 22.636L121.022 21.082C121.778 21.474 122.646 21.698 123.402 21.698C123.976 21.698 124.284 21.502 124.284 21.166C124.284 20.802 123.92 20.662 123.178 20.494C121.666 20.2 120.7 19.64 120.7 18.366C120.7 17.148 121.764 16.28 123.57 16.28C124.438 16.28 125.572 16.532 126.216 16.84L125.782 18.38C125.04 18.016 124.158 17.792 123.542 17.792C123.024 17.792 122.744 17.96 122.744 18.282C122.744 18.632 123.15 18.772 123.864 18.926C125.404 19.262 126.314 19.766 126.314 21.068Z" fill="#242424"/>
<path d="M292.836 21.5V17.468L291.444 17.792L291.408 16.268L294.672 15.56V21.5H292.836ZM297.477 21.5V17.468L296.085 17.792L296.049 16.268L299.313 15.56V21.5H297.477ZM304.109 13.076L301.193 23.888H299.681L302.597 13.076H304.109ZM310.183 18.608C310.183 20.456 308.983 21.68 307.135 21.68C305.287 21.68 304.123 20.48 304.123 18.644C304.123 16.796 305.323 15.584 307.159 15.584C309.007 15.584 310.183 16.772 310.183 18.608ZM308.395 18.632C308.395 17.588 307.891 16.976 307.147 16.976C306.403 16.976 305.911 17.6 305.911 18.632C305.911 19.688 306.415 20.288 307.159 20.288C307.891 20.288 308.395 19.676 308.395 18.632ZM312.945 18.752C313.089 18.74 313.245 18.728 313.533 18.728C315.273 18.728 316.209 19.7 316.209 20.996C316.209 22.58 315.033 23.744 313.125 23.744C312.405 23.744 311.493 23.588 310.869 23.3L311.037 21.74C311.589 22.004 312.429 22.256 313.065 22.256C313.917 22.256 314.433 21.848 314.433 21.152C314.433 20.528 313.989 20.072 312.885 20.072C312.321 20.072 311.781 20.168 311.385 20.3L311.133 20.012L311.649 15.74H316.041L316.077 17.252H313.149L312.945 18.752Z" fill="#242424"/>
<path d="M24.524 51H19.106V42.25H20.296V49.88H24.524V51ZM26.5173 47.934V47.99C26.5593 49.25 27.3993 50.146 28.6313 50.146C29.3033 50.146 30.0313 49.964 30.5493 49.614L30.7593 50.678C30.1853 51.028 29.4153 51.21 28.6033 51.21C26.6713 51.21 25.3553 49.824 25.3553 47.864C25.3553 45.792 26.7273 44.378 28.5193 44.378C30.0733 44.378 30.9693 45.358 30.9693 46.884C30.9693 47.234 30.9133 47.626 30.8293 47.906C30.8153 47.906 26.5173 47.934 26.5173 47.934ZM26.5733 47.094L29.8633 47.066V46.968C29.8633 46.016 29.4153 45.386 28.4073 45.386C27.3153 45.386 26.6713 46.254 26.5733 47.094ZM41.6934 45.078C41.6934 47.052 40.3214 48.06 38.1374 48.088L36.9894 48.102V51H35.7994V42.25C35.7994 42.25 38.2074 42.25 38.2214 42.25C40.6154 42.25 41.6934 43.44 41.6934 45.078ZM40.4894 45.134C40.4894 43.958 39.7194 43.356 38.1654 43.356C38.1514 43.356 36.9894 43.356 36.9894 43.356V46.982L38.2634 46.954C39.7334 46.926 40.4894 46.268 40.4894 45.134ZM46.4285 49.544V47.808C44.5245 48.06 43.8245 48.452 43.8245 49.236C43.8245 49.81 44.2585 50.23 44.9585 50.23C45.5465 50.23 46.0645 49.936 46.4285 49.544ZM46.4705 50.314H46.4145C45.9245 50.888 45.3365 51.21 44.6505 51.21C43.4465 51.21 42.6065 50.412 42.6065 49.376C42.6065 48.228 43.4325 47.22 46.4285 47.08V46.898C46.4285 45.862 46.0225 45.442 44.9865 45.442C44.3285 45.442 43.5165 45.75 42.9145 46.156L42.6905 45.12C43.2505 44.728 44.1885 44.378 45.0985 44.378C46.8345 44.378 47.6045 45.12 47.5765 46.87V49.558C47.5765 50.09 47.6465 50.188 48.2065 50.188L48.1365 51.154C47.1005 51.238 46.6385 50.874 46.4705 50.314ZM50.6029 46.814V51H49.4549V44.56L50.6029 44.378V45.512C51.0509 44.798 51.5829 44.378 52.3949 44.378C52.8289 44.378 53.2629 44.49 53.5989 44.7L53.3049 45.778C52.9549 45.568 52.6049 45.484 52.2829 45.484C51.6669 45.484 51.0789 45.932 50.6029 46.814ZM59.4943 50.678C58.9203 51.028 58.1923 51.21 57.3803 51.21C55.3503 51.21 54.2303 49.824 54.2303 47.794C54.2303 45.75 55.5883 44.378 57.4643 44.378C58.2903 44.378 58.9483 44.56 59.5363 44.924L59.2423 45.974C58.7103 45.61 58.1083 45.442 57.4643 45.442C56.1483 45.442 55.4203 46.338 55.4203 47.78C55.4203 49.264 56.2323 50.146 57.4363 50.146C58.1083 50.146 58.7663 49.964 59.2843 49.614L59.4943 50.678ZM68.4486 44.588V41.564L69.5966 41.382V51H68.4486C68.4486 51 68.4486 50.482 68.4486 50.412C67.9866 50.846 67.4126 51.21 66.6566 51.21C64.8506 51.21 63.8006 49.754 63.8006 47.822C63.8006 45.876 65.1446 44.378 67.0626 44.378C67.5246 44.378 68.0426 44.462 68.4486 44.588ZM68.4486 45.876C68.0706 45.568 67.5806 45.414 67.0206 45.414C65.7186 45.414 64.9906 46.478 64.9906 47.794C64.9906 49.208 65.7046 50.146 66.8946 50.146C67.4966 50.146 68.0146 49.908 68.4486 49.53C68.4486 49.6 68.4486 45.876 68.4486 45.876ZM72.3317 47.934V47.99C72.3737 49.25 73.2137 50.146 74.4457 50.146C75.1177 50.146 75.8457 49.964 76.3637 49.614L76.5737 50.678C75.9997 51.028 75.2297 51.21 74.4177 51.21C72.4857 51.21 71.1697 49.824 71.1697 47.864C71.1697 45.792 72.5417 44.378 74.3337 44.378C75.8877 44.378 76.7837 45.358 76.7837 46.884C76.7837 47.234 76.7277 47.626 76.6437 47.906C76.6297 47.906 72.3317 47.934 72.3317 47.934ZM72.3877 47.094L75.6777 47.066V46.968C75.6777 46.016 75.2297 45.386 74.2217 45.386C73.1297 45.386 72.4857 46.254 72.3877 47.094ZM82.6498 51H81.5018V41.564L82.6498 41.382V51ZM87.9227 49.544V47.808C86.0187 48.06 85.3187 48.452 85.3187 49.236C85.3187 49.81 85.7527 50.23 86.4527 50.23C87.0407 50.23 87.5587 49.936 87.9227 49.544ZM87.9647 50.314H87.9087C87.4187 50.888 86.8307 51.21 86.1447 51.21C84.9407 51.21 84.1007 50.412 84.1007 49.376C84.1007 48.228 84.9267 47.22 87.9227 47.08V46.898C87.9227 45.862 87.5167 45.442 86.4807 45.442C85.8227 45.442 85.0107 45.75 84.4087 46.156L84.1847 45.12C84.7447 44.728 85.6827 44.378 86.5927 44.378C88.3287 44.378 89.0987 45.12 89.0707 46.87V49.558C89.0707 50.09 89.1407 50.188 89.7007 50.188L89.6307 51.154C88.5947 51.238 88.1327 50.874 87.9647 50.314ZM100.715 43.37H97.6486V51H96.4726V43.37H93.4066V42.25H100.715V43.37ZM101.384 47.934V47.99C101.426 49.25 102.266 50.146 103.498 50.146C104.17 50.146 104.898 49.964 105.416 49.614L105.626 50.678C105.052 51.028 104.282 51.21 103.47 51.21C101.538 51.21 100.222 49.824 100.222 47.864C100.222 45.792 101.594 44.378 103.386 44.378C104.94 44.378 105.836 45.358 105.836 46.884C105.836 47.234 105.78 47.626 105.696 47.906C105.682 47.906 101.384 47.934 101.384 47.934ZM101.44 47.094L104.73 47.066V46.968C104.73 46.016 104.282 45.386 103.274 45.386C102.182 45.386 101.538 46.254 101.44 47.094ZM105.178 43.72H104.338L102.966 41.942H102.952L101.566 43.72H100.726L102.336 41.102H103.568L105.178 43.72ZM110.743 50.93C110.267 51.112 109.777 51.21 109.301 51.21C108.055 51.21 107.397 50.608 107.439 49.208L107.537 45.624L106.473 45.554L106.515 44.826L107.579 44.504L107.607 43.118H108.713L108.671 44.588H110.673L110.631 45.624H108.629L108.531 49.25C108.517 49.852 108.797 50.16 109.371 50.16C109.763 50.16 110.155 50.062 110.533 49.922C110.547 49.922 110.743 50.93 110.743 50.93ZM112.787 47.934V47.99C112.829 49.25 113.669 50.146 114.901 50.146C115.573 50.146 116.301 49.964 116.819 49.614L117.029 50.678C116.455 51.028 115.685 51.21 114.873 51.21C112.941 51.21 111.625 49.824 111.625 47.864C111.625 45.792 112.997 44.378 114.789 44.378C116.343 44.378 117.239 45.358 117.239 46.884C117.239 47.234 117.183 47.626 117.099 47.906C117.085 47.906 112.787 47.934 112.787 47.934ZM112.843 47.094L116.133 47.066V46.968C116.133 46.016 115.685 45.386 114.677 45.386C113.585 45.386 112.941 46.254 112.843 47.094ZM126.185 44.588V41.564L127.333 41.382V51H126.185C126.185 51 126.185 50.482 126.185 50.412C125.723 50.846 125.149 51.21 124.393 51.21C122.587 51.21 121.537 49.754 121.537 47.822C121.537 45.876 122.881 44.378 124.799 44.378C125.261 44.378 125.779 44.462 126.185 44.588ZM126.185 45.876C125.807 45.568 125.317 45.414 124.757 45.414C123.455 45.414 122.727 46.478 122.727 47.794C122.727 49.208 123.441 50.146 124.631 50.146C125.233 50.146 125.751 49.908 126.185 49.53C126.185 49.6 126.185 45.876 126.185 45.876ZM128.906 42.488C128.962 42.04 129.27 41.662 129.858 41.662C130.432 41.662 131.048 42.194 131.048 42.936C131.048 44.098 130.012 44.98 128.976 45.666L128.486 45.19C129.452 44.49 129.914 43.902 129.914 43.412C129.914 43.062 129.662 42.838 128.906 42.488ZM140.844 46.59C140.844 49.208 139.024 51.21 136.448 51.21C133.886 51.21 132.052 49.418 132.052 46.646C132.052 44.028 133.872 42.04 136.448 42.04C139.01 42.04 140.844 43.818 140.844 46.59ZM139.654 46.646C139.654 44.49 138.338 43.104 136.42 43.104C134.558 43.104 133.256 44.49 133.256 46.59C133.256 48.746 134.558 50.146 136.476 50.146C138.338 50.146 139.654 48.746 139.654 46.646ZM143.626 46.814V51H142.478V44.56L143.626 44.378V45.512C144.074 44.798 144.606 44.378 145.418 44.378C145.852 44.378 146.286 44.49 146.622 44.7L146.328 45.778C145.978 45.568 145.628 45.484 145.306 45.484C144.69 45.484 144.102 45.932 143.626 46.814ZM151.738 47.934V47.99C151.78 49.25 152.62 50.146 153.852 50.146C154.524 50.146 155.252 49.964 155.77 49.614L155.98 50.678C155.406 51.028 154.636 51.21 153.824 51.21C151.892 51.21 150.576 49.824 150.576 47.864C150.576 45.792 151.948 44.378 153.74 44.378C155.294 44.378 156.19 45.358 156.19 46.884C156.19 47.234 156.134 47.626 156.05 47.906C156.036 47.906 151.738 47.934 151.738 47.934ZM151.794 47.094L155.084 47.066V46.968C155.084 46.016 154.636 45.386 153.628 45.386C152.536 45.386 151.892 46.254 151.794 47.094ZM161.825 49.18C161.825 50.398 160.803 51.224 159.403 51.224C158.619 51.224 157.751 50.986 157.163 50.622L157.457 49.572C157.989 49.936 158.773 50.174 159.431 50.174C160.159 50.174 160.705 49.838 160.705 49.264C160.705 48.62 159.949 48.41 159.193 48.2C158.283 47.948 157.289 47.5 157.289 46.324C157.289 45.134 158.297 44.378 159.585 44.378C160.327 44.378 161.069 44.56 161.657 44.854L161.363 45.904C160.831 45.61 160.061 45.428 159.529 45.428C158.843 45.428 158.395 45.708 158.395 46.226C158.395 46.842 159.081 47.052 159.879 47.262C160.817 47.514 161.825 47.962 161.825 49.18ZM166.716 50.93C166.24 51.112 165.75 51.21 165.274 51.21C164.028 51.21 163.37 50.608 163.412 49.208L163.51 45.624L162.446 45.554L162.488 44.826L163.552 44.504L163.58 43.118H164.686L164.644 44.588H166.646L166.604 45.624H164.602L164.504 49.25C164.49 49.852 164.77 50.16 165.344 50.16C165.736 50.16 166.128 50.062 166.506 49.922C166.52 49.922 166.716 50.93 166.716 50.93ZM176.577 51H175.429V46.968C175.429 45.862 175.009 45.484 174.099 45.484C173.427 45.484 172.783 45.834 172.419 46.184V51H171.271V44.56L172.419 44.378V45.344C173.007 44.756 173.763 44.378 174.505 44.378C175.807 44.378 176.577 45.204 176.577 46.59V51ZM179.246 47.934V47.99C179.288 49.25 180.128 50.146 181.36 50.146C182.032 50.146 182.76 49.964 183.278 49.614L183.488 50.678C182.914 51.028 182.144 51.21 181.332 51.21C179.4 51.21 178.084 49.824 178.084 47.864C178.084 45.792 179.456 44.378 181.248 44.378C182.802 44.378 183.698 45.358 183.698 46.884C183.698 47.234 183.642 47.626 183.558 47.906C183.544 47.906 179.246 47.934 179.246 47.934ZM179.302 47.094L182.592 47.066V46.968C182.592 46.016 182.144 45.386 181.136 45.386C180.044 45.386 179.4 46.254 179.302 47.094ZM183.32 41.186L181.276 43.72H180.436L181.92 41.186H183.32ZM189.564 51H188.416V41.564L189.564 41.382V51ZM194.837 49.544V47.808C192.933 48.06 192.233 48.452 192.233 49.236C192.233 49.81 192.667 50.23 193.367 50.23C193.955 50.23 194.473 49.936 194.837 49.544ZM194.879 50.314H194.823C194.333 50.888 193.745 51.21 193.059 51.21C191.855 51.21 191.015 50.412 191.015 49.376C191.015 48.228 191.841 47.22 194.837 47.08V46.898C194.837 45.862 194.431 45.442 193.395 45.442C192.737 45.442 191.925 45.75 191.323 46.156L191.099 45.12C191.659 44.728 192.597 44.378 193.507 44.378C195.243 44.378 196.013 45.12 195.985 46.87V49.558C195.985 50.09 196.055 50.188 196.615 50.188L196.545 51.154C195.509 51.238 195.047 50.874 194.879 50.314ZM210.205 51H209.057V46.996C209.057 45.876 208.651 45.47 207.825 45.47C207.111 45.47 206.565 45.848 206.201 46.198V46.59V51H205.053V46.996C205.053 45.876 204.647 45.47 203.821 45.47C203.107 45.47 202.561 45.778 202.197 46.128V51H201.049V44.56L202.197 44.378C202.197 44.378 202.197 45.19 202.197 45.26C202.813 44.672 203.485 44.378 204.255 44.378C204.997 44.378 205.613 44.728 205.935 45.442C206.621 44.756 207.377 44.378 208.259 44.378C209.435 44.378 210.205 45.204 210.205 46.618V51ZM212.879 47.934V47.99C212.921 49.25 213.761 50.146 214.993 50.146C215.665 50.146 216.393 49.964 216.911 49.614L217.121 50.678C216.547 51.028 215.777 51.21 214.965 51.21C213.033 51.21 211.717 49.824 211.717 47.864C211.717 45.792 213.089 44.378 214.881 44.378C216.435 44.378 217.331 45.358 217.331 46.884C217.331 47.234 217.275 47.626 217.191 47.906C217.177 47.906 212.879 47.934 212.879 47.934ZM212.935 47.094L216.225 47.066V46.968C216.225 46.016 215.777 45.386 214.769 45.386C213.677 45.386 213.033 46.254 212.935 47.094ZM216.673 43.72H215.833L214.461 41.942H214.447L213.061 43.72H212.221L213.831 41.102H215.063L216.673 43.72ZM228.019 51H226.871V46.996C226.871 45.876 226.465 45.47 225.639 45.47C224.925 45.47 224.379 45.848 224.015 46.198V46.59V51H222.867V46.996C222.867 45.876 222.461 45.47 221.635 45.47C220.921 45.47 220.375 45.778 220.011 46.128V51H218.863V44.56L220.011 44.378C220.011 44.378 220.011 45.19 220.011 45.26C220.627 44.672 221.299 44.378 222.069 44.378C222.811 44.378 223.427 44.728 223.749 45.442C224.435 44.756 225.191 44.378 226.073 44.378C227.249 44.378 228.019 45.204 228.019 46.618V51ZM230.693 47.934V47.99C230.735 49.25 231.575 50.146 232.807 50.146C233.479 50.146 234.207 49.964 234.725 49.614L234.935 50.678C234.361 51.028 233.591 51.21 232.779 51.21C230.847 51.21 229.531 49.824 229.531 47.864C229.531 45.792 230.903 44.378 232.695 44.378C234.249 44.378 235.145 45.358 235.145 46.884C235.145 47.234 235.089 47.626 235.005 47.906C234.991 47.906 230.693 47.934 230.693 47.934ZM230.749 47.094L234.039 47.066V46.968C234.039 46.016 233.591 45.386 232.583 45.386C231.491 45.386 230.847 46.254 230.749 47.094ZM243.153 49.544V47.808C241.249 48.06 240.549 48.452 240.549 49.236C240.549 49.81 240.983 50.23 241.683 50.23C242.271 50.23 242.789 49.936 243.153 49.544ZM243.195 50.314H243.139C242.649 50.888 242.061 51.21 241.375 51.21C240.171 51.21 239.331 50.412 239.331 49.376C239.331 48.228 240.157 47.22 243.153 47.08V46.898C243.153 45.862 242.747 45.442 241.711 45.442C241.053 45.442 240.241 45.75 239.639 46.156L239.415 45.12C239.975 44.728 240.913 44.378 241.823 44.378C243.559 44.378 244.329 45.12 244.301 46.87V49.558C244.301 50.09 244.371 50.188 244.931 50.188L244.861 51.154C243.825 51.238 243.363 50.874 243.195 50.314ZM251.486 51H250.338V46.968C250.338 45.862 249.918 45.484 249.008 45.484C248.336 45.484 247.692 45.834 247.328 46.184V51H246.18V44.56L247.328 44.378V45.344C247.916 44.756 248.672 44.378 249.414 44.378C250.716 44.378 251.486 45.204 251.486 46.59V51ZM258.718 51H257.57V46.968C257.57 45.862 257.15 45.484 256.24 45.484C255.568 45.484 254.924 45.834 254.56 46.184V51H253.412V44.56L254.56 44.378V45.344C255.148 44.756 255.904 44.378 256.646 44.378C257.948 44.378 258.718 45.204 258.718 46.59V51ZM261.386 47.934V47.99C261.428 49.25 262.268 50.146 263.5 50.146C264.172 50.146 264.9 49.964 265.418 49.614L265.628 50.678C265.054 51.028 264.284 51.21 263.472 51.21C261.54 51.21 260.224 49.824 260.224 47.864C260.224 45.792 261.596 44.378 263.388 44.378C264.942 44.378 265.838 45.358 265.838 46.884C265.838 47.234 265.782 47.626 265.698 47.906C265.684 47.906 261.386 47.934 261.386 47.934ZM261.442 47.094L264.732 47.066V46.968C264.732 46.016 264.284 45.386 263.276 45.386C262.184 45.386 261.54 46.254 261.442 47.094ZM265.46 41.186L263.416 43.72H262.576L264.06 41.186H265.46ZM268.113 47.934V47.99C268.155 49.25 268.995 50.146 270.227 50.146C270.899 50.146 271.627 49.964 272.145 49.614L272.355 50.678C271.781 51.028 271.011 51.21 270.199 51.21C268.267 51.21 266.951 49.824 266.951 47.864C266.951 45.792 268.323 44.378 270.115 44.378C271.669 44.378 272.565 45.358 272.565 46.884C272.565 47.234 272.509 47.626 272.425 47.906C272.411 47.906 268.113 47.934 268.113 47.934ZM268.169 47.094L271.459 47.066V46.968C271.459 46.016 271.011 45.386 270.003 45.386C268.911 45.386 268.267 46.254 268.169 47.094ZM282.659 54.262H281.511C281.511 54.262 281.511 50.482 281.511 50.412C281.049 50.846 280.475 51.21 279.719 51.21C277.913 51.21 276.863 49.754 276.863 47.822C276.863 45.876 278.207 44.378 280.125 44.378C280.727 44.378 281.357 44.504 281.763 44.616L282.659 44.378V54.262ZM281.511 45.876C281.133 45.568 280.643 45.386 280.083 45.386C278.781 45.386 278.053 46.478 278.053 47.794C278.053 49.208 278.767 50.174 279.957 50.174C280.559 50.174 281.077 49.908 281.511 49.53C281.511 49.6 281.511 45.876 281.511 45.876ZM284.596 44.588H285.744V48.62C285.744 49.726 286.164 50.104 287.004 50.104C287.746 50.104 288.39 49.754 288.754 49.404V44.588H289.902V51.028L288.754 51.21C288.754 51.21 288.754 50.342 288.754 50.272C288.166 50.86 287.41 51.21 286.598 51.21C285.366 51.21 284.596 50.384 284.596 48.998V44.588ZM292.627 47.934V47.99C292.669 49.25 293.509 50.146 294.741 50.146C295.413 50.146 296.141 49.964 296.659 49.614L296.869 50.678C296.295 51.028 295.525 51.21 294.713 51.21C292.781 51.21 291.465 49.824 291.465 47.864C291.465 45.792 292.837 44.378 294.629 44.378C296.183 44.378 297.079 45.358 297.079 46.884C297.079 47.234 297.023 47.626 296.939 47.906C296.925 47.906 292.627 47.934 292.627 47.934ZM292.683 47.094L295.973 47.066V46.968C295.973 46.016 295.525 45.386 294.517 45.386C293.425 45.386 292.781 46.254 292.683 47.094ZM25.798 58.768L25.42 59.846C24.65 59.342 23.936 59.104 23.026 59.104C21.122 59.104 19.848 60.42 19.848 62.59C19.848 64.76 21.136 66.146 23.054 66.146C23.992 66.146 24.916 65.768 25.532 65.292L25.728 66.482C25.014 66.93 24.006 67.21 23.026 67.21C20.464 67.21 18.644 65.432 18.644 62.646C18.644 59.86 20.478 58.04 23.026 58.04C24.02 58.04 25.084 58.32 25.798 58.768ZM27.9391 63.934V63.99C27.9811 65.25 28.8211 66.146 30.0531 66.146C30.7251 66.146 31.4531 65.964 31.9711 65.614L32.1811 66.678C31.6071 67.028 30.8371 67.21 30.0251 67.21C28.0931 67.21 26.7771 65.824 26.7771 63.864C26.7771 61.792 28.1491 60.378 29.9411 60.378C31.4951 60.378 32.3911 61.358 32.3911 62.884C32.3911 63.234 32.3351 63.626 32.2511 63.906C32.2371 63.906 27.9391 63.934 27.9391 63.934ZM27.9951 63.094L31.2851 63.066V62.968C31.2851 62.016 30.8371 61.386 29.8291 61.386C28.7371 61.386 28.0931 62.254 27.9951 63.094ZM39.2297 67H38.0817V62.968C38.0817 61.862 37.6617 61.484 36.7517 61.484C36.0797 61.484 35.4357 61.834 35.0717 62.184V67H33.9237V60.56L35.0717 60.378V61.344C35.6597 60.756 36.4157 60.378 37.1577 60.378C38.4597 60.378 39.2297 61.204 39.2297 62.59V67ZM44.5301 66.93C44.0541 67.112 43.5641 67.21 43.0881 67.21C41.8421 67.21 41.1841 66.608 41.2261 65.208L41.3241 61.624L40.2601 61.554L40.3021 60.826L41.3661 60.504L41.3941 59.118H42.5001L42.4581 60.588H44.4601L44.4181 61.624H42.4161L42.3181 65.25C42.3041 65.852 42.5841 66.16 43.1581 66.16C43.5501 66.16 43.9421 66.062 44.3201 65.922C44.3341 65.922 44.5301 66.93 44.5301 66.93ZM47.0483 62.814V67H45.9003V60.56L47.0483 60.378V61.512C47.4963 60.798 48.0283 60.378 48.8403 60.378C49.2743 60.378 49.7083 60.49 50.0443 60.7L49.7503 61.778C49.4003 61.568 49.0503 61.484 48.7283 61.484C48.1123 61.484 47.5243 61.932 47.0483 62.814ZM54.3856 65.544V63.808C52.4816 64.06 51.7816 64.452 51.7816 65.236C51.7816 65.81 52.2156 66.23 52.9156 66.23C53.5036 66.23 54.0216 65.936 54.3856 65.544ZM54.4276 66.314H54.3716C53.8816 66.888 53.2936 67.21 52.6076 67.21C51.4036 67.21 50.5636 66.412 50.5636 65.376C50.5636 64.228 51.3896 63.22 54.3856 63.08V62.898C54.3856 61.862 53.9796 61.442 52.9436 61.442C52.2856 61.442 51.4736 61.75 50.8716 62.156L50.6476 61.12C51.2076 60.728 52.1456 60.378 53.0556 60.378C54.7916 60.378 55.5616 61.12 55.5336 62.87V65.558C55.5336 66.09 55.6036 66.188 56.1636 66.188L56.0936 67.154C55.0576 67.238 54.5956 66.874 54.4276 66.314ZM58.56 67H57.412V57.564L58.56 57.382V67ZM69.7344 61.078C69.7344 63.052 68.3624 64.06 66.1784 64.088L65.0304 64.102V67H63.8404V58.25C63.8404 58.25 66.2484 58.25 66.2624 58.25C68.6564 58.25 69.7344 59.44 69.7344 61.078ZM68.5304 61.134C68.5304 59.958 67.7604 59.356 66.2064 59.356C66.1924 59.356 65.0304 59.356 65.0304 59.356V62.982L66.3044 62.954C67.7744 62.926 68.5304 62.268 68.5304 61.134ZM74.4695 65.544V63.808C72.5655 64.06 71.8655 64.452 71.8655 65.236C71.8655 65.81 72.2995 66.23 72.9995 66.23C73.5875 66.23 74.1055 65.936 74.4695 65.544ZM74.5115 66.314H74.4555C73.9655 66.888 73.3775 67.21 72.6915 67.21C71.4875 67.21 70.6475 66.412 70.6475 65.376C70.6475 64.228 71.4735 63.22 74.4695 63.08V62.898C74.4695 61.862 74.0635 61.442 73.0275 61.442C72.3695 61.442 71.5575 61.75 70.9555 62.156L70.7315 61.12C71.2915 60.728 72.2295 60.378 73.1395 60.378C74.8755 60.378 75.6455 61.12 75.6175 62.87V65.558C75.6175 66.09 75.6875 66.188 76.2475 66.188L76.1775 67.154C75.1415 67.238 74.6795 66.874 74.5115 66.314ZM78.644 62.814V67H77.496V60.56L78.644 60.378V61.512C79.092 60.798 79.624 60.378 80.436 60.378C80.87 60.378 81.304 60.49 81.64 60.7L81.346 61.778C80.996 61.568 80.646 61.484 80.324 61.484C79.708 61.484 79.12 61.932 78.644 62.814ZM84.004 63.836H83.976V67H82.828V57.564L83.976 57.382V63.528H84.004L86.65 60.588H88.106L85.166 63.626L88.12 67H86.65L84.004 63.836ZM95.6883 65.544V63.808C93.7843 64.06 93.0843 64.452 93.0843 65.236C93.0843 65.81 93.5183 66.23 94.2183 66.23C94.8063 66.23 95.3243 65.936 95.6883 65.544ZM95.7303 66.314H95.6743C95.1843 66.888 94.5963 67.21 93.9103 67.21C92.7063 67.21 91.8663 66.412 91.8663 65.376C91.8663 64.228 92.6923 63.22 95.6883 63.08V62.898C95.6883 61.862 95.2823 61.442 94.2463 61.442C93.5883 61.442 92.7763 61.75 92.1743 62.156L91.9503 61.12C92.5103 60.728 93.4483 60.378 94.3583 60.378C96.0943 60.378 96.8643 61.12 96.8363 62.87V65.558C96.8363 66.09 96.9063 66.188 97.4663 66.188L97.3963 67.154C96.3603 67.238 95.8983 66.874 95.7303 66.314ZM94.9183 59.72H94.0783L92.0343 57.186H93.4343L94.9183 59.72ZM107.99 65.306V58.25H109.152V67.084H107.864L103.174 59.944V67H102.012V58.25H103.328L107.99 65.306ZM111.994 63.934V63.99C112.036 65.25 112.876 66.146 114.108 66.146C114.78 66.146 115.508 65.964 116.026 65.614L116.236 66.678C115.662 67.028 114.892 67.21 114.08 67.21C112.148 67.21 110.832 65.824 110.832 63.864C110.832 61.792 112.204 60.378 113.996 60.378C115.55 60.378 116.446 61.358 116.446 62.884C116.446 63.234 116.39 63.626 116.306 63.906C116.292 63.906 111.994 63.934 111.994 63.934ZM112.05 63.094L115.34 63.066V62.968C115.34 62.016 114.892 61.386 113.884 61.386C112.792 61.386 112.148 62.254 112.05 63.094ZM120.341 67.028H119.291L117.317 60.588H118.549L119.907 65.348L121.391 60.616H122.441L124.079 65.362L125.255 60.588H126.529L124.597 67.028H123.547L121.909 62.24L120.341 67.028ZM130.597 64.144H127.153V63.066H130.597V64.144ZM138.022 58.25L134.984 63.528V67H133.794V63.514L130.742 58.25H132.086L134.41 62.338L136.706 58.25H138.022ZM144.064 63.794C144.064 65.852 142.72 67.21 140.914 67.21C139.094 67.21 137.82 65.866 137.82 63.794C137.82 61.736 139.136 60.364 140.984 60.364C142.818 60.364 144.064 61.722 144.064 63.794ZM142.93 63.808C142.93 62.436 142.188 61.4 140.928 61.4C139.654 61.4 138.954 62.394 138.954 63.78C138.954 65.152 139.696 66.174 140.956 66.174C142.23 66.174 142.93 65.194 142.93 63.808ZM146.785 62.814V67H145.637V60.56L146.785 60.378V61.512C147.233 60.798 147.765 60.378 148.577 60.378C149.011 60.378 149.445 60.49 149.781 60.7L149.487 61.778C149.137 61.568 148.787 61.484 148.465 61.484C147.849 61.484 147.261 61.932 146.785 62.814ZM152.145 63.836H152.117V67H150.969V57.564L152.117 57.382V63.528H152.145L154.791 60.588H156.247L153.307 63.626L156.261 67H154.791L152.145 63.836Z" fill="#242424"/>
</g>
<defs>
<filter id="filter0_d_1659_3847" x="0" y="0" width="336" height="81" filterUnits="userSpaceOnUse" color-interpolation-filters="sRGB">
<feFlood flood-opacity="0" result="BackgroundImageFix"/>
<feColorMatrix in="SourceAlpha" type="matrix" values="0 0 0 0 0 0 0 0 0 0 0 0 0 0 0 0 0 0 127 0" result="hardAlpha"/>
<feOffset dx="1" dy="2"/>
<feComposite in2="hardAlpha" operator="out"/>
<feColorMatrix type="matrix" values="0 0 0 0 0.141176 0 0 0 0 0.141176 0 0 0 0 0.141176 0 0 0 1 0"/>
<feBlend mode="normal" in2="BackgroundImageFix" result="effect1_dropShadow_1659_3847"/>
<feBlend mode="normal" in="SourceGraphic" in2="effect1_dropShadow_1659_3847" result="shape"/>
</filter>
<clipPath id="clip0_1659_3847">
<rect width="18.6429" height="12.8571" fill="white" transform="translate(17.4746 11.0488)"/>
</clipPath>
</defs>
</svg>
