<svg width="336" height="81" viewBox="0 0 336 81" fill="none" xmlns="http://www.w3.org/2000/svg">
<g filter="url(#filter0_d_1792_14691)">
<rect width="335" height="79" rx="7" fill="#FEFDFB"/>
<g clip-path="url(#clip0_1792_14691)">
<path d="M27 8.5C23.8939 8.5 21.375 11.0189 21.375 14.125C21.375 19.75 27 26.5 27 26.5C27 26.5 32.625 19.75 32.625 14.125C32.625 11.0189 30.1061 8.5 27 8.5ZM27 17.5709C25.0976 17.5709 23.5541 16.0285 23.5541 14.125C23.5541 12.2215 25.0965 10.6791 27 10.6791C28.9035 10.6791 30.4459 12.2215 30.4459 14.125C30.4459 16.0285 28.9035 17.5709 27 17.5709ZM24.8209 14.125C24.8209 12.9212 25.7963 11.9448 27.0011 11.9448C28.206 11.9448 29.1814 12.9201 29.1814 14.125C29.1814 15.3288 28.206 16.3053 27.0011 16.3053C25.7963 16.3053 24.8209 15.3299 24.8209 14.125Z" fill="#FF6B4E"/>
</g>
<path d="M52.804 23H46.91V14.25H49.136V21.138H52.804V23ZM55.6707 20.228V20.256C55.7407 21.124 56.3427 21.628 57.3927 21.628C58.1067 21.628 58.8627 21.376 59.5207 20.998L59.7307 22.664C59.0727 23 58.1347 23.196 57.1967 23.196C54.9847 23.196 53.5567 21.964 53.5567 19.794C53.5567 17.666 55.0127 16.28 57.0847 16.28C58.9327 16.28 59.9407 17.386 59.9407 19.01C59.9407 19.36 59.8847 19.878 59.8007 20.158L55.6707 20.228ZM55.6847 19.15L57.9387 19.136C57.9387 19.108 57.9387 19.038 57.9387 19.01C57.9387 18.24 57.6167 17.764 56.9447 17.764C56.2027 17.764 55.7547 18.408 55.6847 19.15ZM66.4308 21.068C66.4308 22.244 65.3948 23.21 63.4768 23.21C62.5808 23.21 61.4048 23 60.7188 22.636L61.1388 21.082C61.8948 21.474 62.7628 21.698 63.5188 21.698C64.0928 21.698 64.4008 21.502 64.4008 21.166C64.4008 20.802 64.0368 20.662 63.2948 20.494C61.7828 20.2 60.8168 19.64 60.8168 18.366C60.8168 17.148 61.8808 16.28 63.6868 16.28C64.5548 16.28 65.6888 16.532 66.3328 16.84L65.8988 18.38C65.1568 18.016 64.2748 17.792 63.6588 17.792C63.1408 17.792 62.8608 17.96 62.8608 18.282C62.8608 18.632 63.2668 18.772 63.9808 18.926C65.5208 19.262 66.4308 19.766 66.4308 21.068ZM81.1238 23H78.9678V19.164C78.9678 18.38 78.6318 18.114 78.0858 18.114C77.6518 18.114 77.2878 18.31 77.0358 18.534V18.912V23H74.8798V19.164C74.8798 18.38 74.5298 18.114 73.9838 18.114C73.5498 18.114 73.1998 18.282 72.9338 18.506V23H70.7778V16.602L72.9338 16.336C72.9338 16.336 72.9338 17.232 72.9338 17.246C73.5078 16.658 74.1518 16.28 75.0058 16.28C75.8178 16.28 76.5318 16.686 76.8398 17.442C77.4418 16.742 78.2118 16.28 79.0938 16.28C80.3538 16.28 81.1238 17.134 81.1238 18.534V23ZM89.0293 16.49L86.6773 22.692L86.3553 23.546C85.6833 25.45 84.8713 26.024 83.4993 26.024C82.7993 26.024 82.1693 25.884 81.5673 25.604L82.2113 23.966C82.6313 24.148 82.8833 24.26 83.2193 24.26C83.6813 24.26 83.8913 24.092 84.1433 23.462L84.3253 22.958L81.7773 16.49H84.0873L85.4733 20.774L86.7333 16.49H89.0293ZM95.0187 21.068C95.0187 22.244 93.9827 23.21 92.0647 23.21C91.1687 23.21 89.9927 23 89.3067 22.636L89.7267 21.082C90.4827 21.474 91.3507 21.698 92.1067 21.698C92.6807 21.698 92.9887 21.502 92.9887 21.166C92.9887 20.802 92.6247 20.662 91.8827 20.494C90.3707 20.2 89.4047 19.64 89.4047 18.366C89.4047 17.148 90.4687 16.28 92.2747 16.28C93.1427 16.28 94.2767 16.532 94.9207 16.84L94.4867 18.38C93.7447 18.016 92.8627 17.792 92.2467 17.792C91.7287 17.792 91.4487 17.96 91.4487 18.282C91.4487 18.632 91.8547 18.772 92.5687 18.926C94.1087 19.262 95.0187 19.766 95.0187 21.068ZM100.38 22.972C99.8762 23.126 99.4562 23.21 98.7982 23.21C97.1882 23.21 96.3202 22.552 96.4042 20.844L96.5022 18.366L95.5222 18.198L95.5642 16.826L96.5442 16.504L96.5722 15.02H98.6582L98.6442 16.574H100.268L100.226 18.268H98.4902L98.4202 20.606C98.3922 21.208 98.7422 21.46 99.2742 21.46C99.5402 21.46 99.8342 21.39 100.128 21.292L100.38 22.972ZM105.197 15.622H103.853L101.487 13.032H103.811L105.197 15.622ZM103.153 20.228V20.256C103.223 21.124 103.825 21.628 104.875 21.628C105.589 21.628 106.345 21.376 107.003 20.998L107.213 22.664C106.555 23 105.617 23.196 104.679 23.196C102.467 23.196 101.039 21.964 101.039 19.794C101.039 17.666 102.495 16.28 104.567 16.28C106.415 16.28 107.423 17.386 107.423 19.01C107.423 19.36 107.367 19.878 107.283 20.158L103.153 20.228ZM103.167 19.15L105.421 19.136C105.421 19.108 105.421 19.038 105.421 19.01C105.421 18.24 105.099 17.764 104.427 17.764C103.685 17.764 103.237 18.408 103.167 19.15ZM110.778 19.206V23H108.622V16.602L110.778 16.336V17.288C111.156 16.63 111.66 16.28 112.346 16.28C112.696 16.28 113.074 16.364 113.424 16.546L112.99 18.45C112.738 18.324 112.458 18.254 112.178 18.254C111.646 18.254 111.17 18.52 110.778 19.206ZM115.868 20.228V20.256C115.938 21.124 116.54 21.628 117.59 21.628C118.304 21.628 119.06 21.376 119.718 20.998L119.928 22.664C119.27 23 118.332 23.196 117.394 23.196C115.182 23.196 113.754 21.964 113.754 19.794C113.754 17.666 115.21 16.28 117.282 16.28C119.13 16.28 120.138 17.386 120.138 19.01C120.138 19.36 120.082 19.878 119.998 20.158L115.868 20.228ZM115.882 19.15L118.136 19.136C118.136 19.108 118.136 19.038 118.136 19.01C118.136 18.24 117.814 17.764 117.142 17.764C116.4 17.764 115.952 18.408 115.882 19.15ZM126.628 21.068C126.628 22.244 125.592 23.21 123.674 23.21C122.778 23.21 121.602 23 120.916 22.636L121.336 21.082C122.092 21.474 122.96 21.698 123.716 21.698C124.29 21.698 124.598 21.502 124.598 21.166C124.598 20.802 124.234 20.662 123.492 20.494C121.98 20.2 121.014 19.64 121.014 18.366C121.014 17.148 122.078 16.28 123.884 16.28C124.752 16.28 125.886 16.532 126.53 16.84L126.096 18.38C125.354 18.016 124.472 17.792 123.856 17.792C123.338 17.792 123.058 17.96 123.058 18.282C123.058 18.632 123.464 18.772 124.178 18.926C125.718 19.262 126.628 19.766 126.628 21.068ZM135.245 16.518V13.746L137.401 13.48V23H135.245C135.245 23 135.245 22.398 135.245 22.328C134.839 22.748 134.237 23.196 133.425 23.196C131.815 23.196 130.639 21.88 130.639 19.822C130.639 17.666 132.151 16.294 133.901 16.294C134.377 16.294 134.839 16.378 135.245 16.518ZM135.245 18.17C135.007 18.002 134.657 17.89 134.251 17.89C133.341 17.89 132.795 18.632 132.795 19.71C132.795 20.816 133.355 21.474 134.153 21.474C134.629 21.474 134.965 21.306 135.245 21.026C135.245 21.054 135.245 18.17 135.245 18.17ZM140.723 20.228V20.256C140.793 21.124 141.395 21.628 142.445 21.628C143.159 21.628 143.915 21.376 144.573 20.998L144.783 22.664C144.125 23 143.187 23.196 142.249 23.196C140.037 23.196 138.609 21.964 138.609 19.794C138.609 17.666 140.065 16.28 142.137 16.28C143.985 16.28 144.993 17.386 144.993 19.01C144.993 19.36 144.937 19.878 144.853 20.158L140.723 20.228ZM140.737 19.15L142.991 19.136C142.991 19.108 142.991 19.038 142.991 19.01C142.991 18.24 142.669 17.764 141.997 17.764C141.255 17.764 140.807 18.408 140.737 19.15ZM156.503 17.288C156.503 19.332 155.117 20.452 152.611 20.452L151.757 20.466V23H149.531V14.25C149.531 14.25 152.751 14.25 152.765 14.25C155.215 14.25 156.503 15.482 156.503 17.288ZM154.291 17.344C154.291 16.462 153.717 16.014 152.597 16.014C152.387 16.014 151.701 16.014 151.701 16.014V18.744L152.597 18.73C153.745 18.716 154.291 18.226 154.291 17.344ZM159.263 20.228V20.256C159.333 21.124 159.935 21.628 160.985 21.628C161.699 21.628 162.455 21.376 163.113 20.998L163.323 22.664C162.665 23 161.727 23.196 160.789 23.196C158.577 23.196 157.149 21.964 157.149 19.794C157.149 17.666 158.605 16.28 160.677 16.28C162.525 16.28 163.533 17.386 163.533 19.01C163.533 19.36 163.477 19.878 163.393 20.158L159.263 20.228ZM159.277 19.15L161.531 19.136C161.531 19.108 161.531 19.038 161.531 19.01C161.531 18.24 161.209 17.764 160.537 17.764C159.795 17.764 159.347 18.408 159.277 19.15ZM166.901 19.206V23H164.745V16.602L166.901 16.336V17.288C167.279 16.63 167.783 16.28 168.469 16.28C168.819 16.28 169.197 16.364 169.547 16.546L169.113 18.45C168.861 18.324 168.581 18.254 168.301 18.254C167.769 18.254 167.293 18.52 166.901 19.206ZM172.52 19.206V23H170.364V16.602L172.52 16.336V17.288C172.898 16.63 173.402 16.28 174.088 16.28C174.438 16.28 174.816 16.364 175.166 16.546L174.732 18.45C174.48 18.324 174.2 18.254 173.92 18.254C173.388 18.254 172.912 18.52 172.52 19.206ZM179.442 21.348V20.102C178.112 20.256 177.622 20.508 177.622 21.082C177.622 21.502 177.958 21.782 178.434 21.782C178.868 21.782 179.218 21.6 179.442 21.348ZM179.498 22.216H179.456C178.994 22.762 178.476 23.21 177.58 23.21C176.46 23.21 175.592 22.412 175.592 21.404C175.592 20.172 176.516 19.178 179.442 19.094V18.968C179.442 18.282 179.092 17.974 178.294 17.974C177.622 17.974 176.838 18.254 176.082 18.632L175.634 17.05C176.32 16.686 177.398 16.28 178.63 16.28C180.884 16.28 181.626 17.302 181.598 19.122L181.584 21.054C181.584 21.502 181.668 21.544 182.116 21.586L181.906 23.126C180.492 23.308 179.792 22.93 179.498 22.216ZM188.664 22.678C188.118 23.014 187.222 23.21 186.284 23.21C184.128 23.21 182.756 22.006 182.756 19.794C182.756 17.638 184.156 16.28 186.34 16.28C187.25 16.28 188.118 16.49 188.706 16.826L188.286 18.45C187.768 18.156 187.138 17.946 186.564 17.946C185.528 17.946 184.954 18.674 184.954 19.724C184.954 20.886 185.612 21.53 186.62 21.53C187.278 21.53 187.838 21.348 188.342 21.04L188.664 22.678ZM196.286 23H194.13V19.15C194.13 18.366 193.78 18.114 193.234 18.114C192.73 18.114 192.31 18.352 192.03 18.604V23H189.874V13.746L192.03 13.48C192.03 13.48 192.03 17.274 192.03 17.386C192.604 16.728 193.374 16.28 194.228 16.28C195.516 16.28 196.286 17.134 196.286 18.52V23ZM199.554 20.228V20.256C199.624 21.124 200.226 21.628 201.276 21.628C201.99 21.628 202.746 21.376 203.404 20.998L203.614 22.664C202.956 23 202.018 23.196 201.08 23.196C198.868 23.196 197.44 21.964 197.44 19.794C197.44 17.666 198.896 16.28 200.968 16.28C202.816 16.28 203.824 17.386 203.824 19.01C203.824 19.36 203.768 19.878 203.684 20.158L199.554 20.228ZM199.568 19.15L201.822 19.136C201.822 19.108 201.822 19.038 201.822 19.01C201.822 18.24 201.5 17.764 200.828 17.764C200.086 17.764 199.638 18.408 199.568 19.15Z" fill="#FF6B4E"/>
<path d="M289.836 21.5V17.468L288.444 17.792L288.408 16.268L291.672 15.56V21.5H289.836ZM296.157 17.168C296.637 16.904 296.877 16.496 296.877 16.148C296.877 15.524 296.481 15.164 295.881 15.164C295.245 15.164 294.873 15.56 294.873 16.064C294.873 16.568 295.329 16.892 296.157 17.168ZM295.557 18.356C295.005 18.62 294.741 19.052 294.741 19.424C294.741 19.988 295.185 20.396 295.905 20.396C296.589 20.396 296.985 20.072 296.985 19.496C296.985 18.956 296.409 18.62 295.557 18.356ZM297.201 17.6C298.005 17.924 298.677 18.452 298.677 19.4C298.677 20.684 297.753 21.68 295.821 21.68C294.165 21.68 293.013 20.912 293.013 19.592C293.013 18.776 293.613 18.14 294.537 17.912C293.769 17.576 293.133 17.048 293.133 16.124C293.133 14.804 294.045 13.868 295.917 13.868C297.537 13.868 298.569 14.66 298.569 15.956C298.569 16.724 298.041 17.336 297.201 17.6ZM302.891 13.076L299.975 23.888H298.462L301.379 13.076H302.891ZM308.964 18.608C308.964 20.456 307.764 21.68 305.916 21.68C304.068 21.68 302.904 20.48 302.904 18.644C302.904 16.796 304.104 15.584 305.94 15.584C307.788 15.584 308.964 16.772 308.964 18.608ZM307.176 18.632C307.176 17.588 306.672 16.976 305.928 16.976C305.184 16.976 304.692 17.6 304.692 18.632C304.692 19.688 305.196 20.288 305.94 20.288C306.672 20.288 307.176 19.676 307.176 18.632ZM309.831 18.224C309.831 15.92 311.583 13.88 314.547 13.46L314.991 14.96C313.359 15.248 312.027 16.004 311.679 17.18L311.727 17.216C312.123 16.82 312.747 16.484 313.599 16.484C314.907 16.484 315.855 17.348 315.855 18.848C315.855 20.444 314.787 21.68 312.855 21.68C310.923 21.68 309.831 20.228 309.831 18.224ZM311.751 18.824C311.751 19.592 312.171 20.288 312.903 20.288C313.563 20.288 313.983 19.796 313.983 19.016C313.983 18.308 313.575 17.852 312.903 17.852C312.459 17.852 312.039 18.056 311.811 18.26C311.775 18.416 311.751 18.632 311.751 18.824Z" fill="#FF6B4E"/>
<path d="M24.524 51H19.106V42.25H20.296V49.88H24.524V51ZM24.658 42.488C24.714 42.04 25.022 41.662 25.61 41.662C26.184 41.662 26.8 42.194 26.8 42.936C26.8 44.098 25.764 44.98 24.728 45.666L24.238 45.19C25.204 44.49 25.666 43.902 25.666 43.412C25.666 43.062 25.414 42.838 24.658 42.488ZM33.4602 51H32.3122V46.968C32.3122 45.862 31.8922 45.484 31.0522 45.484C30.3102 45.484 29.6662 45.834 29.3022 46.184V51H28.1542V41.564L29.3022 41.382C29.3022 41.382 29.3022 45.246 29.3022 45.316C29.8902 44.728 30.6462 44.378 31.4582 44.378C32.6902 44.378 33.4602 45.204 33.4602 46.59V51ZM41.2106 47.794C41.2106 49.852 39.8666 51.21 38.0606 51.21C36.2406 51.21 34.9666 49.866 34.9666 47.794C34.9666 45.736 36.2826 44.364 38.1306 44.364C39.9646 44.364 41.2106 45.722 41.2106 47.794ZM40.0766 47.808C40.0766 46.436 39.3346 45.4 38.0746 45.4C36.8006 45.4 36.1006 46.394 36.1006 47.78C36.1006 49.152 36.8426 50.174 38.1026 50.174C39.3766 50.174 40.0766 49.194 40.0766 47.808ZM40.3566 43.72H39.5166L38.1446 41.942H38.1306L36.7446 43.72H35.9046L37.5146 41.102H38.7466L40.3566 43.72ZM46.1571 50.93C45.6811 51.112 45.1911 51.21 44.7151 51.21C43.4691 51.21 42.8111 50.608 42.8531 49.208L42.9511 45.624L41.8871 45.554L41.9291 44.826L42.9931 44.504L43.0211 43.118H44.1271L44.0851 44.588H46.0871L46.0451 45.624H44.0431L43.9451 49.25C43.9311 49.852 44.2111 50.16 44.7851 50.16C45.1771 50.16 45.5691 50.062 45.9471 49.922C45.9611 49.922 46.1571 50.93 46.1571 50.93ZM48.2008 47.934V47.99C48.2428 49.25 49.0828 50.146 50.3148 50.146C50.9868 50.146 51.7148 49.964 52.2328 49.614L52.4428 50.678C51.8688 51.028 51.0988 51.21 50.2868 51.21C48.3548 51.21 47.0388 49.824 47.0388 47.864C47.0388 45.792 48.4108 44.378 50.2028 44.378C51.7568 44.378 52.6528 45.358 52.6528 46.884C52.6528 47.234 52.5968 47.626 52.5128 47.906C52.4988 47.906 48.2008 47.934 48.2008 47.934ZM48.2568 47.094L51.5468 47.066V46.968C51.5468 46.016 51.0988 45.386 50.0908 45.386C48.9988 45.386 48.3548 46.254 48.2568 47.094ZM55.3334 51H54.1854V41.564L55.3334 41.382V51ZM66.5078 45.078C66.5078 47.052 65.1358 48.06 62.9518 48.088L61.8038 48.102V51H60.6138V42.25C60.6138 42.25 63.0218 42.25 63.0358 42.25C65.4298 42.25 66.5078 43.44 66.5078 45.078ZM65.3038 45.134C65.3038 43.958 64.5338 43.356 62.9798 43.356C62.9658 43.356 61.8038 43.356 61.8038 43.356V46.982L63.0778 46.954C64.5478 46.926 65.3038 46.268 65.3038 45.134ZM68.5583 47.934V47.99C68.6003 49.25 69.4403 50.146 70.6723 50.146C71.3443 50.146 72.0723 49.964 72.5903 49.614L72.8003 50.678C72.2263 51.028 71.4563 51.21 70.6443 51.21C68.7123 51.21 67.3963 49.824 67.3963 47.864C67.3963 45.792 68.7683 44.378 70.5603 44.378C72.1143 44.378 73.0103 45.358 73.0103 46.884C73.0103 47.234 72.9543 47.626 72.8703 47.906C72.8563 47.906 68.5583 47.934 68.5583 47.934ZM68.6143 47.094L71.9043 47.066V46.968C71.9043 46.016 71.4563 45.386 70.4483 45.386C69.3563 45.386 68.7123 46.254 68.6143 47.094ZM75.6908 46.814V51H74.5428V44.56L75.6908 44.378V45.512C76.1388 44.798 76.6708 44.378 77.4828 44.378C77.9168 44.378 78.3508 44.49 78.6868 44.7L78.3928 45.778C78.0428 45.568 77.6928 45.484 77.3708 45.484C76.7548 45.484 76.1668 45.932 75.6908 46.814ZM81.0229 46.814V51H79.8749V44.56L81.0229 44.378V45.512C81.4709 44.798 82.0029 44.378 82.8149 44.378C83.2489 44.378 83.6829 44.49 84.0189 44.7L83.7249 45.778C83.3749 45.568 83.0249 45.484 82.7029 45.484C82.0869 45.484 81.4989 45.932 81.0229 46.814ZM88.3602 49.544V47.808C86.4562 48.06 85.7562 48.452 85.7562 49.236C85.7562 49.81 86.1902 50.23 86.8902 50.23C87.4782 50.23 87.9962 49.936 88.3602 49.544ZM88.4022 50.314H88.3462C87.8562 50.888 87.2682 51.21 86.5822 51.21C85.3782 51.21 84.5382 50.412 84.5382 49.376C84.5382 48.228 85.3642 47.22 88.3602 47.08V46.898C88.3602 45.862 87.9542 45.442 86.9182 45.442C86.2602 45.442 85.4482 45.75 84.8462 46.156L84.6222 45.12C85.1822 44.728 86.1202 44.378 87.0302 44.378C88.7662 44.378 89.5362 45.12 89.5082 46.87V49.558C89.5082 50.09 89.5782 50.188 90.1382 50.188L90.0682 51.154C89.0322 51.238 88.5702 50.874 88.4022 50.314ZM96.2306 50.678C95.6566 51.028 94.9286 51.21 94.1166 51.21C92.0866 51.21 90.9666 49.824 90.9666 47.794C90.9666 45.75 92.3246 44.378 94.2006 44.378C95.0266 44.378 95.6846 44.56 96.2726 44.924L95.9786 45.974C95.4466 45.61 94.8446 45.442 94.2006 45.442C92.8846 45.442 92.1566 46.338 92.1566 47.78C92.1566 49.264 92.9686 50.146 94.1726 50.146C94.8446 50.146 95.5026 49.964 96.0206 49.614L96.2306 50.678ZM103.077 51H101.929V46.968C101.929 45.862 101.509 45.484 100.669 45.484C99.9273 45.484 99.2833 45.834 98.9193 46.184V51H97.7713V41.564L98.9193 41.382C98.9193 41.382 98.9193 45.246 98.9193 45.316C99.5073 44.728 100.263 44.378 101.075 44.378C102.307 44.378 103.077 45.204 103.077 46.59V51ZM105.746 47.934V47.99C105.788 49.25 106.628 50.146 107.86 50.146C108.532 50.146 109.26 49.964 109.778 49.614L109.988 50.678C109.414 51.028 108.644 51.21 107.832 51.21C105.9 51.21 104.584 49.824 104.584 47.864C104.584 45.792 105.956 44.378 107.748 44.378C109.302 44.378 110.198 45.358 110.198 46.884C110.198 47.234 110.142 47.626 110.058 47.906C110.044 47.906 105.746 47.934 105.746 47.934ZM105.802 47.094L109.092 47.066V46.968C109.092 46.016 108.644 45.386 107.636 45.386C106.544 45.386 105.9 46.254 105.802 47.094ZM118.206 49.544V47.808C116.302 48.06 115.602 48.452 115.602 49.236C115.602 49.81 116.036 50.23 116.736 50.23C117.324 50.23 117.842 49.936 118.206 49.544ZM118.248 50.314H118.192C117.702 50.888 117.114 51.21 116.428 51.21C115.224 51.21 114.384 50.412 114.384 49.376C114.384 48.228 115.21 47.22 118.206 47.08V46.898C118.206 45.862 117.8 45.442 116.764 45.442C116.106 45.442 115.294 45.75 114.692 46.156L114.468 45.12C115.028 44.728 115.966 44.378 116.876 44.378C118.612 44.378 119.382 45.12 119.354 46.87V49.558C119.354 50.09 119.424 50.188 119.984 50.188L119.914 51.154C118.878 51.238 118.416 50.874 118.248 50.314ZM129.262 50.678C128.688 51.028 127.96 51.21 127.148 51.21C125.118 51.21 123.998 49.824 123.998 47.794C123.998 45.75 125.356 44.378 127.232 44.378C128.058 44.378 128.716 44.56 129.304 44.924L129.01 45.974C128.478 45.61 127.876 45.442 127.232 45.442C125.916 45.442 125.188 46.338 125.188 47.78C125.188 49.264 126 50.146 127.204 50.146C127.876 50.146 128.534 49.964 129.052 49.614L129.262 50.678ZM136.558 47.794C136.558 49.852 135.214 51.21 133.408 51.21C131.588 51.21 130.314 49.866 130.314 47.794C130.314 45.736 131.63 44.364 133.478 44.364C135.312 44.364 136.558 45.722 136.558 47.794ZM135.424 47.808C135.424 46.436 134.682 45.4 133.422 45.4C132.148 45.4 131.448 46.394 131.448 47.78C131.448 49.152 132.19 50.174 133.45 50.174C134.724 50.174 135.424 49.194 135.424 47.808ZM143.437 51H142.289V46.968C142.289 45.862 141.869 45.484 140.959 45.484C140.287 45.484 139.643 45.834 139.279 46.184V51H138.131V44.56L139.279 44.378V45.344C139.867 44.756 140.623 44.378 141.365 44.378C142.667 44.378 143.437 45.204 143.437 46.59V51ZM150.669 51H149.521V46.968C149.521 45.862 149.101 45.484 148.191 45.484C147.519 45.484 146.875 45.834 146.511 46.184V51H145.363V44.56L146.511 44.378V45.344C147.099 44.756 147.855 44.378 148.597 44.378C149.899 44.378 150.669 45.204 150.669 46.59V51ZM152.54 44.588H153.688V48.62C153.688 49.726 154.108 50.104 154.948 50.104C155.69 50.104 156.334 49.754 156.698 49.404V44.588H157.846V51.028L156.698 51.21C156.698 51.21 156.698 50.342 156.698 50.272C156.11 50.86 155.354 51.21 154.542 51.21C153.31 51.21 152.54 50.384 152.54 48.998V44.588ZM167.242 44.588V41.564L168.39 41.382V51H167.242C167.242 51 167.242 50.482 167.242 50.412C166.78 50.846 166.206 51.21 165.45 51.21C163.644 51.21 162.594 49.754 162.594 47.822C162.594 45.876 163.938 44.378 165.856 44.378C166.318 44.378 166.836 44.462 167.242 44.588ZM167.242 45.876C166.864 45.568 166.374 45.414 165.814 45.414C164.512 45.414 163.784 46.478 163.784 47.794C163.784 49.208 164.498 50.146 165.688 50.146C166.29 50.146 166.808 49.908 167.242 49.53C167.242 49.6 167.242 45.876 167.242 45.876ZM171.125 47.934V47.99C171.167 49.25 172.007 50.146 173.239 50.146C173.911 50.146 174.639 49.964 175.157 49.614L175.367 50.678C174.793 51.028 174.023 51.21 173.211 51.21C171.279 51.21 169.963 49.824 169.963 47.864C169.963 45.792 171.335 44.378 173.127 44.378C174.681 44.378 175.577 45.358 175.577 46.884C175.577 47.234 175.521 47.626 175.437 47.906C175.423 47.906 171.125 47.934 171.125 47.934ZM171.181 47.094L174.471 47.066V46.968C174.471 46.016 174.023 45.386 173.015 45.386C171.923 45.386 171.279 46.254 171.181 47.094ZM185.601 51H184.453V46.968C184.453 45.862 184.033 45.484 183.123 45.484C182.451 45.484 181.807 45.834 181.443 46.184V51H180.295V44.56L181.443 44.378V45.344C182.031 44.756 182.787 44.378 183.529 44.378C184.831 44.378 185.601 45.204 185.601 46.59V51ZM193.351 47.794C193.351 49.852 192.007 51.21 190.201 51.21C188.381 51.21 187.107 49.866 187.107 47.794C187.107 45.736 188.423 44.364 190.271 44.364C192.105 44.364 193.351 45.722 193.351 47.794ZM192.217 47.808C192.217 46.436 191.475 45.4 190.215 45.4C188.941 45.4 188.241 46.394 188.241 47.78C188.241 49.152 188.983 50.174 190.243 50.174C191.517 50.174 192.217 49.194 192.217 47.808ZM204.08 51H202.932V46.996C202.932 45.876 202.526 45.47 201.7 45.47C200.986 45.47 200.44 45.848 200.076 46.198V46.59V51H198.928V46.996C198.928 45.876 198.522 45.47 197.696 45.47C196.982 45.47 196.436 45.778 196.072 46.128V51H194.924V44.56L196.072 44.378C196.072 44.378 196.072 45.19 196.072 45.26C196.688 44.672 197.36 44.378 198.13 44.378C198.872 44.378 199.488 44.728 199.81 45.442C200.496 44.756 201.252 44.378 202.134 44.378C203.31 44.378 204.08 45.204 204.08 46.618V51ZM211.808 47.766C211.808 49.712 210.464 51.21 208.546 51.21C208.168 51.21 207.566 51.126 207.16 51L206.012 51.21V41.564L207.16 41.382C207.16 41.382 207.16 45.106 207.16 45.176C207.622 44.742 208.196 44.378 208.952 44.378C210.758 44.378 211.808 45.834 211.808 47.766ZM210.618 47.794C210.618 46.38 209.904 45.442 208.714 45.442C208.112 45.442 207.594 45.68 207.16 46.058C207.16 45.988 207.16 49.712 207.16 49.712C207.538 50.02 208.028 50.174 208.588 50.174C209.89 50.174 210.618 49.11 210.618 47.794ZM214.488 46.814V51H213.34V44.56L214.488 44.378V45.512C214.936 44.798 215.468 44.378 216.28 44.378C216.714 44.378 217.148 44.49 217.484 44.7L217.19 45.778C216.84 45.568 216.49 45.484 216.168 45.484C215.552 45.484 214.964 45.932 214.488 46.814ZM219.277 47.934V47.99C219.319 49.25 220.159 50.146 221.391 50.146C222.063 50.146 222.791 49.964 223.309 49.614L223.519 50.678C222.945 51.028 222.175 51.21 221.363 51.21C219.431 51.21 218.115 49.824 218.115 47.864C218.115 45.792 219.487 44.378 221.279 44.378C222.833 44.378 223.729 45.358 223.729 46.884C223.729 47.234 223.673 47.626 223.589 47.906C223.575 47.906 219.277 47.934 219.277 47.934ZM219.333 47.094L222.623 47.066V46.968C222.623 46.016 222.175 45.386 221.167 45.386C220.075 45.386 219.431 46.254 219.333 47.094ZM225.206 44.588H226.354V48.62C226.354 49.726 226.774 50.104 227.614 50.104C228.356 50.104 229 49.754 229.364 49.404V44.588H230.512V51.028L229.364 51.21C229.364 51.21 229.364 50.342 229.364 50.272C228.776 50.86 228.02 51.21 227.208 51.21C225.976 51.21 225.206 50.384 225.206 48.998V44.588ZM237.282 51H235.994L234.398 48.494L232.83 51H231.514L233.712 47.724L231.64 44.588H232.928L234.398 46.898L235.798 44.588H237.114L235.084 47.696L237.282 51ZM242.218 47.934V47.99C242.26 49.25 243.1 50.146 244.332 50.146C245.004 50.146 245.732 49.964 246.25 49.614L246.46 50.678C245.886 51.028 245.116 51.21 244.304 51.21C242.372 51.21 241.056 49.824 241.056 47.864C241.056 45.792 242.428 44.378 244.22 44.378C245.774 44.378 246.67 45.358 246.67 46.884C246.67 47.234 246.614 47.626 246.53 47.906C246.516 47.906 242.218 47.934 242.218 47.934ZM242.274 47.094L245.564 47.066V46.968C245.564 46.016 245.116 45.386 244.108 45.386C243.016 45.386 242.372 46.254 242.274 47.094ZM246.292 41.186L244.248 43.72H243.408L244.892 41.186H246.292ZM253.423 44.588L250.903 51.014H249.839L247.305 44.588H248.537L250.413 49.572L252.205 44.588H253.423ZM255.125 47.934V47.99C255.167 49.25 256.007 50.146 257.239 50.146C257.911 50.146 258.639 49.964 259.157 49.614L259.367 50.678C258.793 51.028 258.023 51.21 257.211 51.21C255.279 51.21 253.963 49.824 253.963 47.864C253.963 45.792 255.335 44.378 257.127 44.378C258.681 44.378 259.577 45.358 259.577 46.884C259.577 47.234 259.521 47.626 259.437 47.906C259.423 47.906 255.125 47.934 255.125 47.934ZM255.181 47.094L258.471 47.066V46.968C258.471 46.016 258.023 45.386 257.015 45.386C255.923 45.386 255.279 46.254 255.181 47.094ZM257.491 43.72H256.651L254.607 41.186H256.007L257.491 43.72ZM266.415 51H265.267V46.968C265.267 45.862 264.847 45.484 263.937 45.484C263.265 45.484 262.621 45.834 262.257 46.184V51H261.109V44.56L262.257 44.378V45.344C262.845 44.756 263.601 44.378 264.343 44.378C265.645 44.378 266.415 45.204 266.415 46.59V51ZM269.084 47.934V47.99C269.126 49.25 269.966 50.146 271.198 50.146C271.87 50.146 272.598 49.964 273.116 49.614L273.326 50.678C272.752 51.028 271.982 51.21 271.17 51.21C269.238 51.21 267.922 49.824 267.922 47.864C267.922 45.792 269.294 44.378 271.086 44.378C272.64 44.378 273.536 45.358 273.536 46.884C273.536 47.234 273.48 47.626 273.396 47.906C273.382 47.906 269.084 47.934 269.084 47.934ZM269.14 47.094L272.43 47.066V46.968C272.43 46.016 271.982 45.386 270.974 45.386C269.882 45.386 269.238 46.254 269.14 47.094ZM284.224 51H283.076V46.996C283.076 45.876 282.67 45.47 281.844 45.47C281.13 45.47 280.584 45.848 280.22 46.198V46.59V51H279.072V46.996C279.072 45.876 278.666 45.47 277.84 45.47C277.126 45.47 276.58 45.778 276.216 46.128V51H275.068V44.56L276.216 44.378C276.216 44.378 276.216 45.19 276.216 45.26C276.832 44.672 277.504 44.378 278.274 44.378C279.016 44.378 279.632 44.728 279.954 45.442C280.64 44.756 281.396 44.378 282.278 44.378C283.454 44.378 284.224 45.204 284.224 46.618V51ZM286.898 47.934V47.99C286.94 49.25 287.78 50.146 289.012 50.146C289.684 50.146 290.412 49.964 290.93 49.614L291.14 50.678C290.566 51.028 289.796 51.21 288.984 51.21C287.052 51.21 285.736 49.824 285.736 47.864C285.736 45.792 287.108 44.378 288.9 44.378C290.454 44.378 291.35 45.358 291.35 46.884C291.35 47.234 291.294 47.626 291.21 47.906C291.196 47.906 286.898 47.934 286.898 47.934ZM286.954 47.094L290.244 47.066V46.968C290.244 46.016 289.796 45.386 288.788 45.386C287.696 45.386 287.052 46.254 286.954 47.094ZM298.189 51H297.041V46.968C297.041 45.862 296.621 45.484 295.711 45.484C295.039 45.484 294.395 45.834 294.031 46.184V51H292.883V44.56L294.031 44.378V45.344C294.619 44.756 295.375 44.378 296.117 44.378C297.419 44.378 298.189 45.204 298.189 46.59V51ZM303.489 50.93C303.013 51.112 302.523 51.21 302.047 51.21C300.801 51.21 300.143 50.608 300.185 49.208L300.283 45.624L299.219 45.554L299.261 44.826L300.325 44.504L300.353 43.118H301.459L301.417 44.588H303.419L303.377 45.624H301.375L301.277 49.25C301.263 49.852 301.543 50.16 302.117 50.16C302.509 50.16 302.901 50.062 303.279 49.922C303.293 49.922 303.489 50.93 303.489 50.93ZM308.961 49.18C308.961 50.398 307.939 51.224 306.539 51.224C305.755 51.224 304.887 50.986 304.299 50.622L304.593 49.572C305.125 49.936 305.909 50.174 306.567 50.174C307.295 50.174 307.841 49.838 307.841 49.264C307.841 48.62 307.085 48.41 306.329 48.2C305.419 47.948 304.425 47.5 304.425 46.324C304.425 45.134 305.433 44.378 306.721 44.378C307.463 44.378 308.205 44.56 308.793 44.854L308.499 45.904C307.967 45.61 307.197 45.428 306.665 45.428C305.979 45.428 305.531 45.708 305.531 46.226C305.531 46.842 306.217 47.052 307.015 47.262C307.953 47.514 308.961 47.962 308.961 49.18ZM310.058 50.118C310.114 49.67 310.422 49.292 311.01 49.292C311.584 49.292 312.2 49.824 312.2 50.58C312.2 51.728 311.164 52.61 310.128 53.31L309.638 52.82C310.604 52.12 311.066 51.532 311.066 51.042C311.066 50.692 310.814 50.468 310.058 50.118ZM23.222 60.588V57.564L24.37 57.382V67H23.222C23.222 67 23.222 66.482 23.222 66.412C22.76 66.846 22.186 67.21 21.43 67.21C19.624 67.21 18.574 65.754 18.574 63.822C18.574 61.876 19.918 60.378 21.836 60.378C22.298 60.378 22.816 60.462 23.222 60.588ZM23.222 61.876C22.844 61.568 22.354 61.414 21.794 61.414C20.492 61.414 19.764 62.478 19.764 63.794C19.764 65.208 20.478 66.146 21.668 66.146C22.27 66.146 22.788 65.908 23.222 65.53C23.222 65.6 23.222 61.876 23.222 61.876ZM32.1871 63.794C32.1871 65.852 30.8431 67.21 29.0371 67.21C27.2171 67.21 25.9431 65.866 25.9431 63.794C25.9431 61.736 27.2591 60.364 29.1071 60.364C30.9411 60.364 32.1871 61.722 32.1871 63.794ZM31.0531 63.808C31.0531 62.436 30.3111 61.4 29.0511 61.4C27.7771 61.4 27.0771 62.394 27.0771 63.78C27.0771 65.152 27.8191 66.174 29.0791 66.174C30.3531 66.174 31.0531 65.194 31.0531 63.808ZM39.0656 67H37.9176V62.968C37.9176 61.862 37.4976 61.484 36.5876 61.484C35.9156 61.484 35.2716 61.834 34.9076 62.184V67H33.7596V60.56L34.9076 60.378V61.344C35.4956 60.756 36.2516 60.378 36.9936 60.378C38.2956 60.378 39.0656 61.204 39.0656 62.59V67ZM44.366 66.93C43.89 67.112 43.4 67.21 42.924 67.21C41.678 67.21 41.02 66.608 41.062 65.208L41.16 61.624L40.096 61.554L40.138 60.826L41.202 60.504L41.23 59.118H42.336L42.294 60.588H44.296L44.254 61.624H42.252L42.154 65.25C42.14 65.852 42.42 66.16 42.994 66.16C43.386 66.16 43.778 66.062 44.156 65.922C44.17 65.922 44.366 66.93 44.366 66.93ZM50.0697 67H48.9217V57.564L50.0697 57.382V67ZM52.7946 63.934V63.99C52.8366 65.25 53.6766 66.146 54.9086 66.146C55.5806 66.146 56.3086 65.964 56.8266 65.614L57.0366 66.678C56.4626 67.028 55.6926 67.21 54.8806 67.21C52.9486 67.21 51.6326 65.824 51.6326 63.864C51.6326 61.792 53.0046 60.378 54.7966 60.378C56.3506 60.378 57.2466 61.358 57.2466 62.884C57.2466 63.234 57.1906 63.626 57.1066 63.906C57.0926 63.906 52.7946 63.934 52.7946 63.934ZM52.8506 63.094L56.1406 63.066V62.968C56.1406 62.016 55.6926 61.386 54.6846 61.386C53.5926 61.386 52.9486 62.254 52.8506 63.094ZM63.1127 61.176C63.5747 60.742 64.1487 60.378 64.9047 60.378C66.7107 60.378 67.7607 61.834 67.7607 63.766C67.7607 65.712 66.4167 67.21 64.4987 67.21C64.1207 67.21 63.5187 67.154 63.1127 67.042V70.262H61.9647V60.56L63.1127 60.378C63.1127 60.378 63.1127 61.106 63.1127 61.176ZM63.1127 62.058C63.1127 61.988 63.1127 65.712 63.1127 65.712C63.4907 66.02 63.9807 66.174 64.5407 66.174C65.8427 66.174 66.5707 65.11 66.5707 63.794C66.5707 62.38 65.8567 61.442 64.6667 61.442C64.0647 61.442 63.5467 61.68 63.1127 62.058ZM70.4818 67H69.3338V57.564L70.4818 57.382V67ZM72.4087 60.588H73.5567V64.62C73.5567 65.726 73.9767 66.104 74.8167 66.104C75.5587 66.104 76.2027 65.754 76.5667 65.404V60.588H77.7147V67.028L76.5667 67.21C76.5667 67.21 76.5667 66.342 76.5667 66.272C75.9787 66.86 75.2227 67.21 74.4107 67.21C73.1787 67.21 72.4087 66.384 72.4087 64.998V60.588ZM83.7991 65.18C83.7991 66.398 82.7771 67.224 81.3771 67.224C80.5931 67.224 79.7251 66.986 79.1371 66.622L79.4311 65.572C79.9631 65.936 80.7471 66.174 81.4051 66.174C82.1331 66.174 82.6791 65.838 82.6791 65.264C82.6791 64.62 81.9231 64.41 81.1671 64.2C80.2571 63.948 79.2631 63.5 79.2631 62.324C79.2631 61.134 80.2711 60.378 81.5591 60.378C82.3011 60.378 83.0431 60.56 83.6311 60.854L83.3371 61.904C82.8051 61.61 82.0351 61.428 81.5031 61.428C80.8171 61.428 80.3691 61.708 80.3691 62.226C80.3691 62.842 81.0551 63.052 81.8531 63.262C82.7911 63.514 83.7991 63.962 83.7991 65.18ZM97.6578 67H96.5098V62.996C96.5098 61.876 96.1038 61.47 95.2778 61.47C94.5638 61.47 94.0178 61.848 93.6538 62.198V62.59V67H92.5058V62.996C92.5058 61.876 92.0998 61.47 91.2738 61.47C90.5598 61.47 90.0138 61.778 89.6498 62.128V67H88.5018V60.56L89.6498 60.378C89.6498 60.378 89.6498 61.19 89.6498 61.26C90.2658 60.672 90.9378 60.378 91.7078 60.378C92.4498 60.378 93.0658 60.728 93.3878 61.442C94.0738 60.756 94.8298 60.378 95.7118 60.378C96.8878 60.378 97.6578 61.204 97.6578 62.618V67ZM102.88 65.544V63.808C100.976 64.06 100.276 64.452 100.276 65.236C100.276 65.81 100.71 66.23 101.41 66.23C101.998 66.23 102.516 65.936 102.88 65.544ZM102.922 66.314H102.866C102.376 66.888 101.788 67.21 101.102 67.21C99.8977 67.21 99.0577 66.412 99.0577 65.376C99.0577 64.228 99.8837 63.22 102.88 63.08V62.898C102.88 61.862 102.474 61.442 101.438 61.442C100.78 61.442 99.9677 61.75 99.3657 62.156L99.1417 61.12C99.7017 60.728 100.64 60.378 101.55 60.378C103.286 60.378 104.056 61.12 104.028 62.87V65.558C104.028 66.09 104.098 66.188 104.658 66.188L104.588 67.154C103.552 67.238 103.09 66.874 102.922 66.314ZM107.054 62.814V67H105.906V60.56L107.054 60.378V61.512C107.502 60.798 108.034 60.378 108.846 60.378C109.28 60.378 109.714 60.49 110.05 60.7L109.756 61.778C109.406 61.568 109.056 61.484 108.734 61.484C108.118 61.484 107.53 61.932 107.054 62.814ZM116.477 70.262H115.329C115.329 70.262 115.329 66.482 115.329 66.412C114.867 66.846 114.293 67.21 113.537 67.21C111.731 67.21 110.681 65.754 110.681 63.822C110.681 61.876 112.025 60.378 113.943 60.378C114.545 60.378 115.175 60.504 115.581 60.616L116.477 60.378V70.262ZM115.329 61.876C114.951 61.568 114.461 61.386 113.901 61.386C112.599 61.386 111.871 62.478 111.871 63.794C111.871 65.208 112.585 66.174 113.775 66.174C114.377 66.174 114.895 65.908 115.329 65.53C115.329 65.6 115.329 61.876 115.329 61.876ZM118.415 60.588H119.563V64.62C119.563 65.726 119.983 66.104 120.823 66.104C121.565 66.104 122.209 65.754 122.573 65.404V60.588H123.721V67.028L122.573 67.21C122.573 67.21 122.573 66.342 122.573 66.272C121.985 66.86 121.229 67.21 120.417 67.21C119.185 67.21 118.415 66.384 118.415 64.998V60.588ZM128.993 65.544V63.808C127.089 64.06 126.389 64.452 126.389 65.236C126.389 65.81 126.823 66.23 127.523 66.23C128.111 66.23 128.629 65.936 128.993 65.544ZM129.035 66.314H128.979C128.489 66.888 127.901 67.21 127.215 67.21C126.011 67.21 125.171 66.412 125.171 65.376C125.171 64.228 125.997 63.22 128.993 63.08V62.898C128.993 61.862 128.587 61.442 127.551 61.442C126.893 61.442 126.081 61.75 125.479 62.156L125.255 61.12C125.815 60.728 126.753 60.378 127.663 60.378C129.399 60.378 130.169 61.12 130.141 62.87V65.558C130.141 66.09 130.211 66.188 130.771 66.188L130.701 67.154C129.665 67.238 129.203 66.874 129.035 66.314ZM137.325 67H136.177V62.968C136.177 61.862 135.757 61.484 134.847 61.484C134.175 61.484 133.531 61.834 133.167 62.184V67H132.019V60.56L133.167 60.378V61.344C133.755 60.756 134.511 60.378 135.253 60.378C136.555 60.378 137.325 61.204 137.325 62.59V67ZM142.626 66.93C142.15 67.112 141.66 67.21 141.184 67.21C139.938 67.21 139.28 66.608 139.322 65.208L139.42 61.624L138.356 61.554L138.398 60.826L139.462 60.504L139.49 59.118H140.596L140.554 60.588H142.556L142.514 61.624H140.512L140.414 65.25C140.4 65.852 140.68 66.16 141.254 66.16C141.646 66.16 142.038 66.062 142.416 65.922C142.43 65.922 142.626 66.93 142.626 66.93ZM150.472 65.544V63.808C148.568 64.06 147.868 64.452 147.868 65.236C147.868 65.81 148.302 66.23 149.002 66.23C149.59 66.23 150.108 65.936 150.472 65.544ZM150.514 66.314H150.458C149.968 66.888 149.38 67.21 148.694 67.21C147.49 67.21 146.649 66.412 146.649 65.376C146.649 64.228 147.476 63.22 150.472 63.08V62.898C150.472 61.862 150.066 61.442 149.03 61.442C148.372 61.442 147.56 61.75 146.958 62.156L146.734 61.12C147.294 60.728 148.232 60.378 149.142 60.378C150.878 60.378 151.648 61.12 151.62 62.87V65.558C151.62 66.09 151.69 66.188 152.25 66.188L152.18 67.154C151.144 67.238 150.682 66.874 150.514 66.314ZM158.65 60.588L156.088 67.07L155.654 68.218C155.038 69.842 154.394 70.332 153.4 70.332C152.91 70.332 152.476 70.192 152.042 69.996L152.378 68.932C152.714 69.1 153.078 69.24 153.4 69.24C153.89 69.24 154.198 68.974 154.632 67.854L155.024 66.86L152.532 60.588H153.764L155.626 65.572L157.432 60.588H158.65ZM162.968 65.544V63.808C161.064 64.06 160.364 64.452 160.364 65.236C160.364 65.81 160.798 66.23 161.498 66.23C162.086 66.23 162.604 65.936 162.968 65.544ZM163.01 66.314H162.954C162.464 66.888 161.876 67.21 161.19 67.21C159.986 67.21 159.146 66.412 159.146 65.376C159.146 64.228 159.972 63.22 162.968 63.08V62.898C162.968 61.862 162.562 61.442 161.526 61.442C160.868 61.442 160.056 61.75 159.454 62.156L159.23 61.12C159.79 60.728 160.728 60.378 161.638 60.378C163.374 60.378 164.144 61.12 164.116 62.87V65.558C164.116 66.09 164.186 66.188 164.746 66.188L164.676 67.154C163.64 67.238 163.178 66.874 163.01 66.314ZM171.3 67H170.152V62.968C170.152 61.862 169.732 61.484 168.822 61.484C168.15 61.484 167.506 61.834 167.142 62.184V67H165.994V60.56L167.142 60.378V61.344C167.73 60.756 168.486 60.378 169.228 60.378C170.53 60.378 171.3 61.204 171.3 62.59V67ZM176.6 66.93C176.124 67.112 175.634 67.21 175.158 67.21C173.912 67.21 173.254 66.608 173.296 65.208L173.394 61.624L172.33 61.554L172.372 60.826L173.436 60.504L173.464 59.118H174.57L174.528 60.588H176.53L176.488 61.624H174.486L174.388 65.25C174.374 65.852 174.654 66.16 175.228 66.16C175.62 66.16 176.012 66.062 176.39 65.922C176.404 65.922 176.6 66.93 176.6 66.93ZM181.898 63.934V63.99C181.94 65.25 182.78 66.146 184.012 66.146C184.684 66.146 185.412 65.964 185.93 65.614L186.14 66.678C185.566 67.028 184.796 67.21 183.984 67.21C182.052 67.21 180.736 65.824 180.736 63.864C180.736 61.792 182.108 60.378 183.9 60.378C185.454 60.378 186.35 61.358 186.35 62.884C186.35 63.234 186.294 63.626 186.21 63.906C186.196 63.906 181.898 63.934 181.898 63.934ZM181.954 63.094L185.244 63.066V62.968C185.244 62.016 184.796 61.386 183.788 61.386C182.696 61.386 182.052 62.254 181.954 63.094ZM185.972 57.186L183.928 59.72H183.088L184.572 57.186H185.972ZM191.257 66.93C190.781 67.112 190.291 67.21 189.815 67.21C188.569 67.21 187.911 66.608 187.953 65.208L188.051 61.624L186.987 61.554L187.029 60.826L188.093 60.504L188.121 59.118H189.227L189.185 60.588H191.187L191.145 61.624H189.143L189.045 65.25C189.031 65.852 189.311 66.16 189.885 66.16C190.277 66.16 190.669 66.062 191.047 65.922C191.061 65.922 191.257 66.93 191.257 66.93ZM193.3 63.934V63.99C193.342 65.25 194.182 66.146 195.414 66.146C196.086 66.146 196.814 65.964 197.332 65.614L197.542 66.678C196.968 67.028 196.198 67.21 195.386 67.21C193.454 67.21 192.138 65.824 192.138 63.864C192.138 61.792 193.51 60.378 195.302 60.378C196.856 60.378 197.752 61.358 197.752 62.884C197.752 63.234 197.696 63.626 197.612 63.906C197.598 63.906 193.3 63.934 193.3 63.934ZM193.356 63.094L196.646 63.066V62.968C196.646 62.016 196.198 61.386 195.19 61.386C194.098 61.386 193.454 62.254 193.356 63.094ZM197.374 57.186L195.33 59.72H194.49L195.974 57.186H197.374ZM206.573 65.18C206.573 66.398 205.551 67.224 204.151 67.224C203.367 67.224 202.499 66.986 201.911 66.622L202.205 65.572C202.737 65.936 203.521 66.174 204.179 66.174C204.907 66.174 205.453 65.838 205.453 65.264C205.453 64.62 204.697 64.41 203.941 64.2C203.031 63.948 202.037 63.5 202.037 62.324C202.037 61.134 203.045 60.378 204.333 60.378C205.075 60.378 205.817 60.56 206.405 60.854L206.111 61.904C205.579 61.61 204.809 61.428 204.277 61.428C203.591 61.428 203.143 61.708 203.143 62.226C203.143 62.842 203.829 63.052 204.627 63.262C205.565 63.514 206.573 63.962 206.573 65.18ZM211.38 65.544V63.808C209.476 64.06 208.776 64.452 208.776 65.236C208.776 65.81 209.21 66.23 209.91 66.23C210.498 66.23 211.016 65.936 211.38 65.544ZM211.422 66.314H211.366C210.876 66.888 210.288 67.21 209.602 67.21C208.398 67.21 207.558 66.412 207.558 65.376C207.558 64.228 208.384 63.22 211.38 63.08V62.898C211.38 61.862 210.974 61.442 209.938 61.442C209.28 61.442 208.468 61.75 207.866 62.156L207.642 61.12C208.202 60.728 209.14 60.378 210.05 60.378C211.786 60.378 212.556 61.12 212.528 62.87V65.558C212.528 66.09 212.598 66.188 213.158 66.188L213.088 67.154C212.052 67.238 211.59 66.874 211.422 66.314ZM220.966 66.93C220.49 67.112 220 67.21 219.524 67.21C218.278 67.21 217.62 66.608 217.662 65.208L217.76 61.624L216.696 61.554L216.738 60.826L217.802 60.504L217.83 59.118H218.936L218.894 60.588H220.896L220.854 61.624H218.852L218.754 65.25C218.74 65.852 219.02 66.16 219.594 66.16C219.986 66.16 220.378 66.062 220.756 65.922C220.77 65.922 220.966 66.93 220.966 66.93ZM223.484 62.814V67H222.336V60.56L223.484 60.378V61.512C223.932 60.798 224.464 60.378 225.276 60.378C225.71 60.378 226.144 60.49 226.48 60.7L226.186 61.778C225.836 61.568 225.486 61.484 225.164 61.484C224.548 61.484 223.96 61.932 223.484 62.814ZM230.821 65.544V63.808C228.917 64.06 228.217 64.452 228.217 65.236C228.217 65.81 228.651 66.23 229.351 66.23C229.939 66.23 230.457 65.936 230.821 65.544ZM230.863 66.314H230.807C230.317 66.888 229.729 67.21 229.043 67.21C227.839 67.21 226.999 66.412 226.999 65.376C226.999 64.228 227.825 63.22 230.821 63.08V62.898C230.821 61.862 230.415 61.442 229.379 61.442C228.721 61.442 227.909 61.75 227.307 62.156L227.083 61.12C227.643 60.728 228.581 60.378 229.491 60.378C231.227 60.378 231.997 61.12 231.969 62.87V65.558C231.969 66.09 232.039 66.188 232.599 66.188L232.529 67.154C231.493 67.238 231.031 66.874 230.863 66.314ZM239.154 67H238.006V62.968C238.006 61.862 237.586 61.484 236.676 61.484C236.004 61.484 235.36 61.834 234.996 62.184V67H233.848V60.56L234.996 60.378V61.344C235.584 60.756 236.34 60.378 237.082 60.378C238.384 60.378 239.154 61.204 239.154 62.59V67ZM245.182 65.18C245.182 66.398 244.16 67.224 242.76 67.224C241.976 67.224 241.108 66.986 240.52 66.622L240.814 65.572C241.346 65.936 242.13 66.174 242.788 66.174C243.516 66.174 244.062 65.838 244.062 65.264C244.062 64.62 243.306 64.41 242.55 64.2C241.64 63.948 240.646 63.5 240.646 62.324C240.646 61.134 241.654 60.378 242.942 60.378C243.684 60.378 244.426 60.56 245.014 60.854L244.72 61.904C244.188 61.61 243.418 61.428 242.886 61.428C242.2 61.428 241.752 61.708 241.752 62.226C241.752 62.842 242.438 63.052 243.236 63.262C244.174 63.514 245.182 63.962 245.182 65.18ZM250.339 57.564C250.339 57.592 250.059 58.642 250.059 58.614C249.765 58.488 249.359 58.334 249.037 58.334C248.393 58.334 248.085 58.726 248.085 59.692V60.588H250.115L250.073 61.624H248.085V67H246.937V61.638L245.817 61.554L245.873 60.826L246.923 60.518L246.937 59.706C246.965 57.914 247.791 57.256 249.051 57.256C249.527 57.256 250.031 57.424 250.339 57.564ZM256.953 63.794C256.953 65.852 255.609 67.21 253.803 67.21C251.983 67.21 250.709 65.866 250.709 63.794C250.709 61.736 252.025 60.364 253.873 60.364C255.707 60.364 256.953 61.722 256.953 63.794ZM255.819 63.808C255.819 62.436 255.077 61.4 253.817 61.4C252.543 61.4 251.843 62.394 251.843 63.78C251.843 65.152 252.585 66.174 253.845 66.174C255.119 66.174 255.819 65.194 255.819 63.808ZM259.673 62.814V67H258.525V60.56L259.673 60.378V61.512C260.121 60.798 260.653 60.378 261.465 60.378C261.899 60.378 262.333 60.49 262.669 60.7L262.375 61.778C262.025 61.568 261.675 61.484 261.353 61.484C260.737 61.484 260.149 61.932 259.673 62.814ZM273.013 67H271.865V62.996C271.865 61.876 271.459 61.47 270.633 61.47C269.919 61.47 269.373 61.848 269.009 62.198V62.59V67H267.861V62.996C267.861 61.876 267.455 61.47 266.629 61.47C265.915 61.47 265.369 61.778 265.005 62.128V67H263.857V60.56L265.005 60.378C265.005 60.378 265.005 61.19 265.005 61.26C265.621 60.672 266.293 60.378 267.063 60.378C267.805 60.378 268.421 60.728 268.743 61.442C269.429 60.756 270.185 60.378 271.067 60.378C272.243 60.378 273.013 61.204 273.013 62.618V67ZM278.235 65.544V63.808C276.331 64.06 275.631 64.452 275.631 65.236C275.631 65.81 276.065 66.23 276.765 66.23C277.353 66.23 277.871 65.936 278.235 65.544ZM278.277 66.314H278.221C277.731 66.888 277.143 67.21 276.457 67.21C275.253 67.21 274.413 66.412 274.413 65.376C274.413 64.228 275.239 63.22 278.235 63.08V62.898C278.235 61.862 277.829 61.442 276.793 61.442C276.135 61.442 275.323 61.75 274.721 62.156L274.497 61.12C275.057 60.728 275.995 60.378 276.905 60.378C278.641 60.378 279.411 61.12 279.383 62.87V65.558C279.383 66.09 279.453 66.188 280.013 66.188L279.943 67.154C278.907 67.238 278.445 66.874 278.277 66.314ZM284.636 66.93C284.16 67.112 283.67 67.21 283.194 67.21C281.948 67.21 281.29 66.608 281.332 65.208L281.43 61.624L280.366 61.554L280.408 60.826L281.472 60.504L281.5 59.118H282.606L282.564 60.588H284.566L284.524 61.624H282.522L282.424 65.25C282.41 65.852 282.69 66.16 283.264 66.16C283.656 66.16 284.048 66.062 284.426 65.922C284.44 65.922 284.636 66.93 284.636 66.93ZM287.336 58.348C287.336 58.782 287.098 59.174 286.58 59.174C286.062 59.174 285.824 58.782 285.824 58.348C285.824 57.914 286.062 57.522 286.58 57.522C287.098 57.522 287.336 57.914 287.336 58.348ZM287.154 67H286.006V60.56L287.154 60.378V67ZM294.961 63.794C294.961 65.852 293.617 67.21 291.811 67.21C289.991 67.21 288.717 65.866 288.717 63.794C288.717 61.736 290.033 60.364 291.881 60.364C293.715 60.364 294.961 61.722 294.961 63.794ZM293.827 63.808C293.827 62.436 293.085 61.4 291.825 61.4C290.551 61.4 289.851 62.394 289.851 63.78C289.851 65.152 290.593 66.174 291.853 66.174C293.127 66.174 293.827 65.194 293.827 63.808ZM301.839 67H300.691V62.968C300.691 61.862 300.271 61.484 299.361 61.484C298.689 61.484 298.045 61.834 297.681 62.184V67H296.533V60.56L297.681 60.378V61.344C298.269 60.756 299.025 60.378 299.767 60.378C301.069 60.378 301.839 61.204 301.839 62.59V67ZM305.221 66.3C305.221 66.776 304.857 67.21 304.339 67.21C303.807 67.21 303.429 66.776 303.429 66.3C303.429 65.824 303.807 65.418 304.339 65.418C304.857 65.418 305.221 65.824 305.221 66.3ZM308.298 66.3C308.298 66.776 307.934 67.21 307.416 67.21C306.884 67.21 306.506 66.776 306.506 66.3C306.506 65.824 306.884 65.418 307.416 65.418C307.934 65.418 308.298 65.824 308.298 66.3ZM311.374 66.3C311.374 66.776 311.01 67.21 310.492 67.21C309.96 67.21 309.582 66.776 309.582 66.3C309.582 65.824 309.96 65.418 310.492 65.418C311.01 65.418 311.374 65.824 311.374 66.3Z" fill="#242424"/>
</g>
<defs>
<filter id="filter0_d_1792_14691" x="0" y="0" width="336" height="81" filterUnits="userSpaceOnUse" color-interpolation-filters="sRGB">
<feFlood flood-opacity="0" result="BackgroundImageFix"/>
<feColorMatrix in="SourceAlpha" type="matrix" values="0 0 0 0 0 0 0 0 0 0 0 0 0 0 0 0 0 0 127 0" result="hardAlpha"/>
<feOffset dx="1" dy="2"/>
<feComposite in2="hardAlpha" operator="out"/>
<feColorMatrix type="matrix" values="0 0 0 0 1 0 0 0 0 0.419608 0 0 0 0 0.305882 0 0 0 1 0"/>
<feBlend mode="normal" in2="BackgroundImageFix" result="effect1_dropShadow_1792_14691"/>
<feBlend mode="normal" in="SourceGraphic" in2="effect1_dropShadow_1792_14691" result="shape"/>
</filter>
<clipPath id="clip0_1792_14691">
<rect width="18" height="18" fill="white" transform="translate(18 8.5)"/>
</clipPath>
</defs>
</svg>
