<svg width="336" height="81" viewBox="0 0 336 81" fill="none" xmlns="http://www.w3.org/2000/svg">
<g filter="url(#filter0_d_1397_42068)">
<rect width="335" height="79" rx="7" fill="#FEFDFB"/>
<g clip-path="url(#clip0_1397_42068)">
<path d="M27 8.5C23.8939 8.5 21.375 11.0189 21.375 14.125C21.375 19.75 27 26.5 27 26.5C27 26.5 32.625 19.75 32.625 14.125C32.625 11.0189 30.1061 8.5 27 8.5ZM27 17.5709C25.0976 17.5709 23.5541 16.0285 23.5541 14.125C23.5541 12.2215 25.0965 10.6791 27 10.6791C28.9035 10.6791 30.4459 12.2215 30.4459 14.125C30.4459 16.0285 28.9035 17.5709 27 17.5709ZM24.8209 14.125C24.8209 12.9212 25.7963 11.9448 27.0011 11.9448C28.206 11.9448 29.1814 12.9201 29.1814 14.125C29.1814 15.3288 28.206 16.3053 27.0011 16.3053C25.7963 16.3053 24.8209 15.3299 24.8209 14.125Z" fill="#5D5DF0"/>
</g>
<path d="M52.804 23H46.91V14.25H49.136V21.138H52.804V23ZM55.6707 20.228V20.256C55.7407 21.124 56.3427 21.628 57.3927 21.628C58.1067 21.628 58.8627 21.376 59.5207 20.998L59.7307 22.664C59.0727 23 58.1347 23.196 57.1967 23.196C54.9847 23.196 53.5567 21.964 53.5567 19.794C53.5567 17.666 55.0127 16.28 57.0847 16.28C58.9327 16.28 59.9407 17.386 59.9407 19.01C59.9407 19.36 59.8847 19.878 59.8007 20.158L55.6707 20.228ZM55.6847 19.15L57.9387 19.136C57.9387 19.108 57.9387 19.038 57.9387 19.01C57.9387 18.24 57.6167 17.764 56.9447 17.764C56.2027 17.764 55.7547 18.408 55.6847 19.15ZM74.6844 23H72.5284V19.164C72.5284 18.38 72.1924 18.114 71.6464 18.114C71.2124 18.114 70.8484 18.31 70.5964 18.534V18.912V23H68.4404V19.164C68.4404 18.38 68.0904 18.114 67.5444 18.114C67.1104 18.114 66.7604 18.282 66.4944 18.506V23H64.3384V16.602L66.4944 16.336C66.4944 16.336 66.4944 17.232 66.4944 17.246C67.0684 16.658 67.7124 16.28 68.5664 16.28C69.3784 16.28 70.0924 16.686 70.4004 17.442C71.0024 16.742 71.7724 16.28 72.6544 16.28C73.9144 16.28 74.6844 17.134 74.6844 18.534V23ZM82.8279 19.724C82.8279 21.908 81.2459 23.21 79.2999 23.21C77.3399 23.21 75.8419 21.978 75.8419 19.766C75.8419 17.554 77.4099 16.28 79.3839 16.28C81.3439 16.28 82.8279 17.54 82.8279 19.724ZM80.6859 19.738C80.6859 18.646 80.2099 17.918 79.3279 17.918C78.4459 17.918 77.9839 18.632 77.9839 19.752C77.9839 20.858 78.4599 21.558 79.3419 21.558C80.2239 21.558 80.6859 20.858 80.6859 19.738ZM90.4242 23H88.2682V19.15C88.2682 18.366 87.9182 18.114 87.3442 18.114C86.8682 18.114 86.4482 18.352 86.1682 18.604V23H84.0122V16.602L86.1682 16.336C86.1682 16.336 86.1682 17.302 86.1682 17.4C86.7422 16.742 87.5122 16.28 88.3522 16.28C89.6542 16.28 90.4242 17.134 90.4242 18.52V23ZM97.2062 21.068C97.2062 22.244 96.1702 23.21 94.2522 23.21C93.3562 23.21 92.1802 23 91.4942 22.636L91.9142 21.082C92.6702 21.474 93.5382 21.698 94.2942 21.698C94.8682 21.698 95.1762 21.502 95.1762 21.166C95.1762 20.802 94.8122 20.662 94.0702 20.494C92.5582 20.2 91.5922 19.64 91.5922 18.366C91.5922 17.148 92.6562 16.28 94.4622 16.28C95.3302 16.28 96.4642 16.532 97.1082 16.84L96.6742 18.38C95.9322 18.016 95.0502 17.792 94.4342 17.792C93.9162 17.792 93.6362 17.96 93.6362 18.282C93.6362 18.632 94.0422 18.772 94.7562 18.926C96.2962 19.262 97.2062 19.766 97.2062 21.068ZM102.568 22.972C102.064 23.126 101.644 23.21 100.986 23.21C99.3757 23.21 98.5077 22.552 98.5917 20.844L98.6897 18.366L97.7097 18.198L97.7517 16.826L98.7317 16.504L98.7597 15.02H100.846L100.832 16.574H102.456L102.414 18.268H100.678L100.608 20.606C100.58 21.208 100.93 21.46 101.462 21.46C101.728 21.46 102.022 21.39 102.316 21.292L102.568 22.972ZM105.801 19.206V23H103.645V16.602L105.801 16.336V17.288C106.179 16.63 106.683 16.28 107.369 16.28C107.719 16.28 108.097 16.364 108.447 16.546L108.013 18.45C107.761 18.324 107.481 18.254 107.201 18.254C106.669 18.254 106.193 18.52 105.801 19.206ZM110.891 20.228V20.256C110.961 21.124 111.563 21.628 112.613 21.628C113.327 21.628 114.083 21.376 114.741 20.998L114.951 22.664C114.293 23 113.355 23.196 112.417 23.196C110.205 23.196 108.777 21.964 108.777 19.794C108.777 17.666 110.233 16.28 112.305 16.28C114.153 16.28 115.161 17.386 115.161 19.01C115.161 19.36 115.105 19.878 115.021 20.158L110.891 20.228ZM110.905 19.15L113.159 19.136C113.159 19.108 113.159 19.038 113.159 19.01C113.159 18.24 112.837 17.764 112.165 17.764C111.423 17.764 110.975 18.408 110.905 19.15ZM123.829 16.518V13.746L125.985 13.48V23H123.829C123.829 23 123.829 22.398 123.829 22.328C123.423 22.748 122.821 23.196 122.009 23.196C120.399 23.196 119.223 21.88 119.223 19.822C119.223 17.666 120.735 16.294 122.485 16.294C122.961 16.294 123.423 16.378 123.829 16.518ZM123.829 18.17C123.591 18.002 123.241 17.89 122.835 17.89C121.925 17.89 121.379 18.632 121.379 19.71C121.379 20.816 121.939 21.474 122.737 21.474C123.213 21.474 123.549 21.306 123.829 21.026C123.829 21.054 123.829 18.17 123.829 18.17ZM127.501 16.49H129.657V20.34C129.657 21.124 129.993 21.39 130.553 21.39C131.015 21.39 131.393 21.194 131.659 20.956V16.49H133.815V22.902L131.659 23.168C131.659 23.168 131.659 22.216 131.659 22.202C131.155 22.748 130.399 23.21 129.545 23.21C128.271 23.21 127.501 22.356 127.501 20.97V16.49ZM140.692 17.162C141.098 16.742 141.686 16.28 142.512 16.28C144.122 16.28 145.298 17.596 145.298 19.668C145.298 21.824 143.8 23.196 142.036 23.196C141.602 23.196 141.098 23.112 140.692 22.986V25.898H138.536V16.602L140.692 16.336C140.692 16.336 140.692 17.134 140.692 17.162ZM140.692 18.45C140.692 18.436 140.692 21.32 140.692 21.32C140.944 21.488 141.28 21.586 141.686 21.586C142.61 21.586 143.142 20.858 143.142 19.78C143.142 18.66 142.666 18.002 141.784 18.002C141.308 18.002 140.986 18.184 140.692 18.45ZM153.156 19.724C153.156 21.908 151.574 23.21 149.628 23.21C147.668 23.21 146.17 21.978 146.17 19.766C146.17 17.554 147.738 16.28 149.712 16.28C151.672 16.28 153.156 17.54 153.156 19.724ZM151.014 19.738C151.014 18.646 150.538 17.918 149.656 17.918C148.774 17.918 148.312 18.632 148.312 19.752C148.312 20.858 148.788 21.558 149.67 21.558C150.552 21.558 151.014 20.858 151.014 19.738ZM160.752 23H158.596V19.15C158.596 18.366 158.246 18.114 157.672 18.114C157.196 18.114 156.776 18.352 156.496 18.604V23H154.34V16.602L156.496 16.336C156.496 16.336 156.496 17.302 156.496 17.4C157.07 16.742 157.84 16.28 158.68 16.28C159.982 16.28 160.752 17.134 160.752 18.52V23ZM166.456 22.972C165.952 23.126 165.532 23.21 164.874 23.21C163.264 23.21 162.396 22.552 162.48 20.844L162.578 18.366L161.598 18.198L161.64 16.826L162.62 16.504L162.648 15.02H164.734L164.72 16.574H166.344L166.302 18.268H164.566L164.496 20.606C164.468 21.208 164.818 21.46 165.35 21.46C165.616 21.46 165.91 21.39 166.204 21.292L166.456 22.972ZM174.989 16.518V13.746L177.145 13.48V23H174.989C174.989 23 174.989 22.398 174.989 22.328C174.583 22.748 173.981 23.196 173.169 23.196C171.559 23.196 170.383 21.88 170.383 19.822C170.383 17.666 171.895 16.294 173.645 16.294C174.121 16.294 174.583 16.378 174.989 16.518ZM174.989 18.17C174.751 18.002 174.401 17.89 173.995 17.89C173.085 17.89 172.539 18.632 172.539 19.71C172.539 20.816 173.099 21.474 173.897 21.474C174.373 21.474 174.709 21.306 174.989 21.026C174.989 21.054 174.989 18.17 174.989 18.17ZM178.662 16.49H180.818V20.34C180.818 21.124 181.154 21.39 181.714 21.39C182.176 21.39 182.554 21.194 182.82 20.956V16.49H184.976V22.902L182.82 23.168C182.82 23.168 182.82 22.216 182.82 22.202C182.316 22.748 181.56 23.21 180.706 23.21C179.432 23.21 178.662 22.356 178.662 20.97V16.49ZM192.062 20.144V23H189.836V14.25C189.836 14.25 193.434 14.25 193.35 14.25C195.674 14.25 196.892 15.328 196.892 17.022C196.892 18.198 196.276 19.094 195.1 19.542L197.34 23H194.834L193.084 20.06L192.062 20.144ZM192.02 18.492L193.14 18.464C194.092 18.394 194.61 18.002 194.61 17.162C194.61 16.392 194.078 16.014 192.958 16.014C192.916 16.014 192.02 16.014 192.02 16.014V18.492ZM204.748 23H202.592V19.15C202.592 18.366 202.242 18.114 201.696 18.114C201.192 18.114 200.772 18.352 200.492 18.604V23H198.336V13.746L200.492 13.48C200.492 13.48 200.492 17.274 200.492 17.386C201.066 16.728 201.836 16.28 202.69 16.28C203.978 16.28 204.748 17.134 204.748 18.52V23ZM212.888 19.724C212.888 21.908 211.306 23.21 209.36 23.21C207.4 23.21 205.902 21.978 205.902 19.766C205.902 17.554 207.47 16.28 209.444 16.28C211.404 16.28 212.888 17.54 212.888 19.724ZM210.746 19.738C210.746 18.646 210.27 17.918 209.388 17.918C208.506 17.918 208.044 18.632 208.044 19.752C208.044 20.858 208.52 21.558 209.402 21.558C210.284 21.558 210.746 20.858 210.746 19.738ZM212.104 15.622H210.634L209.472 14.124H209.444L208.31 15.622H206.812L208.478 13.004H210.438L212.104 15.622ZM220.485 23H218.329V19.15C218.329 18.366 217.979 18.114 217.405 18.114C216.929 18.114 216.509 18.352 216.229 18.604V23H214.073V16.602L216.229 16.336C216.229 16.336 216.229 17.302 216.229 17.4C216.803 16.742 217.573 16.28 218.413 16.28C219.715 16.28 220.485 17.134 220.485 18.52V23ZM223.753 20.228V20.256C223.823 21.124 224.425 21.628 225.475 21.628C226.189 21.628 226.945 21.376 227.603 20.998L227.813 22.664C227.155 23 226.217 23.196 225.279 23.196C223.067 23.196 221.639 21.964 221.639 19.794C221.639 17.666 223.095 16.28 225.167 16.28C227.015 16.28 228.023 17.386 228.023 19.01C228.023 19.36 227.967 19.878 227.883 20.158L223.753 20.228ZM223.767 19.15L226.021 19.136C226.021 19.108 226.021 19.038 226.021 19.01C226.021 18.24 225.699 17.764 225.027 17.764C224.285 17.764 223.837 18.408 223.767 19.15Z" fill="#5D5DF0"/>
<path d="M290.836 21.5V17.468L289.444 17.792L289.408 16.268L292.672 15.56V21.5H290.836ZM300.109 18.608C300.109 20.456 298.909 21.68 297.061 21.68C295.213 21.68 294.049 20.48 294.049 18.644C294.049 16.796 295.249 15.584 297.085 15.584C298.933 15.584 300.109 16.772 300.109 18.608ZM298.321 18.632C298.321 17.588 297.817 16.976 297.073 16.976C296.329 16.976 295.837 17.6 295.837 18.632C295.837 19.688 296.341 20.288 297.085 20.288C297.817 20.288 298.321 19.676 298.321 18.632ZM304.359 13.076L301.443 23.888H299.931L302.847 13.076H304.359ZM310.433 18.608C310.433 20.456 309.233 21.68 307.385 21.68C305.537 21.68 304.373 20.48 304.373 18.644C304.373 16.796 305.573 15.584 307.409 15.584C309.257 15.584 310.433 16.772 310.433 18.608ZM308.645 18.632C308.645 17.588 308.141 16.976 307.397 16.976C306.653 16.976 306.161 17.6 306.161 18.632C306.161 19.688 306.665 20.288 307.409 20.288C308.141 20.288 308.645 19.676 308.645 18.632ZM313.195 18.752C313.339 18.74 313.495 18.728 313.783 18.728C315.523 18.728 316.459 19.7 316.459 20.996C316.459 22.58 315.283 23.744 313.375 23.744C312.655 23.744 311.743 23.588 311.119 23.3L311.287 21.74C311.839 22.004 312.679 22.256 313.315 22.256C314.167 22.256 314.683 21.848 314.683 21.152C314.683 20.528 314.239 20.072 313.135 20.072C312.571 20.072 312.031 20.168 311.635 20.3L311.383 20.012L311.899 15.74H316.291L316.327 17.252H313.399L313.195 18.752Z" fill="#242424"/>
<path d="M24.524 51H19.106V42.25H20.296V49.88H24.524V51ZM29.202 49.544V47.808C27.298 48.06 26.598 48.452 26.598 49.236C26.598 49.81 27.032 50.23 27.732 50.23C28.32 50.23 28.838 49.936 29.202 49.544ZM29.244 50.314H29.188C28.698 50.888 28.11 51.21 27.424 51.21C26.22 51.21 25.38 50.412 25.38 49.376C25.38 48.228 26.206 47.22 29.202 47.08V46.898C29.202 45.862 28.796 45.442 27.76 45.442C27.102 45.442 26.29 45.75 25.688 46.156L25.464 45.12C26.024 44.728 26.962 44.378 27.872 44.378C29.608 44.378 30.378 45.12 30.35 46.87V49.558C30.35 50.09 30.42 50.188 30.98 50.188L30.91 51.154C29.874 51.238 29.412 50.874 29.244 50.314ZM36.5619 51H35.4139V41.564L36.5619 41.382V51ZM39.2868 47.934V47.99C39.3288 49.25 40.1688 50.146 41.4008 50.146C42.0728 50.146 42.8008 49.964 43.3188 49.614L43.5288 50.678C42.9548 51.028 42.1848 51.21 41.3728 51.21C39.4408 51.21 38.1248 49.824 38.1248 47.864C38.1248 45.792 39.4968 44.378 41.2888 44.378C42.8428 44.378 43.7388 45.358 43.7388 46.884C43.7388 47.234 43.6828 47.626 43.5988 47.906C43.5848 47.906 39.2868 47.934 39.2868 47.934ZM39.3428 47.094L42.6328 47.066V46.968C42.6328 46.016 42.1848 45.386 41.1768 45.386C40.0848 45.386 39.4408 46.254 39.3428 47.094ZM43.3608 41.186L41.3168 43.72H40.4768L41.9608 41.186H43.3608ZM46.0553 46.814C46.0553 47.668 46.6293 48.242 47.5533 48.242C48.3933 48.242 48.9253 47.64 48.9253 46.744C48.9253 45.904 48.4353 45.302 47.4553 45.302C46.6153 45.302 46.0553 45.918 46.0553 46.814ZM46.6153 51.308C45.9713 51.49 45.5093 51.868 45.5093 52.344C45.5093 53.03 46.3213 53.534 47.5393 53.534C48.7433 53.534 49.6953 53.016 49.6953 52.232C49.6953 51.532 49.0653 51.364 47.7773 51.364C47.3713 51.364 46.8953 51.336 46.6153 51.308ZM45.7473 51.098C45.2013 50.86 44.9073 50.468 44.9073 50.02C44.9073 49.488 45.3273 48.998 45.9713 48.774C45.2993 48.382 44.9073 47.682 44.9073 46.8C44.9073 45.54 45.8453 44.378 47.5113 44.378C48.1973 44.378 48.7573 44.56 49.1633 44.742L50.8153 44.588L50.8573 45.722L49.6253 45.498C49.8773 45.736 50.0593 46.338 50.0593 46.814C50.0593 48.102 48.9953 49.166 47.4973 49.166C47.1753 49.166 46.9793 49.124 46.6013 49.012C46.3353 49.11 45.9713 49.362 45.9713 49.684C45.9713 50.062 46.2233 50.286 47.4273 50.286C47.4273 50.286 48.1553 50.286 48.0153 50.286C49.9333 50.286 50.8153 50.874 50.8153 52.008C50.8153 53.422 49.2893 54.472 47.3573 54.472C45.6633 54.472 44.3753 53.744 44.3753 52.596C44.3753 51.868 44.8653 51.266 45.7473 51.098ZM52.6715 47.934V47.99C52.7135 49.25 53.5535 50.146 54.7855 50.146C55.4575 50.146 56.1855 49.964 56.7035 49.614L56.9135 50.678C56.3395 51.028 55.5695 51.21 54.7575 51.21C52.8255 51.21 51.5095 49.824 51.5095 47.864C51.5095 45.792 52.8815 44.378 54.6735 44.378C56.2275 44.378 57.1235 45.358 57.1235 46.884C57.1235 47.234 57.0675 47.626 56.9835 47.906C56.9695 47.906 52.6715 47.934 52.6715 47.934ZM52.7275 47.094L56.0175 47.066V46.968C56.0175 46.016 55.5695 45.386 54.5615 45.386C53.4695 45.386 52.8255 46.254 52.7275 47.094ZM63.9621 51H62.8141V46.968C62.8141 45.862 62.3941 45.484 61.4841 45.484C60.8121 45.484 60.1681 45.834 59.8041 46.184V51H58.6561V44.56L59.8041 44.378V45.344C60.3921 44.756 61.1481 44.378 61.8901 44.378C63.1921 44.378 63.9621 45.204 63.9621 46.59V51ZM70.1165 44.588V41.564L71.2645 41.382V51H70.1165C70.1165 51 70.1165 50.482 70.1165 50.412C69.6545 50.846 69.0805 51.21 68.3245 51.21C66.5185 51.21 65.4685 49.754 65.4685 47.822C65.4685 45.876 66.8125 44.378 68.7305 44.378C69.1925 44.378 69.7105 44.462 70.1165 44.588ZM70.1165 45.876C69.7385 45.568 69.2485 45.414 68.6885 45.414C67.3865 45.414 66.6585 46.478 66.6585 47.794C66.6585 49.208 67.3725 50.146 68.5625 50.146C69.1645 50.146 69.6825 49.908 70.1165 49.53C70.1165 49.6 70.1165 45.876 70.1165 45.876ZM73.9997 47.934V47.99C74.0417 49.25 74.8817 50.146 76.1137 50.146C76.7857 50.146 77.5137 49.964 78.0317 49.614L78.2417 50.678C77.6677 51.028 76.8977 51.21 76.0857 51.21C74.1537 51.21 72.8377 49.824 72.8377 47.864C72.8377 45.792 74.2097 44.378 76.0017 44.378C77.5557 44.378 78.4517 45.358 78.4517 46.884C78.4517 47.234 78.3957 47.626 78.3117 47.906C78.2977 47.906 73.9997 47.934 73.9997 47.934ZM74.0557 47.094L77.3457 47.066V46.968C77.3457 46.016 76.8977 45.386 75.8897 45.386C74.7977 45.386 74.1537 46.254 74.0557 47.094ZM84.3178 46.814V51H83.1698V44.56L84.3178 44.378V45.512C84.7658 44.798 85.2978 44.378 86.1098 44.378C86.5438 44.378 86.9778 44.49 87.3138 44.7L87.0198 45.778C86.6698 45.568 86.3198 45.484 85.9978 45.484C85.3818 45.484 84.7938 45.932 84.3178 46.814ZM91.6551 49.544V47.808C89.7511 48.06 89.0511 48.452 89.0511 49.236C89.0511 49.81 89.4851 50.23 90.1851 50.23C90.7731 50.23 91.2911 49.936 91.6551 49.544ZM91.6971 50.314H91.6411C91.1511 50.888 90.5631 51.21 89.8771 51.21C88.6731 51.21 87.8331 50.412 87.8331 49.376C87.8331 48.228 88.6591 47.22 91.6551 47.08V46.898C91.6551 45.862 91.2491 45.442 90.2131 45.442C89.5551 45.442 88.7431 45.75 88.1411 46.156L87.9171 45.12C88.4771 44.728 89.4151 44.378 90.3251 44.378C92.0611 44.378 92.8311 45.12 92.8031 46.87V49.558C92.8031 50.09 92.8731 50.188 93.4331 50.188L93.3631 51.154C92.3271 51.238 91.8651 50.874 91.6971 50.314ZM99.5255 50.678C98.9515 51.028 98.2235 51.21 97.4115 51.21C95.3815 51.21 94.2615 49.824 94.2615 47.794C94.2615 45.75 95.6195 44.378 97.4955 44.378C98.3215 44.378 98.9795 44.56 99.5675 44.924L99.2735 45.974C98.7415 45.61 98.1395 45.442 97.4955 45.442C96.1795 45.442 95.4515 46.338 95.4515 47.78C95.4515 49.264 96.2635 50.146 97.4675 50.146C98.1395 50.146 98.7975 49.964 99.3155 49.614L99.5255 50.678ZM106.822 47.794C106.822 49.852 105.478 51.21 103.672 51.21C101.852 51.21 100.578 49.866 100.578 47.794C100.578 45.736 101.894 44.364 103.742 44.364C105.576 44.364 106.822 45.722 106.822 47.794ZM105.688 47.808C105.688 46.436 104.946 45.4 103.686 45.4C102.412 45.4 101.712 46.394 101.712 47.78C101.712 49.152 102.454 50.174 103.714 50.174C104.988 50.174 105.688 49.194 105.688 47.808ZM113.7 51H112.552V46.968C112.552 45.862 112.132 45.484 111.222 45.484C110.55 45.484 109.906 45.834 109.542 46.184V51H108.394V44.56L109.542 44.378V45.344C110.13 44.756 110.886 44.378 111.628 44.378C112.93 44.378 113.7 45.204 113.7 46.59V51ZM119.001 50.93C118.525 51.112 118.035 51.21 117.559 51.21C116.313 51.21 115.655 50.608 115.697 49.208L115.795 45.624L114.731 45.554L114.773 44.826L115.837 44.504L115.865 43.118H116.971L116.929 44.588H118.931L118.889 45.624H116.887L116.789 49.25C116.775 49.852 117.055 50.16 117.629 50.16C118.021 50.16 118.413 50.062 118.791 49.922C118.805 49.922 119.001 50.93 119.001 50.93ZM121.045 47.934V47.99C121.087 49.25 121.927 50.146 123.159 50.146C123.831 50.146 124.559 49.964 125.077 49.614L125.287 50.678C124.713 51.028 123.943 51.21 123.131 51.21C121.199 51.21 119.883 49.824 119.883 47.864C119.883 45.792 121.255 44.378 123.047 44.378C124.601 44.378 125.497 45.358 125.497 46.884C125.497 47.234 125.441 47.626 125.357 47.906C125.343 47.906 121.045 47.934 121.045 47.934ZM121.101 47.094L124.391 47.066V46.968C124.391 46.016 123.943 45.386 122.935 45.386C121.843 45.386 121.199 46.254 121.101 47.094ZM135.591 54.262H134.443C134.443 54.262 134.443 50.482 134.443 50.412C133.981 50.846 133.407 51.21 132.651 51.21C130.845 51.21 129.795 49.754 129.795 47.822C129.795 45.876 131.139 44.378 133.057 44.378C133.659 44.378 134.289 44.504 134.695 44.616L135.591 44.378V54.262ZM134.443 45.876C134.065 45.568 133.575 45.386 133.015 45.386C131.713 45.386 130.985 46.478 130.985 47.794C130.985 49.208 131.699 50.174 132.889 50.174C133.491 50.174 134.009 49.908 134.443 49.53C134.443 49.6 134.443 45.876 134.443 45.876ZM137.528 44.588H138.676V48.62C138.676 49.726 139.096 50.104 139.936 50.104C140.678 50.104 141.322 49.754 141.686 49.404V44.588H142.834V51.028L141.686 51.21C141.686 51.21 141.686 50.342 141.686 50.272C141.098 50.86 140.342 51.21 139.53 51.21C138.298 51.21 137.528 50.384 137.528 48.998V44.588ZM144.396 42.488C144.452 42.04 144.76 41.662 145.348 41.662C145.922 41.662 146.538 42.194 146.538 42.936C146.538 44.098 145.502 44.98 144.466 45.666L143.976 45.19C144.942 44.49 145.404 43.902 145.404 43.412C145.404 43.062 145.152 42.838 144.396 42.488ZM147.276 44.588H148.424V48.62C148.424 49.726 148.844 50.104 149.684 50.104C150.426 50.104 151.07 49.754 151.434 49.404V44.588H152.582V51.028L151.434 51.21C151.434 51.21 151.434 50.342 151.434 50.272C150.846 50.86 150.09 51.21 149.278 51.21C148.046 51.21 147.276 50.384 147.276 48.998V44.588ZM159.87 51H158.722V46.968C158.722 45.862 158.302 45.484 157.392 45.484C156.72 45.484 156.076 45.834 155.712 46.184V51H154.564V44.56L155.712 44.378V45.344C156.3 44.756 157.056 44.378 157.798 44.378C159.1 44.378 159.87 45.204 159.87 46.59V51ZM174.138 51H172.99V46.996C172.99 45.876 172.584 45.47 171.758 45.47C171.044 45.47 170.498 45.848 170.134 46.198V46.59V51H168.986V46.996C168.986 45.876 168.58 45.47 167.754 45.47C167.04 45.47 166.494 45.778 166.13 46.128V51H164.982V44.56L166.13 44.378C166.13 44.378 166.13 45.19 166.13 45.26C166.746 44.672 167.418 44.378 168.188 44.378C168.93 44.378 169.546 44.728 169.868 45.442C170.554 44.756 171.31 44.378 172.192 44.378C173.368 44.378 174.138 45.204 174.138 46.618V51ZM181.894 47.794C181.894 49.852 180.55 51.21 178.744 51.21C176.924 51.21 175.65 49.866 175.65 47.794C175.65 45.736 176.966 44.364 178.814 44.364C180.648 44.364 181.894 45.722 181.894 47.794ZM180.76 47.808C180.76 46.436 180.018 45.4 178.758 45.4C177.484 45.4 176.784 46.394 176.784 47.78C176.784 49.152 177.526 50.174 178.786 50.174C180.06 50.174 180.76 49.194 180.76 47.808ZM188.773 51H187.625V46.968C187.625 45.862 187.205 45.484 186.295 45.484C185.623 45.484 184.979 45.834 184.615 46.184V51H183.467V44.56L184.615 44.378V45.344C185.203 44.756 185.959 44.378 186.701 44.378C188.003 44.378 188.773 45.204 188.773 46.59V51ZM194.801 49.18C194.801 50.398 193.779 51.224 192.379 51.224C191.595 51.224 190.727 50.986 190.139 50.622L190.433 49.572C190.965 49.936 191.749 50.174 192.407 50.174C193.135 50.174 193.681 49.838 193.681 49.264C193.681 48.62 192.925 48.41 192.169 48.2C191.259 47.948 190.265 47.5 190.265 46.324C190.265 45.134 191.273 44.378 192.561 44.378C193.303 44.378 194.045 44.56 194.633 44.854L194.339 45.904C193.807 45.61 193.037 45.428 192.505 45.428C191.819 45.428 191.371 45.708 191.371 46.226C191.371 46.842 192.057 47.052 192.855 47.262C193.793 47.514 194.801 47.962 194.801 49.18ZM199.692 50.93C199.216 51.112 198.726 51.21 198.25 51.21C197.004 51.21 196.346 50.608 196.388 49.208L196.486 45.624L195.422 45.554L195.464 44.826L196.528 44.504L196.556 43.118H197.662L197.62 44.588H199.622L199.58 45.624H197.578L197.48 49.25C197.466 49.852 197.746 50.16 198.32 50.16C198.712 50.16 199.104 50.062 199.482 49.922C199.496 49.922 199.692 50.93 199.692 50.93ZM202.21 46.814V51H201.062V44.56L202.21 44.378V45.512C202.658 44.798 203.19 44.378 204.002 44.378C204.436 44.378 204.87 44.49 205.206 44.7L204.912 45.778C204.562 45.568 204.212 45.484 203.89 45.484C203.274 45.484 202.686 45.932 202.21 46.814ZM207 47.934V47.99C207.042 49.25 207.882 50.146 209.114 50.146C209.786 50.146 210.514 49.964 211.032 49.614L211.242 50.678C210.668 51.028 209.898 51.21 209.086 51.21C207.154 51.21 205.838 49.824 205.838 47.864C205.838 45.792 207.21 44.378 209.002 44.378C210.556 44.378 211.452 45.358 211.452 46.884C211.452 47.234 211.396 47.626 211.312 47.906C211.298 47.906 207 47.934 207 47.934ZM207.056 47.094L210.346 47.066V46.968C210.346 46.016 209.898 45.386 208.89 45.386C207.798 45.386 207.154 46.254 207.056 47.094ZM220.398 44.588V41.564L221.546 41.382V51H220.398C220.398 51 220.398 50.482 220.398 50.412C219.936 50.846 219.362 51.21 218.606 51.21C216.8 51.21 215.75 49.754 215.75 47.822C215.75 45.876 217.094 44.378 219.012 44.378C219.474 44.378 219.992 44.462 220.398 44.588ZM220.398 45.876C220.02 45.568 219.53 45.414 218.97 45.414C217.668 45.414 216.94 46.478 216.94 47.794C216.94 49.208 217.654 50.146 218.844 50.146C219.446 50.146 219.964 49.908 220.398 49.53C220.398 49.6 220.398 45.876 220.398 45.876ZM224.281 47.934V47.99C224.323 49.25 225.163 50.146 226.395 50.146C227.067 50.146 227.795 49.964 228.313 49.614L228.523 50.678C227.949 51.028 227.179 51.21 226.367 51.21C224.435 51.21 223.119 49.824 223.119 47.864C223.119 45.792 224.491 44.378 226.283 44.378C227.837 44.378 228.733 45.358 228.733 46.884C228.733 47.234 228.677 47.626 228.593 47.906C228.579 47.906 224.281 47.934 224.281 47.934ZM224.337 47.094L227.627 47.066V46.968C227.627 46.016 227.179 45.386 226.171 45.386C225.079 45.386 224.435 46.254 224.337 47.094ZM234.367 49.18C234.367 50.398 233.345 51.224 231.945 51.224C231.161 51.224 230.293 50.986 229.705 50.622L229.999 49.572C230.531 49.936 231.315 50.174 231.973 50.174C232.701 50.174 233.247 49.838 233.247 49.264C233.247 48.62 232.491 48.41 231.735 48.2C230.825 47.948 229.831 47.5 229.831 46.324C229.831 45.134 230.839 44.378 232.127 44.378C232.869 44.378 233.611 44.56 234.199 44.854L233.905 45.904C233.373 45.61 232.603 45.428 232.071 45.428C231.385 45.428 230.937 45.708 230.937 46.226C230.937 46.842 231.623 47.052 232.421 47.262C233.359 47.514 234.367 47.962 234.367 49.18ZM248.226 51H247.078V46.996C247.078 45.876 246.672 45.47 245.846 45.47C245.132 45.47 244.586 45.848 244.222 46.198V46.59V51H243.074V46.996C243.074 45.876 242.668 45.47 241.842 45.47C241.128 45.47 240.582 45.778 240.218 46.128V51H239.07V44.56L240.218 44.378C240.218 44.378 240.218 45.19 240.218 45.26C240.834 44.672 241.506 44.378 242.276 44.378C243.018 44.378 243.634 44.728 243.956 45.442C244.642 44.756 245.398 44.378 246.28 44.378C247.456 44.378 248.226 45.204 248.226 46.618V51ZM250.9 47.934V47.99C250.942 49.25 251.782 50.146 253.014 50.146C253.686 50.146 254.414 49.964 254.932 49.614L255.142 50.678C254.568 51.028 253.798 51.21 252.986 51.21C251.054 51.21 249.738 49.824 249.738 47.864C249.738 45.792 251.11 44.378 252.902 44.378C254.456 44.378 255.352 45.358 255.352 46.884C255.352 47.234 255.296 47.626 255.212 47.906C255.198 47.906 250.9 47.934 250.9 47.934ZM250.956 47.094L254.246 47.066V46.968C254.246 46.016 253.798 45.386 252.79 45.386C251.698 45.386 251.054 46.254 250.956 47.094ZM258.033 46.814V51H256.885V44.56L258.033 44.378V45.512C258.481 44.798 259.013 44.378 259.825 44.378C260.259 44.378 260.693 44.49 261.029 44.7L260.735 45.778C260.385 45.568 260.035 45.484 259.713 45.484C259.097 45.484 258.509 45.932 258.033 46.814ZM266.319 49.18C266.319 50.398 265.297 51.224 263.897 51.224C263.113 51.224 262.245 50.986 261.657 50.622L261.951 49.572C262.483 49.936 263.267 50.174 263.925 50.174C264.653 50.174 265.199 49.838 265.199 49.264C265.199 48.62 264.443 48.41 263.687 48.2C262.777 47.948 261.783 47.5 261.783 46.324C261.783 45.134 262.791 44.378 264.079 44.378C264.821 44.378 265.563 44.56 266.151 44.854L265.857 45.904C265.325 45.61 264.555 45.428 264.023 45.428C263.337 45.428 262.889 45.708 262.889 46.226C262.889 46.842 263.575 47.052 264.373 47.262C265.311 47.514 266.319 47.962 266.319 49.18ZM23.222 60.588V57.564L24.37 57.382V67H23.222C23.222 67 23.222 66.482 23.222 66.412C22.76 66.846 22.186 67.21 21.43 67.21C19.624 67.21 18.574 65.754 18.574 63.822C18.574 61.876 19.918 60.378 21.836 60.378C22.298 60.378 22.816 60.462 23.222 60.588ZM23.222 61.876C22.844 61.568 22.354 61.414 21.794 61.414C20.492 61.414 19.764 62.478 19.764 63.794C19.764 65.208 20.478 66.146 21.668 66.146C22.27 66.146 22.788 65.908 23.222 65.53C23.222 65.6 23.222 61.876 23.222 61.876ZM32.1871 63.794C32.1871 65.852 30.8431 67.21 29.0371 67.21C27.2171 67.21 25.9431 65.866 25.9431 63.794C25.9431 61.736 27.2591 60.364 29.1071 60.364C30.9411 60.364 32.1871 61.722 32.1871 63.794ZM31.0531 63.808C31.0531 62.436 30.3111 61.4 29.0511 61.4C27.7771 61.4 27.0771 62.394 27.0771 63.78C27.0771 65.152 27.8191 66.174 29.0791 66.174C30.3531 66.174 31.0531 65.194 31.0531 63.808ZM34.9076 62.814V67H33.7596V60.56L34.9076 60.378V61.512C35.3556 60.798 35.8876 60.378 36.6996 60.378C37.1336 60.378 37.5676 60.49 37.9036 60.7L37.6096 61.778C37.2596 61.568 36.9096 61.484 36.5876 61.484C35.9716 61.484 35.3836 61.932 34.9076 62.814ZM48.2477 67H47.0997V62.996C47.0997 61.876 46.6937 61.47 45.8677 61.47C45.1537 61.47 44.6077 61.848 44.2437 62.198V62.59V67H43.0957V62.996C43.0957 61.876 42.6897 61.47 41.8637 61.47C41.1497 61.47 40.6037 61.778 40.2397 62.128V67H39.0917V60.56L40.2397 60.378C40.2397 60.378 40.2397 61.19 40.2397 61.26C40.8557 60.672 41.5277 60.378 42.2977 60.378C43.0397 60.378 43.6557 60.728 43.9777 61.442C44.6637 60.756 45.4197 60.378 46.3017 60.378C47.4777 60.378 48.2477 61.204 48.2477 62.618V67ZM51.5095 58.348C51.5095 58.782 51.2715 59.174 50.7535 59.174C50.2355 59.174 49.9975 58.782 49.9975 58.348C49.9975 57.914 50.2355 57.522 50.7535 57.522C51.2715 57.522 51.5095 57.914 51.5095 58.348ZM51.3275 67H50.1795V60.56L51.3275 60.378V67ZM54.4584 62.814V67H53.3104V60.56L54.4584 60.378V61.512C54.9064 60.798 55.4384 60.378 56.2504 60.378C56.6844 60.378 57.1184 60.49 57.4544 60.7L57.1604 61.778C56.8104 61.568 56.4604 61.484 56.1384 61.484C55.5224 61.484 54.9344 61.932 54.4584 62.814ZM61.7957 65.544V63.808C59.8917 64.06 59.1917 64.452 59.1917 65.236C59.1917 65.81 59.6257 66.23 60.3257 66.23C60.9137 66.23 61.4317 65.936 61.7957 65.544ZM61.8377 66.314H61.7817C61.2917 66.888 60.7037 67.21 60.0177 67.21C58.8137 67.21 57.9737 66.412 57.9737 65.376C57.9737 64.228 58.7997 63.22 61.7957 63.08V62.898C61.7957 61.862 61.3897 61.442 60.3537 61.442C59.6957 61.442 58.8837 61.75 58.2817 62.156L58.0577 61.12C58.6177 60.728 59.5557 60.378 60.4657 60.378C62.2017 60.378 62.9717 61.12 62.9437 62.87V65.558C62.9437 66.09 63.0137 66.188 63.5737 66.188L63.5037 67.154C62.4677 67.238 62.0057 66.874 61.8377 66.314ZM66.1521 58.348C66.1521 58.782 65.9141 59.174 65.3961 59.174C64.8781 59.174 64.6401 58.782 64.6401 58.348C64.6401 57.914 64.8781 57.522 65.3961 57.522C65.9141 57.522 66.1521 57.914 66.1521 58.348ZM65.9701 67H64.8221V60.56L65.9701 60.378V67ZM71.327 66.93C70.851 67.112 70.361 67.21 69.885 67.21C68.639 67.21 67.981 66.608 68.023 65.208L68.121 61.624L67.057 61.554L67.099 60.826L68.163 60.504L68.191 59.118H69.297L69.255 60.588H71.257L71.215 61.624H69.213L69.115 65.25C69.101 65.852 69.381 66.16 69.955 66.16C70.347 66.16 70.739 66.062 71.117 65.922C71.131 65.922 71.327 66.93 71.327 66.93ZM79.9847 65.18C79.9847 66.398 78.9627 67.224 77.5627 67.224C76.7787 67.224 75.9107 66.986 75.3227 66.622L75.6167 65.572C76.1487 65.936 76.9327 66.174 77.5907 66.174C78.3187 66.174 78.8647 65.838 78.8647 65.264C78.8647 64.62 78.1087 64.41 77.3527 64.2C76.4427 63.948 75.4487 63.5 75.4487 62.324C75.4487 61.134 76.4567 60.378 77.7447 60.378C78.4867 60.378 79.2287 60.56 79.8167 60.854L79.5227 61.904C78.9907 61.61 78.2207 61.428 77.6887 61.428C77.0027 61.428 76.5547 61.708 76.5547 62.226C76.5547 62.842 77.2407 63.052 78.0387 63.262C78.9767 63.514 79.9847 63.962 79.9847 65.18ZM87.3258 63.794C87.3258 65.852 85.9818 67.21 84.1758 67.21C82.3558 67.21 81.0818 65.866 81.0818 63.794C81.0818 61.736 82.3978 60.364 84.2458 60.364C86.0798 60.364 87.3258 61.722 87.3258 63.794ZM86.1918 63.808C86.1918 62.436 85.4498 61.4 84.1898 61.4C82.9158 61.4 82.2158 62.394 82.2158 63.78C82.2158 65.152 82.9578 66.174 84.2178 66.174C85.4918 66.174 86.1918 65.194 86.1918 63.808ZM88.8423 60.588H89.9903V64.62C89.9903 65.726 90.4103 66.104 91.2503 66.104C91.9923 66.104 92.6363 65.754 93.0003 65.404V60.588H94.1483V67.028L93.0003 67.21C93.0003 67.21 93.0003 66.342 93.0003 66.272C92.4123 66.86 91.6563 67.21 90.8443 67.21C89.6123 67.21 88.8423 66.384 88.8423 64.998V60.588ZM100.233 65.18C100.233 66.398 99.2107 67.224 97.8107 67.224C97.0267 67.224 96.1587 66.986 95.5707 66.622L95.8647 65.572C96.3967 65.936 97.1807 66.174 97.8387 66.174C98.5667 66.174 99.1127 65.838 99.1127 65.264C99.1127 64.62 98.3567 64.41 97.6007 64.2C96.6907 63.948 95.6967 63.5 95.6967 62.324C95.6967 61.134 96.7047 60.378 97.9927 60.378C98.7347 60.378 99.4767 60.56 100.065 60.854L99.7707 61.904C99.2387 61.61 98.4687 61.428 97.9367 61.428C97.2507 61.428 96.8027 61.708 96.8027 62.226C96.8027 62.842 97.4887 63.052 98.2867 63.262C99.2247 63.514 100.233 63.962 100.233 65.18ZM106.083 67H104.935V57.564L106.083 57.382V67ZM108.808 63.934V63.99C108.85 65.25 109.69 66.146 110.922 66.146C111.594 66.146 112.322 65.964 112.84 65.614L113.05 66.678C112.476 67.028 111.706 67.21 110.894 67.21C108.962 67.21 107.646 65.824 107.646 63.864C107.646 61.792 109.018 60.378 110.81 60.378C112.364 60.378 113.26 61.358 113.26 62.884C113.26 63.234 113.204 63.626 113.12 63.906C113.106 63.906 108.808 63.934 108.808 63.934ZM108.864 63.094L112.154 63.066V62.968C112.154 62.016 111.706 61.386 110.698 61.386C109.606 61.386 108.962 62.254 108.864 63.094ZM119.126 61.176C119.588 60.742 120.162 60.378 120.918 60.378C122.724 60.378 123.774 61.834 123.774 63.766C123.774 65.712 122.43 67.21 120.512 67.21C120.134 67.21 119.532 67.154 119.126 67.042V70.262H117.978V60.56L119.126 60.378C119.126 60.378 119.126 61.106 119.126 61.176ZM119.126 62.058C119.126 61.988 119.126 65.712 119.126 65.712C119.504 66.02 119.994 66.174 120.554 66.174C121.856 66.174 122.584 65.11 122.584 63.794C122.584 62.38 121.87 61.442 120.68 61.442C120.078 61.442 119.56 61.68 119.126 62.058ZM131.172 63.794C131.172 65.852 129.828 67.21 128.022 67.21C126.202 67.21 124.928 65.866 124.928 63.794C124.928 61.736 126.244 60.364 128.092 60.364C129.926 60.364 131.172 61.722 131.172 63.794ZM130.038 63.808C130.038 62.436 129.296 61.4 128.036 61.4C126.762 61.4 126.062 62.394 126.062 63.78C126.062 65.152 126.804 66.174 128.064 66.174C129.338 66.174 130.038 65.194 130.038 63.808ZM138.05 67H136.902V62.968C136.902 61.862 136.482 61.484 135.572 61.484C134.9 61.484 134.256 61.834 133.892 62.184V67H132.744V60.56L133.892 60.378V61.344C134.48 60.756 135.236 60.378 135.978 60.378C137.28 60.378 138.05 61.204 138.05 62.59V67ZM143.35 66.93C142.874 67.112 142.384 67.21 141.908 67.21C140.662 67.21 140.004 66.608 140.046 65.208L140.144 61.624L139.08 61.554L139.122 60.826L140.186 60.504L140.214 59.118H141.32L141.278 60.588H143.28L143.238 61.624H141.236L141.138 65.25C141.124 65.852 141.404 66.16 141.978 66.16C142.37 66.16 142.762 66.062 143.14 65.922C143.154 65.922 143.35 66.93 143.35 66.93ZM152.134 60.588V57.564L153.282 57.382V67H152.134C152.134 67 152.134 66.482 152.134 66.412C151.672 66.846 151.098 67.21 150.342 67.21C148.536 67.21 147.486 65.754 147.486 63.822C147.486 61.876 148.83 60.378 150.748 60.378C151.21 60.378 151.728 60.462 152.134 60.588ZM152.134 61.876C151.756 61.568 151.266 61.414 150.706 61.414C149.404 61.414 148.676 62.478 148.676 63.794C148.676 65.208 149.39 66.146 150.58 66.146C151.182 66.146 151.7 65.908 152.134 65.53C152.134 65.6 152.134 61.876 152.134 61.876ZM156.017 63.934V63.99C156.059 65.25 156.899 66.146 158.131 66.146C158.803 66.146 159.531 65.964 160.049 65.614L160.259 66.678C159.685 67.028 158.915 67.21 158.103 67.21C156.171 67.21 154.855 65.824 154.855 63.864C154.855 61.792 156.227 60.378 158.019 60.378C159.573 60.378 160.469 61.358 160.469 62.884C160.469 63.234 160.413 63.626 160.329 63.906C160.315 63.906 156.017 63.934 156.017 63.934ZM156.073 63.094L159.363 63.066V62.968C159.363 62.016 158.915 61.386 157.907 61.386C156.815 61.386 156.171 62.254 156.073 63.094ZM166.335 67H165.187V57.564L166.335 57.382V67ZM171.608 65.544V63.808C169.704 64.06 169.004 64.452 169.004 65.236C169.004 65.81 169.438 66.23 170.138 66.23C170.726 66.23 171.244 65.936 171.608 65.544ZM171.65 66.314H171.594C171.104 66.888 170.516 67.21 169.83 67.21C168.626 67.21 167.786 66.412 167.786 65.376C167.786 64.228 168.612 63.22 171.608 63.08V62.898C171.608 61.862 171.202 61.442 170.166 61.442C169.508 61.442 168.696 61.75 168.094 62.156L167.87 61.12C168.43 60.728 169.368 60.378 170.278 60.378C172.014 60.378 172.784 61.12 172.756 62.87V65.558C172.756 66.09 172.826 66.188 173.386 66.188L173.316 67.154C172.28 67.238 171.818 66.874 171.65 66.314ZM184.932 66.37C184.022 66.93 182.79 67.21 181.852 67.21C179.29 67.21 177.47 65.432 177.47 62.646C177.47 59.86 179.304 58.04 181.852 58.04C182.874 58.04 184.036 58.334 184.764 58.796L184.372 59.888C183.672 59.44 182.748 59.104 181.852 59.104C179.948 59.104 178.674 60.42 178.674 62.59C178.674 64.76 179.962 66.146 181.88 66.146C182.608 66.146 183.266 65.95 183.784 65.698V63.626H181.334V62.52H184.932V66.37ZM186.719 60.588H187.867V64.62C187.867 65.726 188.287 66.104 189.127 66.104C189.869 66.104 190.513 65.754 190.877 65.404V60.588H192.025V67.028L190.877 67.21C190.877 67.21 190.877 66.342 190.877 66.272C190.289 66.86 189.533 67.21 188.721 67.21C187.489 67.21 186.719 66.384 186.719 64.998V60.588ZM195.338 58.348C195.338 58.782 195.1 59.174 194.582 59.174C194.064 59.174 193.826 58.782 193.826 58.348C193.826 57.914 194.064 57.522 194.582 57.522C195.1 57.522 195.338 57.914 195.338 58.348ZM195.156 67H194.008V60.56L195.156 60.378V67ZM198.287 67H197.139V57.564L198.287 57.382V67ZM201.417 67H200.269V57.564L201.417 57.382V67ZM209.224 63.794C209.224 65.852 207.88 67.21 206.074 67.21C204.254 67.21 202.98 65.866 202.98 63.794C202.98 61.736 204.296 60.364 206.144 60.364C207.978 60.364 209.224 61.722 209.224 63.794ZM208.09 63.808C208.09 62.436 207.348 61.4 206.088 61.4C204.814 61.4 204.114 62.394 204.114 63.78C204.114 65.152 204.856 66.174 206.116 66.174C207.39 66.174 208.09 65.194 208.09 63.808ZM214.171 66.93C213.695 67.112 213.205 67.21 212.729 67.21C211.483 67.21 210.825 66.608 210.867 65.208L210.965 61.624L209.901 61.554L209.943 60.826L211.007 60.504L211.035 59.118H212.141L212.099 60.588H214.101L214.059 61.624H212.057L211.959 65.25C211.945 65.852 212.225 66.16 212.799 66.16C213.191 66.16 213.583 66.062 213.961 65.922C213.975 65.922 214.171 66.93 214.171 66.93ZM216.871 58.348C216.871 58.782 216.633 59.174 216.115 59.174C215.597 59.174 215.359 58.782 215.359 58.348C215.359 57.914 215.597 57.522 216.115 57.522C216.633 57.522 216.871 57.914 216.871 58.348ZM216.689 67H215.541V60.56L216.689 60.378V67ZM219.414 63.934V63.99C219.456 65.25 220.296 66.146 221.528 66.146C222.2 66.146 222.928 65.964 223.446 65.614L223.656 66.678C223.082 67.028 222.312 67.21 221.5 67.21C219.568 67.21 218.252 65.824 218.252 63.864C218.252 61.792 219.624 60.378 221.416 60.378C222.97 60.378 223.866 61.358 223.866 62.884C223.866 63.234 223.81 63.626 223.726 63.906C223.712 63.906 219.414 63.934 219.414 63.934ZM219.47 63.094L222.76 63.066V62.968C222.76 62.016 222.312 61.386 221.304 61.386C220.212 61.386 219.568 62.254 219.47 63.094ZM221.78 59.72H220.94L218.896 57.186H220.296L221.78 59.72ZM226.546 62.814V67H225.398V60.56L226.546 60.378V61.512C226.994 60.798 227.526 60.378 228.338 60.378C228.772 60.378 229.206 60.49 229.542 60.7L229.248 61.778C228.898 61.568 228.548 61.484 228.226 61.484C227.61 61.484 227.022 61.932 226.546 62.814ZM231.336 63.934V63.99C231.378 65.25 232.218 66.146 233.45 66.146C234.122 66.146 234.85 65.964 235.368 65.614L235.578 66.678C235.004 67.028 234.234 67.21 233.422 67.21C231.49 67.21 230.174 65.824 230.174 63.864C230.174 61.792 231.546 60.378 233.338 60.378C234.892 60.378 235.788 61.358 235.788 62.884C235.788 63.234 235.732 63.626 235.648 63.906C235.634 63.906 231.336 63.934 231.336 63.934ZM231.392 63.094L234.682 63.066V62.968C234.682 62.016 234.234 61.386 233.226 61.386C232.134 61.386 231.49 62.254 231.392 63.094ZM244.734 60.588V57.564L245.882 57.382V67H244.734C244.734 67 244.734 66.482 244.734 66.412C244.272 66.846 243.698 67.21 242.942 67.21C241.136 67.21 240.086 65.754 240.086 63.822C240.086 61.876 241.43 60.378 243.348 60.378C243.81 60.378 244.328 60.462 244.734 60.588ZM244.734 61.876C244.356 61.568 243.866 61.414 243.306 61.414C242.004 61.414 241.276 62.478 241.276 63.794C241.276 65.208 241.99 66.146 243.18 66.146C243.782 66.146 244.3 65.908 244.734 65.53C244.734 65.6 244.734 61.876 244.734 61.876ZM248.617 63.934V63.99C248.659 65.25 249.499 66.146 250.731 66.146C251.403 66.146 252.131 65.964 252.649 65.614L252.859 66.678C252.285 67.028 251.515 67.21 250.703 67.21C248.771 67.21 247.455 65.824 247.455 63.864C247.455 61.792 248.827 60.378 250.619 60.378C252.173 60.378 253.069 61.358 253.069 62.884C253.069 63.234 253.013 63.626 252.929 63.906C252.915 63.906 248.617 63.934 248.617 63.934ZM248.673 63.094L251.963 63.066V62.968C251.963 62.016 251.515 61.386 250.507 61.386C249.415 61.386 248.771 62.254 248.673 63.094ZM255.749 61.176C256.211 60.742 256.785 60.378 257.541 60.378C259.347 60.378 260.397 61.834 260.397 63.766C260.397 65.712 259.053 67.21 257.135 67.21C256.757 67.21 256.155 67.154 255.749 67.042V70.262H254.601V60.56L255.749 60.378C255.749 60.378 255.749 61.106 255.749 61.176ZM255.749 62.058C255.749 61.988 255.749 65.712 255.749 65.712C256.127 66.02 256.617 66.174 257.177 66.174C258.479 66.174 259.207 65.11 259.207 63.794C259.207 62.38 258.493 61.442 257.303 61.442C256.701 61.442 256.183 61.68 255.749 62.058ZM261.915 60.588H263.063V64.62C263.063 65.726 263.483 66.104 264.323 66.104C265.065 66.104 265.709 65.754 266.073 65.404V60.588H267.221V67.028L266.073 67.21C266.073 67.21 266.073 66.342 266.073 66.272C265.485 66.86 264.729 67.21 263.917 67.21C262.685 67.21 261.915 66.384 261.915 64.998V60.588ZM270.533 58.348C270.533 58.782 270.295 59.174 269.777 59.174C269.259 59.174 269.021 58.782 269.021 58.348C269.021 57.914 269.259 57.522 269.777 57.522C270.295 57.522 270.533 57.914 270.533 58.348ZM270.351 67H269.203V60.56L270.351 60.378V67ZM276.436 65.18C276.436 66.398 275.414 67.224 274.014 67.224C273.23 67.224 272.362 66.986 271.774 66.622L272.068 65.572C272.6 65.936 273.384 66.174 274.042 66.174C274.77 66.174 275.316 65.838 275.316 65.264C275.316 64.62 274.56 64.41 273.804 64.2C272.894 63.948 271.9 63.5 271.9 62.324C271.9 61.134 272.908 60.378 274.196 60.378C274.938 60.378 275.68 60.56 276.268 60.854L275.974 61.904C275.442 61.61 274.672 61.428 274.14 61.428C273.454 61.428 273.006 61.708 273.006 62.226C273.006 62.842 273.692 63.052 274.49 63.262C275.428 63.514 276.436 63.962 276.436 65.18ZM279.409 66.3C279.409 66.776 279.045 67.21 278.527 67.21C277.995 67.21 277.617 66.776 277.617 66.3C277.617 65.824 277.995 65.418 278.527 65.418C279.045 65.418 279.409 65.824 279.409 66.3ZM282.485 66.3C282.485 66.776 282.121 67.21 281.603 67.21C281.071 67.21 280.693 66.776 280.693 66.3C280.693 65.824 281.071 65.418 281.603 65.418C282.121 65.418 282.485 65.824 282.485 66.3ZM285.561 66.3C285.561 66.776 285.197 67.21 284.679 67.21C284.147 67.21 283.769 66.776 283.769 66.3C283.769 65.824 284.147 65.418 284.679 65.418C285.197 65.418 285.561 65.824 285.561 66.3Z" fill="#242424"/>
</g>
<defs>
<filter id="filter0_d_1397_42068" x="0" y="0" width="336" height="81" filterUnits="userSpaceOnUse" color-interpolation-filters="sRGB">
<feFlood flood-opacity="0" result="BackgroundImageFix"/>
<feColorMatrix in="SourceAlpha" type="matrix" values="0 0 0 0 0 0 0 0 0 0 0 0 0 0 0 0 0 0 127 0" result="hardAlpha"/>
<feOffset dx="1" dy="2"/>
<feComposite in2="hardAlpha" operator="out"/>
<feColorMatrix type="matrix" values="0 0 0 0 0.364706 0 0 0 0 0.364706 0 0 0 0 0.941176 0 0 0 1 0"/>
<feBlend mode="normal" in2="BackgroundImageFix" result="effect1_dropShadow_1397_42068"/>
<feBlend mode="normal" in="SourceGraphic" in2="effect1_dropShadow_1397_42068" result="shape"/>
</filter>
<clipPath id="clip0_1397_42068">
<rect width="18" height="18" fill="white" transform="translate(18 8.5)"/>
</clipPath>
</defs>
</svg>
