<svg width="336" height="81" viewBox="0 0 336 81" fill="none" xmlns="http://www.w3.org/2000/svg">
<g filter="url(#filter0_d_1792_14798)">
<rect width="335" height="79" rx="7" fill="#FEFDFB"/>
<path d="M26.568 19.43C26.568 21.964 25.056 23.21 22.704 23.21C20.422 23.21 18.854 22.09 18.854 19.626V14.25H21.066V19.332C21.066 20.648 21.598 21.334 22.76 21.334C23.81 21.334 24.356 20.774 24.356 19.416C24.356 19.444 24.356 14.25 24.356 14.25H26.568C26.568 14.25 26.568 19.388 26.568 19.43ZM34.5883 23H32.4323V19.15C32.4323 18.366 32.0823 18.114 31.5083 18.114C31.0323 18.114 30.6123 18.352 30.3323 18.604V23H28.1763V16.602L30.3323 16.336C30.3323 16.336 30.3323 17.302 30.3323 17.4C30.9062 16.742 31.6763 16.28 32.5163 16.28C33.8183 16.28 34.5883 17.134 34.5883 18.52V23ZM37.8563 20.228V20.256C37.9263 21.124 38.5283 21.628 39.5783 21.628C40.2923 21.628 41.0483 21.376 41.7063 20.998L41.9163 22.664C41.2583 23 40.3203 23.196 39.3823 23.196C37.1703 23.196 35.7423 21.964 35.7423 19.794C35.7423 17.666 37.1983 16.28 39.2703 16.28C41.1183 16.28 42.1263 17.386 42.1263 19.01C42.1263 19.36 42.0703 19.878 41.9863 20.158L37.8563 20.228ZM37.8703 19.15L40.1243 19.136C40.1243 19.108 40.1243 19.038 40.1243 19.01C40.1243 18.24 39.8023 17.764 39.1303 17.764C38.3883 17.764 37.9403 18.408 37.8703 19.15ZM48.2319 18.814C48.2319 19.5 48.5679 19.962 49.2539 19.962C49.9119 19.962 50.2059 19.486 50.2059 18.758C50.2059 18.072 49.8839 17.61 49.2119 17.61C48.5959 17.61 48.2319 18.086 48.2319 18.814ZM48.1339 23.672C47.8399 23.812 47.6159 24.05 47.6159 24.386C47.6159 24.89 48.2599 25.24 49.2539 25.24C50.3039 25.24 51.1019 24.918 51.1019 24.358C51.1019 23.84 50.5559 23.714 49.4219 23.714C49.0159 23.714 48.3719 23.686 48.1339 23.672ZM47.2799 23.434C46.7059 23.266 46.1459 22.86 46.1459 22.258C46.1459 21.642 46.7059 21.04 47.4899 20.816C46.7199 20.452 46.1739 19.724 46.1739 18.8C46.1739 17.386 47.3359 16.28 49.2679 16.28C50.0379 16.28 50.7659 16.518 51.2559 16.742L53.0899 16.588L53.1879 18.338L51.9279 18.142C52.0399 18.268 52.1099 18.632 52.1099 18.856C52.1099 20.172 50.9339 21.208 49.2539 21.208C48.9599 21.208 48.7079 21.166 48.3859 21.11C48.2039 21.208 48.0079 21.362 48.0079 21.586C48.0079 21.88 48.3439 21.992 49.1979 21.992C49.1979 21.992 50.0239 21.992 49.9679 21.992C51.7459 21.992 52.9779 22.44 52.9779 23.826C52.9779 25.45 51.0319 26.5 48.9039 26.5C47.1539 26.5 45.7259 25.954 45.7259 24.806C45.7259 24.162 46.2439 23.56 47.2799 23.434ZM57.4204 21.348V20.102C56.0904 20.256 55.6004 20.508 55.6004 21.082C55.6004 21.502 55.9364 21.782 56.4124 21.782C56.8464 21.782 57.1964 21.6 57.4204 21.348ZM57.4764 22.216H57.4344C56.9724 22.762 56.4544 23.21 55.5584 23.21C54.4384 23.21 53.5704 22.412 53.5704 21.404C53.5704 20.172 54.4944 19.178 57.4204 19.094V18.968C57.4204 18.282 57.0704 17.974 56.2724 17.974C55.6004 17.974 54.8164 18.254 54.0604 18.632L53.6124 17.05C54.2984 16.686 55.3764 16.28 56.6084 16.28C58.8624 16.28 59.6044 17.302 59.5764 19.122L59.5624 21.054C59.5624 21.502 59.6464 21.544 60.0944 21.586L59.8844 23.126C58.4704 23.308 57.7704 22.93 57.4764 22.216ZM59.1844 15.622H57.7144L56.5524 14.124H56.5244L55.3904 15.622H53.8924L55.5584 13.004H57.5184L59.1844 15.622ZM66.6428 22.678C66.0968 23.014 65.2008 23.21 64.2628 23.21C62.1068 23.21 60.7348 22.006 60.7348 19.794C60.7348 17.638 62.1348 16.28 64.3188 16.28C65.2288 16.28 66.0968 16.49 66.6848 16.826L66.2648 18.45C65.7468 18.156 65.1168 17.946 64.5428 17.946C63.5068 17.946 62.9328 18.674 62.9328 19.724C62.9328 20.886 63.5908 21.53 64.5988 21.53C65.2568 21.53 65.8168 21.348 66.3208 21.04L66.6428 22.678ZM74.264 23H72.108V19.15C72.108 18.366 71.758 18.114 71.212 18.114C70.708 18.114 70.288 18.352 70.008 18.604V23H67.852V13.746L70.008 13.48C70.008 13.48 70.008 17.274 70.008 17.386C70.582 16.728 71.352 16.28 72.206 16.28C73.494 16.28 74.264 17.134 74.264 18.52V23ZM77.532 20.228V20.256C77.602 21.124 78.204 21.628 79.254 21.628C79.968 21.628 80.724 21.376 81.382 20.998L81.592 22.664C80.934 23 79.996 23.196 79.058 23.196C76.846 23.196 75.418 21.964 75.418 19.794C75.418 17.666 76.874 16.28 78.946 16.28C80.794 16.28 81.802 17.386 81.802 19.01C81.802 19.36 81.746 19.878 81.662 20.158L77.532 20.228ZM77.546 19.15L79.8 19.136C79.8 19.108 79.8 19.038 79.8 19.01C79.8 18.24 79.478 17.764 78.806 17.764C78.064 17.764 77.616 18.408 77.546 19.15Z" fill="#242424"/>
<path d="M25.952 47.626C25.952 49.838 24.804 51.21 22.508 51.21C20.31 51.21 19.092 49.852 19.092 47.752V42.25H20.268V47.57C20.268 49.152 21.024 50.09 22.578 50.09C23.936 50.09 24.776 49.292 24.776 47.654C24.776 47.724 24.776 42.25 24.776 42.25H25.952C25.952 42.25 25.952 47.5 25.952 47.626ZM33.3508 51H32.2028V46.968C32.2028 45.862 31.7828 45.484 30.8728 45.484C30.2008 45.484 29.5568 45.834 29.1928 46.184V51H28.0448V44.56L29.1928 44.378V45.344C29.7808 44.756 30.5368 44.378 31.2788 44.378C32.5808 44.378 33.3508 45.204 33.3508 46.59V51ZM36.0192 47.934V47.99C36.0612 49.25 36.9012 50.146 38.1332 50.146C38.8052 50.146 39.5332 49.964 40.0512 49.614L40.2612 50.678C39.6872 51.028 38.9172 51.21 38.1052 51.21C36.1732 51.21 34.8572 49.824 34.8572 47.864C34.8572 45.792 36.2292 44.378 38.0212 44.378C39.5752 44.378 40.4712 45.358 40.4712 46.884C40.4712 47.234 40.4152 47.626 40.3312 47.906C40.3172 47.906 36.0192 47.934 36.0192 47.934ZM36.0752 47.094L39.3652 47.066V46.968C39.3652 46.016 38.9172 45.386 37.9092 45.386C36.8172 45.386 36.1732 46.254 36.0752 47.094ZM46.3373 45.176C46.7993 44.742 47.3733 44.378 48.1293 44.378C49.9353 44.378 50.9853 45.834 50.9853 47.766C50.9853 49.712 49.6413 51.21 47.7233 51.21C47.3453 51.21 46.7433 51.154 46.3373 51.042V54.262H45.1893V44.56L46.3373 44.378C46.3373 44.378 46.3373 45.106 46.3373 45.176ZM46.3373 46.058C46.3373 45.988 46.3373 49.712 46.3373 49.712C46.7153 50.02 47.2053 50.174 47.7653 50.174C49.0673 50.174 49.7953 49.11 49.7953 47.794C49.7953 46.38 49.0813 45.442 47.8913 45.442C47.2893 45.442 46.7713 45.68 46.3373 46.058ZM53.7065 51H52.5585V41.564L53.7065 41.382V51ZM58.9793 49.544V47.808C57.0753 48.06 56.3753 48.452 56.3753 49.236C56.3753 49.81 56.8093 50.23 57.5093 50.23C58.0973 50.23 58.6153 49.936 58.9793 49.544ZM59.0213 50.314H58.9653C58.4753 50.888 57.8873 51.21 57.2013 51.21C55.9973 51.21 55.1573 50.412 55.1573 49.376C55.1573 48.228 55.9833 47.22 58.9793 47.08V46.898C58.9793 45.862 58.5733 45.442 57.5373 45.442C56.8793 45.442 56.0673 45.75 55.4653 46.156L55.2413 45.12C55.8013 44.728 56.7393 44.378 57.6493 44.378C59.3853 44.378 60.1553 45.12 60.1273 46.87V49.558C60.1273 50.09 60.1973 50.188 60.7573 50.188L60.6873 51.154C59.6513 51.238 59.1893 50.874 59.0213 50.314ZM66.8497 50.678C66.2757 51.028 65.5477 51.21 64.7357 51.21C62.7057 51.21 61.5857 49.824 61.5857 47.794C61.5857 45.75 62.9437 44.378 64.8197 44.378C65.6457 44.378 66.3037 44.56 66.8917 44.924L66.5977 45.974C66.0657 45.61 65.4637 45.442 64.8197 45.442C63.5037 45.442 62.7757 46.338 62.7757 47.78C62.7757 49.264 63.5877 50.146 64.7917 50.146C65.4637 50.146 66.1217 49.964 66.6397 49.614L66.8497 50.678ZM69.0641 47.934V47.99C69.1061 49.25 69.9461 50.146 71.1781 50.146C71.8501 50.146 72.5781 49.964 73.0961 49.614L73.3061 50.678C72.7321 51.028 71.9621 51.21 71.1501 51.21C69.2181 51.21 67.9021 49.824 67.9021 47.864C67.9021 45.792 69.2741 44.378 71.0661 44.378C72.6201 44.378 73.5161 45.358 73.5161 46.884C73.5161 47.234 73.4601 47.626 73.3761 47.906C73.3621 47.906 69.0641 47.934 69.0641 47.934ZM69.1201 47.094L72.4101 47.066V46.968C72.4101 46.016 71.9621 45.386 70.9541 45.386C69.8621 45.386 69.2181 46.254 69.1201 47.094ZM74.6287 50.118C74.6847 49.67 74.9927 49.292 75.5807 49.292C76.1547 49.292 76.7707 49.824 76.7707 50.58C76.7707 51.728 75.7347 52.61 74.6987 53.31L74.2087 52.82C75.1747 52.12 75.6367 51.532 75.6367 51.042C75.6367 50.692 75.3847 50.468 74.6287 50.118ZM82.8224 45.428H82.3464L83.9564 41.97L85.0064 42.474L82.8224 45.428ZM80.7224 45.428H80.2464L81.8564 41.97L82.9064 42.474L80.7224 45.428ZM85.5064 44.588H86.6544V48.62C86.6544 49.726 87.0744 50.104 87.9144 50.104C88.6564 50.104 89.3004 49.754 89.6644 49.404V44.588H90.8124V51.028L89.6644 51.21C89.6644 51.21 89.6644 50.342 89.6644 50.272C89.0764 50.86 88.3204 51.21 87.5084 51.21C86.2764 51.21 85.5064 50.384 85.5064 48.998V44.588ZM98.1008 51H96.9528V46.968C96.9528 45.862 96.5328 45.484 95.6228 45.484C94.9508 45.484 94.3068 45.834 93.9428 46.184V51H92.7948V44.56L93.9428 44.378V45.344C94.5308 44.756 95.2868 44.378 96.0288 44.378C97.3308 44.378 98.1008 45.204 98.1008 46.59V51ZM100.769 47.934V47.99C100.811 49.25 101.651 50.146 102.883 50.146C103.555 50.146 104.283 49.964 104.801 49.614L105.011 50.678C104.437 51.028 103.667 51.21 102.855 51.21C100.923 51.21 99.6072 49.824 99.6072 47.864C99.6072 45.792 100.979 44.378 102.771 44.378C104.325 44.378 105.221 45.358 105.221 46.884C105.221 47.234 105.165 47.626 105.081 47.906C105.067 47.906 100.769 47.934 100.769 47.934ZM100.825 47.094L104.115 47.066V46.968C104.115 46.016 103.667 45.386 102.659 45.386C101.567 45.386 100.923 46.254 100.825 47.094ZM110.723 46.814C110.723 47.668 111.297 48.242 112.221 48.242C113.061 48.242 113.593 47.64 113.593 46.744C113.593 45.904 113.103 45.302 112.123 45.302C111.283 45.302 110.723 45.918 110.723 46.814ZM111.283 51.308C110.639 51.49 110.177 51.868 110.177 52.344C110.177 53.03 110.989 53.534 112.207 53.534C113.411 53.534 114.363 53.016 114.363 52.232C114.363 51.532 113.733 51.364 112.445 51.364C112.039 51.364 111.563 51.336 111.283 51.308ZM110.415 51.098C109.869 50.86 109.575 50.468 109.575 50.02C109.575 49.488 109.995 48.998 110.639 48.774C109.967 48.382 109.575 47.682 109.575 46.8C109.575 45.54 110.513 44.378 112.179 44.378C112.865 44.378 113.425 44.56 113.831 44.742L115.483 44.588L115.525 45.722L114.293 45.498C114.545 45.736 114.727 46.338 114.727 46.814C114.727 48.102 113.663 49.166 112.165 49.166C111.843 49.166 111.647 49.124 111.269 49.012C111.003 49.11 110.639 49.362 110.639 49.684C110.639 50.062 110.891 50.286 112.095 50.286C112.095 50.286 112.823 50.286 112.683 50.286C114.601 50.286 115.483 50.874 115.483 52.008C115.483 53.422 113.957 54.472 112.025 54.472C110.331 54.472 109.043 53.744 109.043 52.596C109.043 51.868 109.533 51.266 110.415 51.098ZM119.888 49.544V47.808C117.984 48.06 117.284 48.452 117.284 49.236C117.284 49.81 117.718 50.23 118.418 50.23C119.006 50.23 119.524 49.936 119.888 49.544ZM119.93 50.314H119.874C119.384 50.888 118.796 51.21 118.11 51.21C116.906 51.21 116.066 50.412 116.066 49.376C116.066 48.228 116.892 47.22 119.888 47.08V46.898C119.888 45.862 119.482 45.442 118.446 45.442C117.788 45.442 116.976 45.75 116.374 46.156L116.15 45.12C116.71 44.728 117.648 44.378 118.558 44.378C120.294 44.378 121.064 45.12 121.036 46.87V49.558C121.036 50.09 121.106 50.188 121.666 50.188L121.596 51.154C120.56 51.238 120.098 50.874 119.93 50.314ZM120.826 43.72H119.986L118.614 41.942H118.6L117.214 43.72H116.374L117.984 41.102H119.216L120.826 43.72ZM127.758 50.678C127.184 51.028 126.456 51.21 125.644 51.21C123.614 51.21 122.494 49.824 122.494 47.794C122.494 45.75 123.852 44.378 125.728 44.378C126.554 44.378 127.212 44.56 127.8 44.924L127.506 45.974C126.974 45.61 126.372 45.442 125.728 45.442C124.412 45.442 123.684 46.338 123.684 47.78C123.684 49.264 124.496 50.146 125.7 50.146C126.372 50.146 127.03 49.964 127.548 49.614L127.758 50.678ZM134.605 51H133.457V46.968C133.457 45.862 133.037 45.484 132.197 45.484C131.455 45.484 130.811 45.834 130.447 46.184V51H129.299V41.564L130.447 41.382C130.447 41.382 130.447 45.246 130.447 45.316C131.035 44.728 131.791 44.378 132.603 44.378C133.835 44.378 134.605 45.204 134.605 46.59V51ZM137.273 47.934V47.99C137.315 49.25 138.155 50.146 139.387 50.146C140.059 50.146 140.787 49.964 141.305 49.614L141.515 50.678C140.941 51.028 140.171 51.21 139.359 51.21C137.427 51.21 136.111 49.824 136.111 47.864C136.111 45.792 137.483 44.378 139.275 44.378C140.829 44.378 141.725 45.358 141.725 46.884C141.725 47.234 141.669 47.626 141.585 47.906C141.571 47.906 137.273 47.934 137.273 47.934ZM137.329 47.094L140.619 47.066V46.968C140.619 46.016 140.171 45.386 139.163 45.386C138.071 45.386 137.427 46.254 137.329 47.094ZM150.671 44.588V41.564L151.819 41.382V51H150.671C150.671 51 150.671 50.482 150.671 50.412C150.209 50.846 149.635 51.21 148.879 51.21C147.073 51.21 146.023 49.754 146.023 47.822C146.023 45.876 147.367 44.378 149.285 44.378C149.747 44.378 150.265 44.462 150.671 44.588ZM150.671 45.876C150.293 45.568 149.803 45.414 149.243 45.414C147.941 45.414 147.213 46.478 147.213 47.794C147.213 49.208 147.927 50.146 149.117 50.146C149.719 50.146 150.237 49.908 150.671 49.53C150.671 49.6 150.671 45.876 150.671 45.876ZM154.554 47.934V47.99C154.596 49.25 155.436 50.146 156.668 50.146C157.34 50.146 158.068 49.964 158.586 49.614L158.796 50.678C158.222 51.028 157.452 51.21 156.64 51.21C154.708 51.21 153.392 49.824 153.392 47.864C153.392 45.792 154.764 44.378 156.556 44.378C158.11 44.378 159.006 45.358 159.006 46.884C159.006 47.234 158.95 47.626 158.866 47.906C158.852 47.906 154.554 47.934 154.554 47.934ZM154.61 47.094L157.9 47.066V46.968C157.9 46.016 157.452 45.386 156.444 45.386C155.352 45.386 154.708 46.254 154.61 47.094ZM164.872 45.176C165.334 44.742 165.908 44.378 166.664 44.378C168.47 44.378 169.52 45.834 169.52 47.766C169.52 49.712 168.176 51.21 166.258 51.21C165.88 51.21 165.278 51.154 164.872 51.042V54.262H163.724V44.56L164.872 44.378C164.872 44.378 164.872 45.106 164.872 45.176ZM164.872 46.058C164.872 45.988 164.872 49.712 164.872 49.712C165.25 50.02 165.74 50.174 166.3 50.174C167.602 50.174 168.33 49.11 168.33 47.794C168.33 46.38 167.616 45.442 166.426 45.442C165.824 45.442 165.306 45.68 164.872 46.058ZM174.384 49.544V47.808C172.48 48.06 171.78 48.452 171.78 49.236C171.78 49.81 172.214 50.23 172.914 50.23C173.502 50.23 174.02 49.936 174.384 49.544ZM174.426 50.314H174.37C173.88 50.888 173.292 51.21 172.606 51.21C171.402 51.21 170.562 50.412 170.562 49.376C170.562 48.228 171.388 47.22 174.384 47.08V46.898C174.384 45.862 173.978 45.442 172.942 45.442C172.284 45.442 171.472 45.75 170.87 46.156L170.646 45.12C171.206 44.728 172.144 44.378 173.054 44.378C174.79 44.378 175.56 45.12 175.532 46.87V49.558C175.532 50.09 175.602 50.188 176.162 50.188L176.092 51.154C175.056 51.238 174.594 50.874 174.426 50.314ZM178.558 46.814V51H177.41V44.56L178.558 44.378V45.512C179.006 44.798 179.538 44.378 180.35 44.378C180.784 44.378 181.218 44.49 181.554 44.7L181.26 45.778C180.91 45.568 180.56 45.484 180.238 45.484C179.622 45.484 179.034 45.932 178.558 46.814ZM183.918 47.836H183.89V51H182.742V41.564L183.89 41.382V47.528H183.918L186.564 44.588H188.02L185.08 47.626L188.034 51H186.564L183.918 47.836ZM190.457 42.348C190.457 42.782 190.219 43.174 189.701 43.174C189.183 43.174 188.945 42.782 188.945 42.348C188.945 41.914 189.183 41.522 189.701 41.522C190.219 41.522 190.457 41.914 190.457 42.348ZM190.275 51H189.127V44.56L190.275 44.378V51ZM197.564 51H196.416V46.968C196.416 45.862 195.996 45.484 195.086 45.484C194.414 45.484 193.77 45.834 193.406 46.184V51H192.258V44.56L193.406 44.378V45.344C193.994 44.756 194.75 44.378 195.492 44.378C196.794 44.378 197.564 45.204 197.564 46.59V51ZM200.274 46.814C200.274 47.668 200.848 48.242 201.772 48.242C202.612 48.242 203.144 47.64 203.144 46.744C203.144 45.904 202.654 45.302 201.674 45.302C200.834 45.302 200.274 45.918 200.274 46.814ZM200.834 51.308C200.19 51.49 199.728 51.868 199.728 52.344C199.728 53.03 200.54 53.534 201.758 53.534C202.962 53.534 203.914 53.016 203.914 52.232C203.914 51.532 203.284 51.364 201.996 51.364C201.59 51.364 201.114 51.336 200.834 51.308ZM199.966 51.098C199.42 50.86 199.126 50.468 199.126 50.02C199.126 49.488 199.546 48.998 200.19 48.774C199.518 48.382 199.126 47.682 199.126 46.8C199.126 45.54 200.064 44.378 201.73 44.378C202.416 44.378 202.976 44.56 203.382 44.742L205.034 44.588L205.076 45.722L203.844 45.498C204.096 45.736 204.278 46.338 204.278 46.814C204.278 48.102 203.214 49.166 201.716 49.166C201.394 49.166 201.198 49.124 200.82 49.012C200.554 49.11 200.19 49.362 200.19 49.684C200.19 50.062 200.442 50.286 201.646 50.286C201.646 50.286 202.374 50.286 202.234 50.286C204.152 50.286 205.034 50.874 205.034 52.008C205.034 53.422 203.508 54.472 201.576 54.472C199.882 54.472 198.594 53.744 198.594 52.596C198.594 51.868 199.084 51.266 199.966 51.098ZM207.66 45.428H207.184L208.794 41.97L209.844 42.474L207.66 45.428ZM205.56 45.428H205.084L206.694 41.97L207.744 42.474L205.56 45.428ZM214.734 45.176C215.196 44.742 215.77 44.378 216.526 44.378C218.332 44.378 219.382 45.834 219.382 47.766C219.382 49.712 218.038 51.21 216.12 51.21C215.742 51.21 215.14 51.154 214.734 51.042V54.262H213.586V44.56L214.734 44.378C214.734 44.378 214.734 45.106 214.734 45.176ZM214.734 46.058C214.734 45.988 214.734 49.712 214.734 49.712C215.112 50.02 215.602 50.174 216.162 50.174C217.464 50.174 218.192 49.11 218.192 47.794C218.192 46.38 217.478 45.442 216.288 45.442C215.686 45.442 215.168 45.68 214.734 46.058ZM224.245 49.544V47.808C222.341 48.06 221.641 48.452 221.641 49.236C221.641 49.81 222.075 50.23 222.775 50.23C223.363 50.23 223.881 49.936 224.245 49.544ZM224.287 50.314H224.231C223.741 50.888 223.153 51.21 222.467 51.21C221.263 51.21 220.423 50.412 220.423 49.376C220.423 48.228 221.249 47.22 224.245 47.08V46.898C224.245 45.862 223.839 45.442 222.803 45.442C222.145 45.442 221.333 45.75 220.731 46.156L220.507 45.12C221.067 44.728 222.005 44.378 222.915 44.378C224.651 44.378 225.421 45.12 225.393 46.87V49.558C225.393 50.09 225.463 50.188 226.023 50.188L225.953 51.154C224.917 51.238 224.455 50.874 224.287 50.314ZM228.419 46.814V51H227.271V44.56L228.419 44.378V45.512C228.867 44.798 229.399 44.378 230.211 44.378C230.645 44.378 231.079 44.49 231.415 44.7L231.121 45.778C230.771 45.568 230.421 45.484 230.099 45.484C229.483 45.484 228.895 45.932 228.419 46.814ZM236.531 47.934V47.99C236.573 49.25 237.413 50.146 238.645 50.146C239.317 50.146 240.045 49.964 240.563 49.614L240.773 50.678C240.199 51.028 239.429 51.21 238.617 51.21C236.685 51.21 235.369 49.824 235.369 47.864C235.369 45.792 236.741 44.378 238.533 44.378C240.087 44.378 240.983 45.358 240.983 46.884C240.983 47.234 240.927 47.626 240.843 47.906C240.829 47.906 236.531 47.934 236.531 47.934ZM236.587 47.094L239.877 47.066V46.968C239.877 46.016 239.429 45.386 238.421 45.386C237.329 45.386 236.685 46.254 236.587 47.094ZM247.303 51H246.015L244.419 48.494L242.851 51H241.535L243.733 47.724L241.661 44.588H242.949L244.419 46.898L245.819 44.588H247.135L245.105 47.696L247.303 51ZM248.986 47.934V47.99C249.028 49.25 249.868 50.146 251.1 50.146C251.772 50.146 252.5 49.964 253.018 49.614L253.228 50.678C252.654 51.028 251.884 51.21 251.072 51.21C249.14 51.21 247.824 49.824 247.824 47.864C247.824 45.792 249.196 44.378 250.988 44.378C252.542 44.378 253.438 45.358 253.438 46.884C253.438 47.234 253.382 47.626 253.298 47.906C253.284 47.906 248.986 47.934 248.986 47.934ZM249.042 47.094L252.332 47.066V46.968C252.332 46.016 251.884 45.386 250.876 45.386C249.784 45.386 249.14 46.254 249.042 47.094ZM264.127 51H262.979V46.996C262.979 45.876 262.573 45.47 261.747 45.47C261.033 45.47 260.487 45.848 260.123 46.198V46.59V51H258.975V46.996C258.975 45.876 258.569 45.47 257.743 45.47C257.029 45.47 256.483 45.778 256.119 46.128V51H254.971V44.56L256.119 44.378C256.119 44.378 256.119 45.19 256.119 45.26C256.735 44.672 257.407 44.378 258.177 44.378C258.919 44.378 259.535 44.728 259.857 45.442C260.543 44.756 261.299 44.378 262.181 44.378C263.357 44.378 264.127 45.204 264.127 46.618V51ZM267.206 45.176C267.668 44.742 268.242 44.378 268.998 44.378C270.804 44.378 271.854 45.834 271.854 47.766C271.854 49.712 270.51 51.21 268.592 51.21C268.214 51.21 267.612 51.154 267.206 51.042V54.262H266.058V44.56L267.206 44.378C267.206 44.378 267.206 45.106 267.206 45.176ZM267.206 46.058C267.206 45.988 267.206 49.712 267.206 49.712C267.584 50.02 268.074 50.174 268.634 50.174C269.936 50.174 270.664 49.11 270.664 47.794C270.664 46.38 269.95 45.442 268.76 45.442C268.158 45.442 267.64 45.68 267.206 46.058ZM274.576 51H273.428V41.564L274.576 41.382V51ZM277.3 47.934V47.99C277.342 49.25 278.182 50.146 279.414 50.146C280.086 50.146 280.814 49.964 281.332 49.614L281.542 50.678C280.968 51.028 280.198 51.21 279.386 51.21C277.454 51.21 276.138 49.824 276.138 47.864C276.138 45.792 277.51 44.378 279.302 44.378C280.856 44.378 281.752 45.358 281.752 46.884C281.752 47.234 281.696 47.626 281.612 47.906C281.598 47.906 277.3 47.934 277.3 47.934ZM277.356 47.094L280.646 47.066V46.968C280.646 46.016 280.198 45.386 279.19 45.386C278.098 45.386 277.454 46.254 277.356 47.094ZM284.741 50.3C284.741 50.776 284.377 51.21 283.859 51.21C283.327 51.21 282.949 50.776 282.949 50.3C282.949 49.824 283.327 49.418 283.859 49.418C284.377 49.418 284.741 49.824 284.741 50.3Z" fill="#242424"/>
</g>
<defs>
<filter id="filter0_d_1792_14798" x="0" y="0" width="336" height="81" filterUnits="userSpaceOnUse" color-interpolation-filters="sRGB">
<feFlood flood-opacity="0" result="BackgroundImageFix"/>
<feColorMatrix in="SourceAlpha" type="matrix" values="0 0 0 0 0 0 0 0 0 0 0 0 0 0 0 0 0 0 127 0" result="hardAlpha"/>
<feOffset dx="1" dy="2"/>
<feComposite in2="hardAlpha" operator="out"/>
<feColorMatrix type="matrix" values="0 0 0 0 1 0 0 0 0 0.846528 0 0 0 0 0.291667 0 0 0 1 0"/>
<feBlend mode="normal" in2="BackgroundImageFix" result="effect1_dropShadow_1792_14798"/>
<feBlend mode="normal" in="SourceGraphic" in2="effect1_dropShadow_1792_14798" result="shape"/>
</filter>
</defs>
</svg>
