<svg width="336" height="81" viewBox="0 0 336 81" fill="none" xmlns="http://www.w3.org/2000/svg">
<g filter="url(#filter0_d_1792_14791)">
<rect width="335" height="79" rx="7" fill="#FEFDFB"/>
<path d="M26.568 19.43C26.568 21.964 25.056 23.21 22.704 23.21C20.422 23.21 18.854 22.09 18.854 19.626V14.25H21.066V19.332C21.066 20.648 21.598 21.334 22.76 21.334C23.81 21.334 24.356 20.774 24.356 19.416C24.356 19.444 24.356 14.25 24.356 14.25H26.568C26.568 14.25 26.568 19.388 26.568 19.43ZM34.5883 23H32.4323V19.15C32.4323 18.366 32.0823 18.114 31.5083 18.114C31.0323 18.114 30.6123 18.352 30.3323 18.604V23H28.1763V16.602L30.3323 16.336C30.3323 16.336 30.3323 17.302 30.3323 17.4C30.9062 16.742 31.6763 16.28 32.5163 16.28C33.8183 16.28 34.5883 17.134 34.5883 18.52V23ZM40.9858 18.814C40.9858 19.5 41.3218 19.962 42.0078 19.962C42.6658 19.962 42.9598 19.486 42.9598 18.758C42.9598 18.072 42.6378 17.61 41.9658 17.61C41.3498 17.61 40.9858 18.086 40.9858 18.814ZM40.8878 23.672C40.5938 23.812 40.3698 24.05 40.3698 24.386C40.3698 24.89 41.0138 25.24 42.0078 25.24C43.0578 25.24 43.8558 24.918 43.8558 24.358C43.8558 23.84 43.3098 23.714 42.1758 23.714C41.7698 23.714 41.1258 23.686 40.8878 23.672ZM40.0338 23.434C39.4598 23.266 38.8998 22.86 38.8998 22.258C38.8998 21.642 39.4598 21.04 40.2438 20.816C39.4738 20.452 38.9278 19.724 38.9278 18.8C38.9278 17.386 40.0898 16.28 42.0218 16.28C42.7918 16.28 43.5198 16.518 44.0098 16.742L45.8438 16.588L45.9418 18.338L44.6818 18.142C44.7938 18.268 44.8638 18.632 44.8638 18.856C44.8638 20.172 43.6878 21.208 42.0078 21.208C41.7138 21.208 41.4618 21.166 41.1398 21.11C40.9578 21.208 40.7618 21.362 40.7618 21.586C40.7618 21.88 41.0978 21.992 41.9518 21.992C41.9518 21.992 42.7778 21.992 42.7218 21.992C44.4998 21.992 45.7318 22.44 45.7318 23.826C45.7318 25.45 43.7858 26.5 41.6578 26.5C39.9078 26.5 38.4798 25.954 38.4798 24.806C38.4798 24.162 38.9978 23.56 40.0338 23.434ZM53.3103 19.724C53.3103 21.908 51.7283 23.21 49.7823 23.21C47.8223 23.21 46.3243 21.978 46.3243 19.766C46.3243 17.554 47.8923 16.28 49.8663 16.28C51.8263 16.28 53.3103 17.54 53.3103 19.724ZM51.1683 19.738C51.1683 18.646 50.6923 17.918 49.8103 17.918C48.9283 17.918 48.4663 18.632 48.4663 19.752C48.4663 20.858 48.9423 21.558 49.8243 21.558C50.7063 21.558 51.1683 20.858 51.1683 19.738ZM60.9066 23H58.7506V19.15C58.7506 18.366 58.4006 18.114 57.8266 18.114C57.3506 18.114 56.9306 18.352 56.6506 18.604V23H54.4946V16.602L56.6506 16.336C56.6506 16.336 56.6506 17.302 56.6506 17.4C57.2246 16.742 57.9946 16.28 58.8346 16.28C60.1366 16.28 60.9066 17.134 60.9066 18.52V23ZM64.1746 20.228V20.256C64.2446 21.124 64.8466 21.628 65.8966 21.628C66.6106 21.628 67.3666 21.376 68.0246 20.998L68.2346 22.664C67.5766 23 66.6386 23.196 65.7006 23.196C63.4886 23.196 62.0606 21.964 62.0606 19.794C62.0606 17.666 63.5166 16.28 65.5886 16.28C67.4366 16.28 68.4446 17.386 68.4446 19.01C68.4446 19.36 68.3886 19.878 68.3046 20.158L64.1746 20.228ZM64.1886 19.15L66.4426 19.136C66.4426 19.108 66.4426 19.038 66.4426 19.01C66.4426 18.24 66.1206 17.764 65.4486 17.764C64.7066 17.764 64.2586 18.408 64.1886 19.15Z" fill="#242424"/>
<path d="M21.458 50.146C22.564 50.146 23.362 49.544 23.362 48.676C23.362 47.78 22.69 47.444 21.262 47.066C20.016 46.73 18.644 46.198 18.644 44.504C18.644 43.034 19.834 42.04 21.57 42.04C22.578 42.04 23.488 42.292 24.328 42.81L23.908 43.846C23.236 43.398 22.368 43.118 21.584 43.118C20.324 43.118 19.806 43.692 19.806 44.42C19.806 45.302 20.548 45.61 21.934 45.988C23.208 46.324 24.51 46.94 24.51 48.592C24.51 50.104 23.264 51.21 21.43 51.21C20.408 51.21 19.344 50.916 18.504 50.384L18.896 49.306C19.638 49.796 20.436 50.146 21.458 50.146ZM26.859 47.934V47.99C26.901 49.25 27.741 50.146 28.973 50.146C29.645 50.146 30.373 49.964 30.891 49.614L31.101 50.678C30.527 51.028 29.757 51.21 28.945 51.21C27.013 51.21 25.697 49.824 25.697 47.864C25.697 45.792 27.069 44.378 28.861 44.378C30.415 44.378 31.311 45.358 31.311 46.884C31.311 47.234 31.255 47.626 31.171 47.906C31.157 47.906 26.859 47.934 26.859 47.934ZM26.915 47.094L30.205 47.066V46.968C30.205 46.016 29.757 45.386 28.749 45.386C27.657 45.386 27.013 46.254 26.915 47.094ZM37.1772 46.814V51H36.0292V44.56L37.1772 44.378V45.512C37.6252 44.798 38.1572 44.378 38.9692 44.378C39.4032 44.378 39.8372 44.49 40.1732 44.7L39.8792 45.778C39.5292 45.568 39.1792 45.484 38.8572 45.484C38.2412 45.484 37.6532 45.932 37.1772 46.814ZM44.5145 49.544V47.808C42.6105 48.06 41.9105 48.452 41.9105 49.236C41.9105 49.81 42.3445 50.23 43.0445 50.23C43.6325 50.23 44.1505 49.936 44.5145 49.544ZM44.5565 50.314H44.5005C44.0105 50.888 43.4225 51.21 42.7365 51.21C41.5325 51.21 40.6925 50.412 40.6925 49.376C40.6925 48.228 41.5185 47.22 44.5145 47.08V46.898C44.5145 45.862 44.1085 45.442 43.0725 45.442C42.4145 45.442 41.6025 45.75 41.0005 46.156L40.7765 45.12C41.3365 44.728 42.2745 44.378 43.1845 44.378C44.9205 44.378 45.6905 45.12 45.6625 46.87V49.558C45.6625 50.09 45.7325 50.188 46.2925 50.188L46.2225 51.154C45.1865 51.238 44.7245 50.874 44.5565 50.314ZM48.6889 45.176C49.1509 44.742 49.7249 44.378 50.4809 44.378C52.2869 44.378 53.3369 45.834 53.3369 47.766C53.3369 49.712 51.9929 51.21 50.0749 51.21C49.6969 51.21 49.0949 51.154 48.6889 51.042V54.262H47.5409V44.56L48.6889 44.378C48.6889 44.378 48.6889 45.106 48.6889 45.176ZM48.6889 46.058C48.6889 45.988 48.6889 49.712 48.6889 49.712C49.0669 50.02 49.5569 50.174 50.1169 50.174C51.4189 50.174 52.1469 49.11 52.1469 47.794C52.1469 46.38 51.4329 45.442 50.2429 45.442C49.6409 45.442 49.1229 45.68 48.6889 46.058ZM56.058 45.176C56.52 44.742 57.094 44.378 57.85 44.378C59.656 44.378 60.706 45.834 60.706 47.766C60.706 49.712 59.362 51.21 57.444 51.21C57.066 51.21 56.464 51.154 56.058 51.042V54.262H54.91V44.56L56.058 44.378C56.058 44.378 56.058 45.106 56.058 45.176ZM56.058 46.058C56.058 45.988 56.058 49.712 56.058 49.712C56.436 50.02 56.926 50.174 57.486 50.174C58.788 50.174 59.516 49.11 59.516 47.794C59.516 46.38 58.802 45.442 57.612 45.442C57.01 45.442 56.492 45.68 56.058 46.058ZM68.1032 47.794C68.1032 49.852 66.7592 51.21 64.9532 51.21C63.1332 51.21 61.8592 49.866 61.8592 47.794C61.8592 45.736 63.1752 44.364 65.0232 44.364C66.8572 44.364 68.1032 45.722 68.1032 47.794ZM66.9692 47.808C66.9692 46.436 66.2272 45.4 64.9672 45.4C63.6932 45.4 62.9932 46.394 62.9932 47.78C62.9932 49.152 63.7352 50.174 64.9952 50.174C66.2692 50.174 66.9692 49.194 66.9692 47.808ZM70.8236 46.814V51H69.6756V44.56L70.8236 44.378V45.512C71.2716 44.798 71.8036 44.378 72.6156 44.378C73.0496 44.378 73.4836 44.49 73.8196 44.7L73.5256 45.778C73.1756 45.568 72.8256 45.484 72.5036 45.484C71.8876 45.484 71.2996 45.932 70.8236 46.814ZM78.5184 50.93C78.0424 51.112 77.5524 51.21 77.0764 51.21C75.8304 51.21 75.1724 50.608 75.2144 49.208L75.3124 45.624L74.2484 45.554L74.2904 44.826L75.3544 44.504L75.3824 43.118H76.4884L76.4464 44.588H78.4484L78.4064 45.624H76.4044L76.3064 49.25C76.2924 49.852 76.5724 50.16 77.1464 50.16C77.5384 50.16 77.9304 50.062 78.3084 49.922C78.3224 49.922 78.5184 50.93 78.5184 50.93ZM80.5622 47.934V47.99C80.6042 49.25 81.4442 50.146 82.6762 50.146C83.3482 50.146 84.0762 49.964 84.5942 49.614L84.8042 50.678C84.2302 51.028 83.4602 51.21 82.6482 51.21C80.7162 51.21 79.4002 49.824 79.4002 47.864C79.4002 45.792 80.7722 44.378 82.5642 44.378C84.1182 44.378 85.0142 45.358 85.0142 46.884C85.0142 47.234 84.9582 47.626 84.8742 47.906C84.8602 47.906 80.5622 47.934 80.5622 47.934ZM80.6182 47.094L83.9082 47.066V46.968C83.9082 46.016 83.4602 45.386 82.4522 45.386C81.3602 45.386 80.7162 46.254 80.6182 47.094ZM90.8803 45.176C91.3423 44.742 91.9163 44.378 92.6723 44.378C94.4783 44.378 95.5283 45.834 95.5283 47.766C95.5283 49.712 94.1843 51.21 92.2663 51.21C91.8883 51.21 91.2863 51.154 90.8803 51.042V54.262H89.7323V44.56L90.8803 44.378C90.8803 44.378 90.8803 45.106 90.8803 45.176ZM90.8803 46.058C90.8803 45.988 90.8803 49.712 90.8803 49.712C91.2583 50.02 91.7483 50.174 92.3083 50.174C93.6103 50.174 94.3383 49.11 94.3383 47.794C94.3383 46.38 93.6243 45.442 92.4343 45.442C91.8323 45.442 91.3143 45.68 90.8803 46.058ZM98.2494 46.814V51H97.1014V44.56L98.2494 44.378V45.512C98.6974 44.798 99.2294 44.378 100.041 44.378C100.475 44.378 100.909 44.49 101.245 44.7L100.951 45.778C100.601 45.568 100.251 45.484 99.9294 45.484C99.3134 45.484 98.7254 45.932 98.2494 46.814ZM103.763 42.348C103.763 42.782 103.525 43.174 103.007 43.174C102.489 43.174 102.251 42.782 102.251 42.348C102.251 41.914 102.489 41.522 103.007 41.522C103.525 41.522 103.763 41.914 103.763 42.348ZM103.581 51H102.433V44.56L103.581 44.378V51ZM110.87 51H109.722V46.968C109.722 45.862 109.302 45.484 108.392 45.484C107.72 45.484 107.076 45.834 106.712 46.184V51H105.564V44.56L106.712 44.378V45.344C107.3 44.756 108.056 44.378 108.798 44.378C110.1 44.378 110.87 45.204 110.87 46.59V51ZM117.641 50.678C117.067 51.028 116.339 51.21 115.527 51.21C113.497 51.21 112.377 49.824 112.377 47.794C112.377 45.75 113.735 44.378 115.611 44.378C116.437 44.378 117.095 44.56 117.683 44.924L117.389 45.974C116.857 45.61 116.255 45.442 115.611 45.442C114.295 45.442 113.567 46.338 113.567 47.78C113.567 49.264 114.379 50.146 115.583 50.146C116.255 50.146 116.913 49.964 117.431 49.614L117.641 50.678ZM120.512 42.348C120.512 42.782 120.274 43.174 119.756 43.174C119.238 43.174 119 42.782 119 42.348C119 41.914 119.238 41.522 119.756 41.522C120.274 41.522 120.512 41.914 120.512 42.348ZM120.33 51H119.182V44.56L120.33 44.378V51ZM123.46 45.176C123.922 44.742 124.496 44.378 125.252 44.378C127.058 44.378 128.108 45.834 128.108 47.766C128.108 49.712 126.764 51.21 124.846 51.21C124.468 51.21 123.866 51.154 123.46 51.042V54.262H122.312V44.56L123.46 44.378C123.46 44.378 123.46 45.106 123.46 45.176ZM123.46 46.058C123.46 45.988 123.46 49.712 123.46 49.712C123.838 50.02 124.328 50.174 124.888 50.174C126.19 50.174 126.918 49.11 126.918 47.794C126.918 46.38 126.204 45.442 125.014 45.442C124.412 45.442 123.894 45.68 123.46 46.058ZM132.972 49.544V47.808C131.068 48.06 130.368 48.452 130.368 49.236C130.368 49.81 130.802 50.23 131.502 50.23C132.09 50.23 132.608 49.936 132.972 49.544ZM133.014 50.314H132.958C132.468 50.888 131.88 51.21 131.194 51.21C129.99 51.21 129.149 50.412 129.149 49.376C129.149 48.228 129.976 47.22 132.972 47.08V46.898C132.972 45.862 132.566 45.442 131.53 45.442C130.872 45.442 130.06 45.75 129.458 46.156L129.234 45.12C129.794 44.728 130.732 44.378 131.642 44.378C133.378 44.378 134.148 45.12 134.12 46.87V49.558C134.12 50.09 134.19 50.188 134.75 50.188L134.68 51.154C133.644 51.238 133.182 50.874 133.014 50.314ZM137.146 51H135.998V41.564L137.146 41.382V51ZM139.871 47.934V47.99C139.913 49.25 140.753 50.146 141.985 50.146C142.657 50.146 143.385 49.964 143.903 49.614L144.113 50.678C143.539 51.028 142.769 51.21 141.957 51.21C140.025 51.21 138.709 49.824 138.709 47.864C138.709 45.792 140.081 44.378 141.873 44.378C143.427 44.378 144.323 45.358 144.323 46.884C144.323 47.234 144.267 47.626 144.183 47.906C144.169 47.906 139.871 47.934 139.871 47.934ZM139.927 47.094L143.217 47.066V46.968C143.217 46.016 142.769 45.386 141.761 45.386C140.669 45.386 140.025 46.254 139.927 47.094ZM155.011 51H153.863V46.996C153.863 45.876 153.457 45.47 152.631 45.47C151.917 45.47 151.371 45.848 151.007 46.198V46.59V51H149.859V46.996C149.859 45.876 149.453 45.47 148.627 45.47C147.913 45.47 147.367 45.778 147.003 46.128V51H145.855V44.56L147.003 44.378C147.003 44.378 147.003 45.19 147.003 45.26C147.619 44.672 148.291 44.378 149.061 44.378C149.803 44.378 150.419 44.728 150.741 45.442C151.427 44.756 152.183 44.378 153.065 44.378C154.241 44.378 155.011 45.204 155.011 46.618V51ZM157.685 47.934V47.99C157.727 49.25 158.567 50.146 159.799 50.146C160.471 50.146 161.199 49.964 161.717 49.614L161.927 50.678C161.353 51.028 160.583 51.21 159.771 51.21C157.839 51.21 156.523 49.824 156.523 47.864C156.523 45.792 157.895 44.378 159.687 44.378C161.241 44.378 162.137 45.358 162.137 46.884C162.137 47.234 162.081 47.626 161.997 47.906C161.983 47.906 157.685 47.934 157.685 47.934ZM157.741 47.094L161.031 47.066V46.968C161.031 46.016 160.583 45.386 159.575 45.386C158.483 45.386 157.839 46.254 157.741 47.094ZM168.976 51H167.828V46.968C167.828 45.862 167.408 45.484 166.498 45.484C165.826 45.484 165.182 45.834 164.818 46.184V51H163.67V44.56L164.818 44.378V45.344C165.406 44.756 166.162 44.378 166.904 44.378C168.206 44.378 168.976 45.204 168.976 46.59V51ZM174.276 50.93C173.8 51.112 173.31 51.21 172.834 51.21C171.588 51.21 170.93 50.608 170.972 49.208L171.07 45.624L170.006 45.554L170.048 44.826L171.112 44.504L171.14 43.118H172.246L172.204 44.588H174.206L174.164 45.624H172.162L172.064 49.25C172.05 49.852 172.33 50.16 172.904 50.16C173.296 50.16 173.688 50.062 174.066 49.922C174.08 49.922 174.276 50.93 174.276 50.93ZM182.122 49.544V47.808C180.218 48.06 179.518 48.452 179.518 49.236C179.518 49.81 179.952 50.23 180.652 50.23C181.24 50.23 181.758 49.936 182.122 49.544ZM182.164 50.314H182.108C181.618 50.888 181.03 51.21 180.344 51.21C179.14 51.21 178.3 50.412 178.3 49.376C178.3 48.228 179.126 47.22 182.122 47.08V46.898C182.122 45.862 181.716 45.442 180.68 45.442C180.022 45.442 179.21 45.75 178.608 46.156L178.384 45.12C178.944 44.728 179.882 44.378 180.792 44.378C182.528 44.378 183.298 45.12 183.27 46.87V49.558C183.27 50.09 183.34 50.188 183.9 50.188L183.83 51.154C182.794 51.238 182.332 50.874 182.164 50.314ZM185.092 44.588H186.24V48.62C186.24 49.726 186.66 50.104 187.5 50.104C188.242 50.104 188.886 49.754 189.25 49.404V44.588H190.398V51.028L189.25 51.21C189.25 51.21 189.25 50.342 189.25 50.272C188.662 50.86 187.906 51.21 187.094 51.21C185.862 51.21 185.092 50.384 185.092 48.998V44.588ZM197.169 51H195.881L194.285 48.494L192.717 51H191.401L193.599 47.724L191.527 44.588H192.815L194.285 46.898L195.685 44.588H197.001L194.971 47.696L197.169 51ZM202.105 47.934V47.99C202.147 49.25 202.987 50.146 204.219 50.146C204.891 50.146 205.619 49.964 206.137 49.614L206.347 50.678C205.773 51.028 205.003 51.21 204.191 51.21C202.259 51.21 200.943 49.824 200.943 47.864C200.943 45.792 202.315 44.378 204.107 44.378C205.661 44.378 206.557 45.358 206.557 46.884C206.557 47.234 206.501 47.626 206.417 47.906C206.403 47.906 202.105 47.934 202.105 47.934ZM202.161 47.094L205.451 47.066V46.968C205.451 46.016 205.003 45.386 203.995 45.386C202.903 45.386 202.259 46.254 202.161 47.094ZM213.396 51H212.248V46.968C212.248 45.862 211.828 45.484 210.918 45.484C210.246 45.484 209.602 45.834 209.238 46.184V51H208.09V44.56L209.238 44.378V45.344C209.826 44.756 210.582 44.378 211.324 44.378C212.626 44.378 213.396 45.204 213.396 46.59V51ZM218.962 41.564C218.962 41.592 218.682 42.642 218.682 42.614C218.388 42.488 217.982 42.334 217.66 42.334C217.016 42.334 216.708 42.726 216.708 43.692V44.588H218.738L218.696 45.624H216.708V51H215.56V45.638L214.44 45.554L214.496 44.826L215.546 44.518L215.56 43.706C215.588 41.914 216.414 41.256 217.674 41.256C218.15 41.256 218.654 41.424 218.962 41.564ZM223.042 49.544V47.808C221.138 48.06 220.438 48.452 220.438 49.236C220.438 49.81 220.872 50.23 221.572 50.23C222.16 50.23 222.678 49.936 223.042 49.544ZM223.084 50.314H223.028C222.538 50.888 221.95 51.21 221.264 51.21C220.06 51.21 219.22 50.412 219.22 49.376C219.22 48.228 220.046 47.22 223.042 47.08V46.898C223.042 45.862 222.636 45.442 221.6 45.442C220.942 45.442 220.13 45.75 219.528 46.156L219.304 45.12C219.864 44.728 220.802 44.378 221.712 44.378C223.448 44.378 224.218 45.12 224.19 46.87V49.558C224.19 50.09 224.26 50.188 224.82 50.188L224.75 51.154C223.714 51.238 223.252 50.874 223.084 50.314ZM231.374 51H230.226V46.968C230.226 45.862 229.806 45.484 228.896 45.484C228.224 45.484 227.58 45.834 227.216 46.184V51H226.068V44.56L227.216 44.378V45.344C227.804 44.756 228.56 44.378 229.302 44.378C230.604 44.378 231.374 45.204 231.374 46.59V51ZM236.675 50.93C236.199 51.112 235.709 51.21 235.233 51.21C233.987 51.21 233.329 50.608 233.371 49.208L233.469 45.624L232.405 45.554L232.447 44.826L233.511 44.504L233.539 43.118H234.645L234.603 44.588H236.605L236.563 45.624H234.561L234.463 49.25C234.449 49.852 234.729 50.16 235.303 50.16C235.695 50.16 236.087 50.062 236.465 49.922C236.479 49.922 236.675 50.93 236.675 50.93ZM242.147 49.18C242.147 50.398 241.125 51.224 239.725 51.224C238.941 51.224 238.073 50.986 237.485 50.622L237.779 49.572C238.311 49.936 239.095 50.174 239.753 50.174C240.481 50.174 241.027 49.838 241.027 49.264C241.027 48.62 240.271 48.41 239.515 48.2C238.605 47.948 237.611 47.5 237.611 46.324C237.611 45.134 238.619 44.378 239.907 44.378C240.649 44.378 241.391 44.56 241.979 44.854L241.685 45.904C241.153 45.61 240.383 45.428 239.851 45.428C239.165 45.428 238.717 45.708 238.717 46.226C238.717 46.842 239.403 47.052 240.201 47.262C241.139 47.514 242.147 47.962 242.147 49.18ZM256.005 51H254.857V46.996C254.857 45.876 254.451 45.47 253.625 45.47C252.911 45.47 252.365 45.848 252.001 46.198V46.59V51H250.853V46.996C250.853 45.876 250.447 45.47 249.621 45.47C248.907 45.47 248.361 45.778 247.997 46.128V51H246.849V44.56L247.997 44.378C247.997 44.378 247.997 45.19 247.997 45.26C248.613 44.672 249.285 44.378 250.055 44.378C250.797 44.378 251.413 44.728 251.735 45.442C252.421 44.756 253.177 44.378 254.059 44.378C255.235 44.378 256.005 45.204 256.005 46.618V51ZM261.227 49.544V47.808C259.323 48.06 258.623 48.452 258.623 49.236C258.623 49.81 259.057 50.23 259.757 50.23C260.345 50.23 260.863 49.936 261.227 49.544ZM261.269 50.314H261.213C260.723 50.888 260.135 51.21 259.449 51.21C258.245 51.21 257.405 50.412 257.405 49.376C257.405 48.228 258.231 47.22 261.227 47.08V46.898C261.227 45.862 260.821 45.442 259.785 45.442C259.127 45.442 258.315 45.75 257.713 46.156L257.489 45.12C258.049 44.728 258.987 44.378 259.897 44.378C261.633 44.378 262.403 45.12 262.375 46.87V49.558C262.375 50.09 262.445 50.188 263.005 50.188L262.935 51.154C261.899 51.238 261.437 50.874 261.269 50.314ZM265.584 42.348C265.584 42.782 265.346 43.174 264.828 43.174C264.31 43.174 264.072 42.782 264.072 42.348C264.072 41.914 264.31 41.522 264.828 41.522C265.346 41.522 265.584 41.914 265.584 42.348ZM265.402 51H264.254V44.56L265.402 44.378V51ZM271.487 49.18C271.487 50.398 270.465 51.224 269.065 51.224C268.281 51.224 267.413 50.986 266.825 50.622L267.119 49.572C267.651 49.936 268.435 50.174 269.093 50.174C269.821 50.174 270.367 49.838 270.367 49.264C270.367 48.62 269.611 48.41 268.855 48.2C267.945 47.948 266.951 47.5 266.951 46.324C266.951 45.134 267.959 44.378 269.247 44.378C269.989 44.378 270.731 44.56 271.319 44.854L271.025 45.904C270.493 45.61 269.723 45.428 269.191 45.428C268.505 45.428 268.057 45.708 268.057 46.226C268.057 46.842 268.743 47.052 269.541 47.262C270.479 47.514 271.487 47.962 271.487 49.18ZM23.222 60.588V57.564L24.37 57.382V67H23.222C23.222 67 23.222 66.482 23.222 66.412C22.76 66.846 22.186 67.21 21.43 67.21C19.624 67.21 18.574 65.754 18.574 63.822C18.574 61.876 19.918 60.378 21.836 60.378C22.298 60.378 22.816 60.462 23.222 60.588ZM23.222 61.876C22.844 61.568 22.354 61.414 21.794 61.414C20.492 61.414 19.764 62.478 19.764 63.794C19.764 65.208 20.478 66.146 21.668 66.146C22.27 66.146 22.788 65.908 23.222 65.53C23.222 65.6 23.222 61.876 23.222 61.876ZM27.1051 63.934V63.99C27.1471 65.25 27.9871 66.146 29.2191 66.146C29.8911 66.146 30.6191 65.964 31.1371 65.614L31.3471 66.678C30.7731 67.028 30.0031 67.21 29.1911 67.21C27.2591 67.21 25.9431 65.824 25.9431 63.864C25.9431 61.792 27.3151 60.378 29.1071 60.378C30.6611 60.378 31.5571 61.358 31.5571 62.884C31.5571 63.234 31.5011 63.626 31.4171 63.906C31.4031 63.906 27.1051 63.934 27.1051 63.934ZM27.1611 63.094L30.4511 63.066V62.968C30.4511 62.016 30.0031 61.386 28.9951 61.386C27.9031 61.386 27.2591 62.254 27.1611 63.094ZM31.1791 57.186L29.1351 59.72H28.2951L29.7791 57.186H31.1791ZM37.1917 65.18C37.1917 66.398 36.1697 67.224 34.7697 67.224C33.9857 67.224 33.1177 66.986 32.5297 66.622L32.8237 65.572C33.3557 65.936 34.1397 66.174 34.7977 66.174C35.5257 66.174 36.0717 65.838 36.0717 65.264C36.0717 64.62 35.3157 64.41 34.5597 64.2C33.6497 63.948 32.6557 63.5 32.6557 62.324C32.6557 61.134 33.6637 60.378 34.9517 60.378C35.6937 60.378 36.4357 60.56 37.0237 60.854L36.7297 61.904C36.1977 61.61 35.4277 61.428 34.8957 61.428C34.2097 61.428 33.7617 61.708 33.7617 62.226C33.7617 62.842 34.4477 63.052 35.2457 63.262C36.1837 63.514 37.1917 63.962 37.1917 65.18ZM40.0388 58.348C40.0388 58.782 39.8008 59.174 39.2828 59.174C38.7648 59.174 38.5268 58.782 38.5268 58.348C38.5268 57.914 38.7648 57.522 39.2828 57.522C39.8008 57.522 40.0388 57.914 40.0388 58.348ZM39.8568 67H38.7088V60.56L39.8568 60.378V67ZM42.6237 62.814C42.6237 63.668 43.1977 64.242 44.1217 64.242C44.9617 64.242 45.4937 63.64 45.4937 62.744C45.4937 61.904 45.0037 61.302 44.0237 61.302C43.1837 61.302 42.6237 61.918 42.6237 62.814ZM43.1837 67.308C42.5397 67.49 42.0777 67.868 42.0777 68.344C42.0777 69.03 42.8897 69.534 44.1077 69.534C45.3117 69.534 46.2637 69.016 46.2637 68.232C46.2637 67.532 45.6337 67.364 44.3457 67.364C43.9397 67.364 43.4637 67.336 43.1837 67.308ZM42.3157 67.098C41.7697 66.86 41.4757 66.468 41.4757 66.02C41.4757 65.488 41.8957 64.998 42.5397 64.774C41.8677 64.382 41.4757 63.682 41.4757 62.8C41.4757 61.54 42.4137 60.378 44.0797 60.378C44.7657 60.378 45.3257 60.56 45.7317 60.742L47.3837 60.588L47.4257 61.722L46.1937 61.498C46.4457 61.736 46.6277 62.338 46.6277 62.814C46.6277 64.102 45.5637 65.166 44.0657 65.166C43.7437 65.166 43.5477 65.124 43.1697 65.012C42.9037 65.11 42.5397 65.362 42.5397 65.684C42.5397 66.062 42.7917 66.286 43.9957 66.286C43.9957 66.286 44.7237 66.286 44.5837 66.286C46.5017 66.286 47.3837 66.874 47.3837 68.008C47.3837 69.422 45.8577 70.472 43.9257 70.472C42.2317 70.472 40.9437 69.744 40.9437 68.596C40.9437 67.868 41.4337 67.266 42.3157 67.098ZM53.8039 67H52.6559V62.968C52.6559 61.862 52.2359 61.484 51.3259 61.484C50.6539 61.484 50.0099 61.834 49.6459 62.184V67H48.4979V60.56L49.6459 60.378V61.344C50.2339 60.756 50.9899 60.378 51.7319 60.378C53.0339 60.378 53.8039 61.204 53.8039 62.59V67ZM56.4723 63.934V63.99C56.5143 65.25 57.3543 66.146 58.5863 66.146C59.2583 66.146 59.9863 65.964 60.5043 65.614L60.7143 66.678C60.1403 67.028 59.3703 67.21 58.5583 67.21C56.6263 67.21 55.3103 65.824 55.3103 63.864C55.3103 61.792 56.6823 60.378 58.4743 60.378C60.0283 60.378 60.9243 61.358 60.9243 62.884C60.9243 63.234 60.8683 63.626 60.7843 63.906C60.7703 63.906 56.4723 63.934 56.4723 63.934ZM56.5283 63.094L59.8183 63.066V62.968C59.8183 62.016 59.3703 61.386 58.3623 61.386C57.2703 61.386 56.6263 62.254 56.5283 63.094ZM68.9324 65.544V63.808C67.0284 64.06 66.3284 64.452 66.3284 65.236C66.3284 65.81 66.7624 66.23 67.4624 66.23C68.0504 66.23 68.5684 65.936 68.9324 65.544ZM68.9744 66.314H68.9184C68.4284 66.888 67.8404 67.21 67.1544 67.21C65.9504 67.21 65.1104 66.412 65.1104 65.376C65.1104 64.228 65.9364 63.22 68.9324 63.08V62.898C68.9324 61.862 68.5264 61.442 67.4904 61.442C66.8324 61.442 66.0204 61.75 65.4184 62.156L65.1944 61.12C65.7544 60.728 66.6924 60.378 67.6024 60.378C69.3384 60.378 70.1084 61.12 70.0804 62.87V65.558C70.0804 66.09 70.1504 66.188 70.7104 66.188L70.6404 67.154C69.6044 67.238 69.1424 66.874 68.9744 66.314ZM71.9028 60.588H73.0508V64.62C73.0508 65.726 73.4708 66.104 74.3108 66.104C75.0528 66.104 75.6968 65.754 76.0608 65.404V60.588H77.2088V67.028L76.0608 67.21C76.0608 67.21 76.0608 66.342 76.0608 66.272C75.4728 66.86 74.7168 67.21 73.9048 67.21C72.6728 67.21 71.9028 66.384 71.9028 64.998V60.588ZM83.2933 65.18C83.2933 66.398 82.2713 67.224 80.8713 67.224C80.0873 67.224 79.2193 66.986 78.6313 66.622L78.9253 65.572C79.4573 65.936 80.2413 66.174 80.8993 66.174C81.6273 66.174 82.1733 65.838 82.1733 65.264C82.1733 64.62 81.4173 64.41 80.6613 64.2C79.7513 63.948 78.7573 63.5 78.7573 62.324C78.7573 61.134 79.7653 60.378 81.0533 60.378C81.7953 60.378 82.5373 60.56 83.1253 60.854L82.8313 61.904C82.2993 61.61 81.5293 61.428 80.9973 61.428C80.3113 61.428 79.8633 61.708 79.8633 62.226C79.8633 62.842 80.5493 63.052 81.3473 63.262C82.2853 63.514 83.2933 63.962 83.2933 65.18ZM88.9808 65.18C88.9808 66.398 87.9588 67.224 86.5588 67.224C85.7748 67.224 84.9068 66.986 84.3188 66.622L84.6128 65.572C85.1448 65.936 85.9288 66.174 86.5868 66.174C87.3148 66.174 87.8608 65.838 87.8608 65.264C87.8608 64.62 87.1048 64.41 86.3488 64.2C85.4388 63.948 84.4448 63.5 84.4448 62.324C84.4448 61.134 85.4528 60.378 86.7408 60.378C87.4828 60.378 88.2248 60.56 88.8128 60.854L88.5188 61.904C87.9868 61.61 87.2168 61.428 86.6848 61.428C85.9988 61.428 85.5508 61.708 85.5508 62.226C85.5508 62.842 86.2368 63.052 87.0348 63.262C87.9728 63.514 88.9808 63.962 88.9808 65.18ZM91.8279 58.348C91.8279 58.782 91.5899 59.174 91.0719 59.174C90.5539 59.174 90.3159 58.782 90.3159 58.348C90.3159 57.914 90.5539 57.522 91.0719 57.522C91.5899 57.522 91.8279 57.914 91.8279 58.348ZM91.6459 67H90.4979V60.56L91.6459 60.378V67ZM97.9623 67H96.8143V57.564L97.9623 57.382V67ZM100.687 63.934V63.99C100.729 65.25 101.569 66.146 102.801 66.146C103.473 66.146 104.201 65.964 104.719 65.614L104.929 66.678C104.355 67.028 103.585 67.21 102.773 67.21C100.841 67.21 99.5252 65.824 99.5252 63.864C99.5252 61.792 100.897 60.378 102.689 60.378C104.243 60.378 105.139 61.358 105.139 62.884C105.139 63.234 105.083 63.626 104.999 63.906C104.985 63.906 100.687 63.934 100.687 63.934ZM100.743 63.094L104.033 63.066V62.968C104.033 62.016 103.585 61.386 102.577 61.386C101.485 61.386 100.841 62.254 100.743 63.094ZM110.774 65.18C110.774 66.398 109.752 67.224 108.352 67.224C107.568 67.224 106.7 66.986 106.112 66.622L106.406 65.572C106.938 65.936 107.722 66.174 108.38 66.174C109.108 66.174 109.654 65.838 109.654 65.264C109.654 64.62 108.898 64.41 108.142 64.2C107.232 63.948 106.238 63.5 106.238 62.324C106.238 61.134 107.246 60.378 108.534 60.378C109.276 60.378 110.018 60.56 110.606 60.854L110.312 61.904C109.78 61.61 109.01 61.428 108.478 61.428C107.792 61.428 107.344 61.708 107.344 62.226C107.344 62.842 108.03 63.052 108.828 63.262C109.766 63.514 110.774 63.962 110.774 65.18ZM120.782 67H119.634V62.968C119.634 61.862 119.214 61.484 118.374 61.484C117.632 61.484 116.988 61.834 116.624 62.184V67H115.476V57.564L116.624 57.382C116.624 57.382 116.624 61.246 116.624 61.316C117.212 60.728 117.968 60.378 118.78 60.378C120.012 60.378 120.782 61.204 120.782 62.59V67ZM125.999 65.544V63.808C124.095 64.06 123.395 64.452 123.395 65.236C123.395 65.81 123.829 66.23 124.529 66.23C125.117 66.23 125.635 65.936 125.999 65.544ZM126.041 66.314H125.985C125.495 66.888 124.907 67.21 124.221 67.21C123.017 67.21 122.177 66.412 122.177 65.376C122.177 64.228 123.003 63.22 125.999 63.08V62.898C125.999 61.862 125.593 61.442 124.557 61.442C123.899 61.442 123.087 61.75 122.485 62.156L122.261 61.12C122.821 60.728 123.759 60.378 124.669 60.378C126.405 60.378 127.175 61.12 127.147 62.87V65.558C127.147 66.09 127.217 66.188 127.777 66.188L127.707 67.154C126.671 67.238 126.209 66.874 126.041 66.314ZM134.821 63.766C134.821 65.712 133.477 67.21 131.559 67.21C131.181 67.21 130.579 67.126 130.173 67L129.025 67.21V57.564L130.173 57.382C130.173 57.382 130.173 61.106 130.173 61.176C130.635 60.742 131.209 60.378 131.965 60.378C133.771 60.378 134.821 61.834 134.821 63.766ZM133.631 63.794C133.631 62.38 132.917 61.442 131.727 61.442C131.125 61.442 130.607 61.68 130.173 62.058C130.173 61.988 130.173 65.712 130.173 65.712C130.551 66.02 131.041 66.174 131.601 66.174C132.903 66.174 133.631 65.11 133.631 63.794ZM137.683 58.348C137.683 58.782 137.445 59.174 136.927 59.174C136.409 59.174 136.171 58.782 136.171 58.348C136.171 57.914 136.409 57.522 136.927 57.522C137.445 57.522 137.683 57.914 137.683 58.348ZM137.501 67H136.353V60.56L137.501 60.378V67ZM142.858 66.93C142.382 67.112 141.892 67.21 141.416 67.21C140.17 67.21 139.512 66.608 139.554 65.208L139.652 61.624L138.588 61.554L138.63 60.826L139.694 60.504L139.722 59.118H140.828L140.786 60.588H142.788L142.746 61.624H140.744L140.646 65.25C140.632 65.852 140.912 66.16 141.486 66.16C141.878 66.16 142.27 66.062 142.648 65.922C142.662 65.922 142.858 66.93 142.858 66.93ZM147.518 65.544V63.808C145.614 64.06 144.914 64.452 144.914 65.236C144.914 65.81 145.348 66.23 146.048 66.23C146.636 66.23 147.154 65.936 147.518 65.544ZM147.56 66.314H147.504C147.014 66.888 146.426 67.21 145.74 67.21C144.536 67.21 143.696 66.412 143.696 65.376C143.696 64.228 144.522 63.22 147.518 63.08V62.898C147.518 61.862 147.112 61.442 146.076 61.442C145.418 61.442 144.606 61.75 144.004 62.156L143.78 61.12C144.34 60.728 145.278 60.378 146.188 60.378C147.924 60.378 148.694 61.12 148.666 62.87V65.558C148.666 66.09 148.736 66.188 149.296 66.188L149.226 67.154C148.19 67.238 147.728 66.874 147.56 66.314ZM155.851 67H154.703V62.968C154.703 61.862 154.283 61.484 153.373 61.484C152.701 61.484 152.057 61.834 151.693 62.184V67H150.545V60.56L151.693 60.378V61.344C152.281 60.756 153.037 60.378 153.779 60.378C155.081 60.378 155.851 61.204 155.851 62.59V67ZM161.151 66.93C160.675 67.112 160.185 67.21 159.709 67.21C158.463 67.21 157.805 66.608 157.847 65.208L157.945 61.624L156.881 61.554L156.923 60.826L157.987 60.504L158.015 59.118H159.121L159.079 60.588H161.081L161.039 61.624H159.037L158.939 65.25C158.925 65.852 159.205 66.16 159.779 66.16C160.171 66.16 160.563 66.062 160.941 65.922C160.955 65.922 161.151 66.93 161.151 66.93ZM166.623 65.18C166.623 66.398 165.601 67.224 164.201 67.224C163.417 67.224 162.549 66.986 161.961 66.622L162.255 65.572C162.787 65.936 163.571 66.174 164.229 66.174C164.957 66.174 165.503 65.838 165.503 65.264C165.503 64.62 164.747 64.41 163.991 64.2C163.081 63.948 162.087 63.5 162.087 62.324C162.087 61.134 163.095 60.378 164.383 60.378C165.125 60.378 165.867 60.56 166.455 60.854L166.161 61.904C165.629 61.61 164.859 61.428 164.327 61.428C163.641 61.428 163.193 61.708 163.193 62.226C163.193 62.842 163.879 63.052 164.677 63.262C165.615 63.514 166.623 63.962 166.623 65.18ZM175.554 60.588V57.564L176.702 57.382V67H175.554C175.554 67 175.554 66.482 175.554 66.412C175.092 66.846 174.518 67.21 173.762 67.21C171.956 67.21 170.906 65.754 170.906 63.822C170.906 61.876 172.25 60.378 174.168 60.378C174.63 60.378 175.148 60.462 175.554 60.588ZM175.554 61.876C175.176 61.568 174.686 61.414 174.126 61.414C172.824 61.414 172.096 62.478 172.096 63.794C172.096 65.208 172.81 66.146 174 66.146C174.602 66.146 175.12 65.908 175.554 65.53C175.554 65.6 175.554 61.876 175.554 61.876ZM179.437 63.934V63.99C179.479 65.25 180.319 66.146 181.551 66.146C182.223 66.146 182.951 65.964 183.469 65.614L183.679 66.678C183.105 67.028 182.335 67.21 181.523 67.21C179.591 67.21 178.275 65.824 178.275 63.864C178.275 61.792 179.647 60.378 181.439 60.378C182.993 60.378 183.889 61.358 183.889 62.884C183.889 63.234 183.833 63.626 183.749 63.906C183.735 63.906 179.437 63.934 179.437 63.934ZM179.493 63.094L182.783 63.066V62.968C182.783 62.016 182.335 61.386 181.327 61.386C180.235 61.386 179.591 62.254 179.493 63.094ZM194.137 67H188.719V58.25H189.909V65.88H194.137V67ZM200.404 60.588L197.842 67.07L197.408 68.218C196.792 69.842 196.148 70.332 195.154 70.332C194.664 70.332 194.23 70.192 193.796 69.996L194.132 68.932C194.468 69.1 194.832 69.24 195.154 69.24C195.644 69.24 195.952 68.974 196.386 67.854L196.778 66.86L194.286 60.588H195.518L197.38 65.572L199.186 60.588H200.404ZM207.187 63.794C207.187 65.852 205.843 67.21 204.037 67.21C202.217 67.21 200.943 65.866 200.943 63.794C200.943 61.736 202.259 60.364 204.107 60.364C205.941 60.364 207.187 61.722 207.187 63.794ZM206.053 63.808C206.053 62.436 205.311 61.4 204.051 61.4C202.777 61.4 202.077 62.394 202.077 63.78C202.077 65.152 202.819 66.174 204.079 66.174C205.353 66.174 206.053 65.194 206.053 63.808ZM214.066 67H212.918V62.968C212.918 61.862 212.498 61.484 211.588 61.484C210.916 61.484 210.272 61.834 209.908 62.184V67H208.76V60.56L209.908 60.378V61.344C210.496 60.756 211.252 60.378 211.994 60.378C213.296 60.378 214.066 61.204 214.066 62.59V67ZM217.448 66.3C217.448 66.776 217.084 67.21 216.566 67.21C216.034 67.21 215.656 66.776 215.656 66.3C215.656 65.824 216.034 65.418 216.566 65.418C217.084 65.418 217.448 65.824 217.448 66.3Z" fill="#242424"/>
</g>
<defs>
<filter id="filter0_d_1792_14791" x="0" y="0" width="336" height="81" filterUnits="userSpaceOnUse" color-interpolation-filters="sRGB">
<feFlood flood-opacity="0" result="BackgroundImageFix"/>
<feColorMatrix in="SourceAlpha" type="matrix" values="0 0 0 0 0 0 0 0 0 0 0 0 0 0 0 0 0 0 127 0" result="hardAlpha"/>
<feOffset dx="1" dy="2"/>
<feComposite in2="hardAlpha" operator="out"/>
<feColorMatrix type="matrix" values="0 0 0 0 1 0 0 0 0 0.846528 0 0 0 0 0.291667 0 0 0 1 0"/>
<feBlend mode="normal" in2="BackgroundImageFix" result="effect1_dropShadow_1792_14791"/>
<feBlend mode="normal" in="SourceGraphic" in2="effect1_dropShadow_1792_14791" result="shape"/>
</filter>
</defs>
</svg>
