<svg width="336" height="81" viewBox="0 0 336 81" fill="none" xmlns="http://www.w3.org/2000/svg">
<g filter="url(#filter0_d_1792_14799)">
<rect width="335" height="79" rx="7" fill="#FEFDFB"/>
<path d="M26.162 14.698L25.49 16.56C24.832 16.168 24.062 15.93 23.278 15.93C21.766 15.93 20.786 16.952 20.786 18.604C20.786 20.27 21.71 21.32 23.292 21.32C24.146 21.32 24.944 21.04 25.602 20.606L26.064 22.58C25.378 22.958 24.216 23.21 23.194 23.21C20.394 23.21 18.546 21.6 18.546 18.66C18.546 15.832 20.38 14.04 23.264 14.04C24.328 14.04 25.364 14.306 26.162 14.698ZM33.7679 23H31.6119V19.15C31.6119 18.366 31.2619 18.114 30.7159 18.114C30.2119 18.114 29.7919 18.352 29.5119 18.604V23H27.3559V13.746L29.5119 13.48C29.5119 13.48 29.5119 17.274 29.5119 17.386C30.0859 16.728 30.8559 16.28 31.7099 16.28C32.9979 16.28 33.7679 17.134 33.7679 18.52V23ZM37.036 20.228V20.256C37.106 21.124 37.708 21.628 38.758 21.628C39.472 21.628 40.228 21.376 40.886 20.998L41.096 22.664C40.438 23 39.5 23.196 38.562 23.196C36.35 23.196 34.922 21.964 34.922 19.794C34.922 17.666 36.378 16.28 38.45 16.28C40.298 16.28 41.306 17.386 41.306 19.01C41.306 19.36 41.25 19.878 41.166 20.158L37.036 20.228ZM37.05 19.15L39.304 19.136C39.304 19.108 39.304 19.038 39.304 19.01C39.304 18.24 38.982 17.764 38.31 17.764C37.568 17.764 37.12 18.408 37.05 19.15ZM44.674 19.206V23H42.518V16.602L44.674 16.336V17.288C45.052 16.63 45.556 16.28 46.242 16.28C46.592 16.28 46.97 16.364 47.32 16.546L46.886 18.45C46.634 18.324 46.354 18.254 46.074 18.254C45.542 18.254 45.066 18.52 44.674 19.206Z" fill="#242424"/>
<path d="M24.79 47.766C24.79 49.712 23.446 51.21 21.528 51.21C21.15 51.21 20.548 51.126 20.142 51L18.994 51.21V41.564L20.142 41.382C20.142 41.382 20.142 45.106 20.142 45.176C20.604 44.742 21.178 44.378 21.934 44.378C23.74 44.378 24.79 45.834 24.79 47.766ZM23.6 47.794C23.6 46.38 22.886 45.442 21.696 45.442C21.094 45.442 20.576 45.68 20.142 46.058C20.142 45.988 20.142 49.712 20.142 49.712C20.52 50.02 21.01 50.174 21.57 50.174C22.872 50.174 23.6 49.11 23.6 47.794ZM27.0641 47.934V47.99C27.1061 49.25 27.9461 50.146 29.1781 50.146C29.8501 50.146 30.5781 49.964 31.0961 49.614L31.3061 50.678C30.7321 51.028 29.9621 51.21 29.1501 51.21C27.2181 51.21 25.9021 49.824 25.9021 47.864C25.9021 45.792 27.2741 44.378 29.0661 44.378C30.6201 44.378 31.5161 45.358 31.5161 46.884C31.5161 47.234 31.4601 47.626 31.3761 47.906C31.3621 47.906 27.0641 47.934 27.0641 47.934ZM27.1201 47.094L30.4101 47.066V46.968C30.4101 46.016 29.9621 45.386 28.9541 45.386C27.8621 45.386 27.2181 46.254 27.1201 47.094ZM36.3387 49.544V47.808C34.4347 48.06 33.7347 48.452 33.7347 49.236C33.7347 49.81 34.1687 50.23 34.8687 50.23C35.4567 50.23 35.9747 49.936 36.3387 49.544ZM36.3807 50.314H36.3247C35.8347 50.888 35.2467 51.21 34.5607 51.21C33.3567 51.21 32.5167 50.412 32.5167 49.376C32.5167 48.228 33.3427 47.22 36.3387 47.08V46.898C36.3387 45.862 35.9327 45.442 34.8967 45.442C34.2387 45.442 33.4267 45.75 32.8247 46.156L32.6007 45.12C33.1607 44.728 34.0987 44.378 35.0087 44.378C36.7447 44.378 37.5147 45.12 37.4867 46.87V49.558C37.4867 50.09 37.5567 50.188 38.1167 50.188L38.0467 51.154C37.0107 51.238 36.5487 50.874 36.3807 50.314ZM39.3091 44.588H40.4571V48.62C40.4571 49.726 40.8771 50.104 41.7171 50.104C42.4591 50.104 43.1031 49.754 43.4671 49.404V44.588H44.6151V51.028L43.4671 51.21C43.4671 51.21 43.4671 50.342 43.4671 50.272C42.8791 50.86 42.1231 51.21 41.3111 51.21C40.0791 51.21 39.3091 50.384 39.3091 48.998V44.588ZM51.4415 50.678C50.8675 51.028 50.1395 51.21 49.3275 51.21C47.2975 51.21 46.1775 49.824 46.1775 47.794C46.1775 45.75 47.5355 44.378 49.4115 44.378C50.2375 44.378 50.8955 44.56 51.4835 44.924L51.1895 45.974C50.6575 45.61 50.0555 45.442 49.4115 45.442C48.0955 45.442 47.3675 46.338 47.3675 47.78C47.3675 49.264 48.1795 50.146 49.3835 50.146C50.0555 50.146 50.7135 49.964 51.2315 49.614L51.4415 50.678ZM58.7379 47.794C58.7379 49.852 57.3939 51.21 55.5879 51.21C53.7679 51.21 52.4939 49.866 52.4939 47.794C52.4939 45.736 53.8099 44.364 55.6579 44.364C57.4919 44.364 58.7379 45.722 58.7379 47.794ZM57.6039 47.808C57.6039 46.436 56.8619 45.4 55.6019 45.4C54.3279 45.4 53.6279 46.394 53.6279 47.78C53.6279 49.152 54.3699 50.174 55.6299 50.174C56.9039 50.174 57.6039 49.194 57.6039 47.808ZM60.2544 44.588H61.4024V48.62C61.4024 49.726 61.8224 50.104 62.6624 50.104C63.4044 50.104 64.0484 49.754 64.4124 49.404V44.588H65.5604V51.028L64.4124 51.21C64.4124 51.21 64.4124 50.342 64.4124 50.272C63.8244 50.86 63.0684 51.21 62.2564 51.21C61.0244 51.21 60.2544 50.384 60.2544 48.998V44.588ZM68.6908 45.176C69.1528 44.742 69.7268 44.378 70.4828 44.378C72.2888 44.378 73.3388 45.834 73.3388 47.766C73.3388 49.712 71.9948 51.21 70.0768 51.21C69.6988 51.21 69.0968 51.154 68.6908 51.042V54.262H67.5428V44.56L68.6908 44.378C68.6908 44.378 68.6908 45.106 68.6908 45.176ZM68.6908 46.058C68.6908 45.988 68.6908 49.712 68.6908 49.712C69.0688 50.02 69.5588 50.174 70.1188 50.174C71.4208 50.174 72.1488 49.11 72.1488 47.794C72.1488 46.38 71.4348 45.442 70.2448 45.442C69.6428 45.442 69.1248 45.68 68.6908 46.058ZM76.0945 50.3C76.0945 50.776 75.7305 51.21 75.2125 51.21C74.6805 51.21 74.3025 50.776 74.3025 50.3C74.3025 49.824 74.6805 49.418 75.2125 49.418C75.7305 49.418 76.0945 49.824 76.0945 50.3ZM82.4123 45.428H81.9363L83.5463 41.97L84.5963 42.474L82.4123 45.428ZM80.3123 45.428H79.8362L81.4463 41.97L82.4963 42.474L80.3123 45.428ZM91.5782 42.25L88.5402 47.528V51H87.3502V47.514L84.2982 42.25H85.6422L87.9662 46.338L90.2622 42.25H91.5782ZM92.2928 42.488C92.3488 42.04 92.6568 41.662 93.2448 41.662C93.8188 41.662 94.4348 42.194 94.4348 42.936C94.4348 44.098 93.3988 44.98 92.3628 45.666L91.8728 45.19C92.8388 44.49 93.3008 43.902 93.3008 43.412C93.3008 43.062 93.0488 42.838 92.2928 42.488ZM98.6551 49.544V47.808C96.7511 48.06 96.0511 48.452 96.0511 49.236C96.0511 49.81 96.4851 50.23 97.1851 50.23C97.7731 50.23 98.2911 49.936 98.6551 49.544ZM98.6971 50.314H98.6411C98.1511 50.888 97.5631 51.21 96.8771 51.21C95.6731 51.21 94.8331 50.412 94.8331 49.376C94.8331 48.228 95.6591 47.22 98.6551 47.08V46.898C98.6551 45.862 98.2491 45.442 97.2131 45.442C96.5551 45.442 95.7431 45.75 95.1411 46.156L94.9171 45.12C95.4771 44.728 96.4151 44.378 97.3251 44.378C99.0611 44.378 99.8311 45.12 99.8031 46.87V49.558C99.8031 50.09 99.8731 50.188 100.433 50.188L100.363 51.154C99.3271 51.238 98.8651 50.874 98.6971 50.314ZM106.834 44.588L104.314 51.014H103.25L100.716 44.588H101.948L103.824 49.572L105.616 44.588H106.834ZM111.151 49.544V47.808C109.247 48.06 108.547 48.452 108.547 49.236C108.547 49.81 108.981 50.23 109.681 50.23C110.269 50.23 110.787 49.936 111.151 49.544ZM111.193 50.314H111.137C110.647 50.888 110.059 51.21 109.373 51.21C108.169 51.21 107.329 50.412 107.329 49.376C107.329 48.228 108.155 47.22 111.151 47.08V46.898C111.151 45.862 110.745 45.442 109.709 45.442C109.051 45.442 108.239 45.75 107.637 46.156L107.413 45.12C107.973 44.728 108.911 44.378 109.821 44.378C111.557 44.378 112.327 45.12 112.299 46.87V49.558C112.299 50.09 112.369 50.188 112.929 50.188L112.859 51.154C111.823 51.238 111.361 50.874 111.193 50.314ZM115.508 42.348C115.508 42.782 115.27 43.174 114.752 43.174C114.234 43.174 113.996 42.782 113.996 42.348C113.996 41.914 114.234 41.522 114.752 41.522C115.27 41.522 115.508 41.914 115.508 42.348ZM115.326 51H114.178V44.56L115.326 44.378V51ZM120.682 50.93C120.206 51.112 119.716 51.21 119.24 51.21C117.994 51.21 117.336 50.608 117.378 49.208L117.476 45.624L116.412 45.554L116.454 44.826L117.518 44.504L117.546 43.118H118.652L118.61 44.588H120.612L120.57 45.624H118.568L118.47 49.25C118.456 49.852 118.736 50.16 119.31 50.16C119.702 50.16 120.094 50.062 120.472 49.922C120.486 49.922 120.682 50.93 120.682 50.93ZM130.082 50.678C129.508 51.028 128.78 51.21 127.968 51.21C125.938 51.21 124.818 49.824 124.818 47.794C124.818 45.75 126.176 44.378 128.052 44.378C128.878 44.378 129.536 44.56 130.124 44.924L129.83 45.974C129.298 45.61 128.696 45.442 128.052 45.442C126.736 45.442 126.008 46.338 126.008 47.78C126.008 49.264 126.82 50.146 128.024 50.146C128.696 50.146 129.354 49.964 129.872 49.614L130.082 50.678ZM136.929 51H135.781V46.968C135.781 45.862 135.361 45.484 134.521 45.484C133.779 45.484 133.135 45.834 132.771 46.184V51H131.623V41.564L132.771 41.382C132.771 41.382 132.771 45.246 132.771 45.316C133.359 44.728 134.115 44.378 134.927 44.378C136.159 44.378 136.929 45.204 136.929 46.59V51ZM139.597 47.934V47.99C139.639 49.25 140.479 50.146 141.711 50.146C142.383 50.146 143.111 49.964 143.629 49.614L143.839 50.678C143.265 51.028 142.495 51.21 141.683 51.21C139.751 51.21 138.435 49.824 138.435 47.864C138.435 45.792 139.807 44.378 141.599 44.378C143.153 44.378 144.049 45.358 144.049 46.884C144.049 47.234 143.993 47.626 143.909 47.906C143.895 47.906 139.597 47.934 139.597 47.934ZM139.653 47.094L142.943 47.066V46.968C142.943 46.016 142.495 45.386 141.487 45.386C140.395 45.386 139.751 46.254 139.653 47.094ZM146.73 46.814V51H145.582V44.56L146.73 44.378V45.512C147.178 44.798 147.71 44.378 148.522 44.378C148.956 44.378 149.39 44.49 149.726 44.7L149.432 45.778C149.082 45.568 148.732 45.484 148.41 45.484C147.794 45.484 147.206 45.932 146.73 46.814ZM158.327 44.588V41.564L159.475 41.382V51H158.327C158.327 51 158.327 50.482 158.327 50.412C157.865 50.846 157.291 51.21 156.535 51.21C154.729 51.21 153.679 49.754 153.679 47.822C153.679 45.876 155.023 44.378 156.941 44.378C157.403 44.378 157.921 44.462 158.327 44.588ZM158.327 45.876C157.949 45.568 157.459 45.414 156.899 45.414C155.597 45.414 154.869 46.478 154.869 47.794C154.869 49.208 155.583 50.146 156.773 50.146C157.375 50.146 157.893 49.908 158.327 49.53C158.327 49.6 158.327 45.876 158.327 45.876ZM161.413 44.588H162.561V48.62C162.561 49.726 162.981 50.104 163.821 50.104C164.563 50.104 165.207 49.754 165.571 49.404V44.588H166.719V51.028L165.571 51.21C165.571 51.21 165.571 50.342 165.571 50.272C164.983 50.86 164.227 51.21 163.415 51.21C162.183 51.21 161.413 50.384 161.413 48.998V44.588ZM181.043 51H179.895V46.996C179.895 45.876 179.489 45.47 178.663 45.47C177.949 45.47 177.403 45.848 177.039 46.198V46.59V51H175.891V46.996C175.891 45.876 175.485 45.47 174.659 45.47C173.945 45.47 173.399 45.778 173.035 46.128V51H171.887V44.56L173.035 44.378C173.035 44.378 173.035 45.19 173.035 45.26C173.651 44.672 174.323 44.378 175.093 44.378C175.835 44.378 176.451 44.728 176.773 45.442C177.459 44.756 178.215 44.378 179.097 44.378C180.273 44.378 181.043 45.204 181.043 46.618V51ZM188.798 47.794C188.798 49.852 187.454 51.21 185.648 51.21C183.828 51.21 182.554 49.866 182.554 47.794C182.554 45.736 183.87 44.364 185.718 44.364C187.552 44.364 188.798 45.722 188.798 47.794ZM187.664 47.808C187.664 46.436 186.922 45.4 185.662 45.4C184.388 45.4 183.688 46.394 183.688 47.78C183.688 49.152 184.43 50.174 185.69 50.174C186.964 50.174 187.664 49.194 187.664 47.808ZM195.677 51H194.529V46.968C194.529 45.862 194.109 45.484 193.199 45.484C192.527 45.484 191.883 45.834 191.519 46.184V51H190.371V44.56L191.519 44.378V45.344C192.107 44.756 192.863 44.378 193.605 44.378C194.907 44.378 195.677 45.204 195.677 46.59V51ZM201.831 44.588V41.564L202.979 41.382V51H201.831C201.831 51 201.831 50.482 201.831 50.412C201.369 50.846 200.795 51.21 200.039 51.21C198.233 51.21 197.183 49.754 197.183 47.822C197.183 45.876 198.527 44.378 200.445 44.378C200.907 44.378 201.425 44.462 201.831 44.588ZM201.831 45.876C201.453 45.568 200.963 45.414 200.403 45.414C199.101 45.414 198.373 46.478 198.373 47.794C198.373 49.208 199.087 50.146 200.277 50.146C200.879 50.146 201.397 49.908 201.831 49.53C201.831 49.6 201.831 45.876 201.831 45.876ZM205.715 47.934V47.99C205.757 49.25 206.597 50.146 207.829 50.146C208.501 50.146 209.229 49.964 209.747 49.614L209.957 50.678C209.383 51.028 208.613 51.21 207.801 51.21C205.869 51.21 204.553 49.824 204.553 47.864C204.553 45.792 205.925 44.378 207.717 44.378C209.271 44.378 210.167 45.358 210.167 46.884C210.167 47.234 210.111 47.626 210.027 47.906C210.013 47.906 205.715 47.934 205.715 47.934ZM205.771 47.094L209.061 47.066V46.968C209.061 46.016 208.613 45.386 207.605 45.386C206.513 45.386 205.869 46.254 205.771 47.094ZM213.155 50.3C213.155 50.776 212.791 51.21 212.273 51.21C211.741 51.21 211.363 50.776 211.363 50.3C211.363 49.824 211.741 49.418 212.273 49.418C212.791 49.418 213.155 49.824 213.155 50.3ZM224.765 42.768L224.387 43.846C223.617 43.342 222.903 43.104 221.993 43.104C220.089 43.104 218.815 44.42 218.815 46.59C218.815 48.76 220.103 50.146 222.021 50.146C222.959 50.146 223.883 49.768 224.499 49.292L224.695 50.482C223.981 50.93 222.973 51.21 221.993 51.21C219.431 51.21 217.611 49.432 217.611 46.646C217.611 43.86 219.445 42.04 221.993 42.04C222.987 42.04 224.051 42.32 224.765 42.768ZM225.949 42.488C226.005 42.04 226.313 41.662 226.901 41.662C227.475 41.662 228.091 42.194 228.091 42.936C228.091 44.098 227.055 44.98 226.019 45.666L225.529 45.19C226.495 44.49 226.957 43.902 226.957 43.412C226.957 43.062 226.705 42.838 225.949 42.488ZM229.49 47.934V47.99C229.532 49.25 230.372 50.146 231.604 50.146C232.276 50.146 233.004 49.964 233.522 49.614L233.732 50.678C233.158 51.028 232.388 51.21 231.576 51.21C229.644 51.21 228.328 49.824 228.328 47.864C228.328 45.792 229.7 44.378 231.492 44.378C233.046 44.378 233.942 45.358 233.942 46.884C233.942 47.234 233.886 47.626 233.802 47.906C233.788 47.906 229.49 47.934 229.49 47.934ZM229.546 47.094L232.836 47.066V46.968C232.836 46.016 232.388 45.386 231.38 45.386C230.288 45.386 229.644 46.254 229.546 47.094ZM233.564 41.186L231.52 43.72H230.68L232.164 41.186H233.564ZM238.848 50.93C238.372 51.112 237.882 51.21 237.406 51.21C236.16 51.21 235.502 50.608 235.544 49.208L235.642 45.624L234.578 45.554L234.62 44.826L235.684 44.504L235.712 43.118H236.818L236.776 44.588H238.778L238.736 45.624H236.734L236.636 49.25C236.622 49.852 236.902 50.16 237.476 50.16C237.868 50.16 238.26 50.062 238.638 49.922C238.652 49.922 238.848 50.93 238.848 50.93ZM243.509 49.544V47.808C241.605 48.06 240.905 48.452 240.905 49.236C240.905 49.81 241.339 50.23 242.039 50.23C242.627 50.23 243.145 49.936 243.509 49.544ZM243.551 50.314H243.495C243.005 50.888 242.417 51.21 241.731 51.21C240.527 51.21 239.687 50.412 239.687 49.376C239.687 48.228 240.513 47.22 243.509 47.08V46.898C243.509 45.862 243.103 45.442 242.067 45.442C241.409 45.442 240.597 45.75 239.995 46.156L239.771 45.12C240.331 44.728 241.269 44.378 242.179 44.378C243.915 44.378 244.685 45.12 244.657 46.87V49.558C244.657 50.09 244.727 50.188 245.287 50.188L245.217 51.154C244.181 51.238 243.719 50.874 243.551 50.314ZM247.865 42.348C247.865 42.782 247.627 43.174 247.109 43.174C246.591 43.174 246.353 42.782 246.353 42.348C246.353 41.914 246.591 41.522 247.109 41.522C247.627 41.522 247.865 41.914 247.865 42.348ZM247.683 51H246.535V44.56L247.683 44.378V51ZM253.04 50.93C252.564 51.112 252.074 51.21 251.598 51.21C250.352 51.21 249.694 50.608 249.736 49.208L249.834 45.624L248.77 45.554L248.812 44.826L249.876 44.504L249.904 43.118H251.01L250.968 44.588H252.97L252.928 45.624H250.926L250.828 49.25C250.814 49.852 251.094 50.16 251.668 50.16C252.06 50.16 252.452 50.062 252.83 49.922C252.844 49.922 253.04 50.93 253.04 50.93ZM262.44 50.678C261.866 51.028 261.138 51.21 260.326 51.21C258.296 51.21 257.176 49.824 257.176 47.794C257.176 45.75 258.534 44.378 260.41 44.378C261.236 44.378 261.894 44.56 262.482 44.924L262.188 45.974C261.656 45.61 261.054 45.442 260.41 45.442C259.094 45.442 258.366 46.338 258.366 47.78C258.366 49.264 259.178 50.146 260.382 50.146C261.054 50.146 261.712 49.964 262.23 49.614L262.44 50.678ZM269.286 51H268.138V46.968C268.138 45.862 267.718 45.484 266.878 45.484C266.136 45.484 265.492 45.834 265.128 46.184V51H263.98V41.564L265.128 41.382C265.128 41.382 265.128 45.246 265.128 45.316C265.716 44.728 266.472 44.378 267.284 44.378C268.516 44.378 269.286 45.204 269.286 46.59V51ZM271.955 47.934V47.99C271.997 49.25 272.837 50.146 274.069 50.146C274.741 50.146 275.469 49.964 275.987 49.614L276.197 50.678C275.623 51.028 274.853 51.21 274.041 51.21C272.109 51.21 270.793 49.824 270.793 47.864C270.793 45.792 272.165 44.378 273.957 44.378C275.511 44.378 276.407 45.358 276.407 46.884C276.407 47.234 276.351 47.626 276.267 47.906C276.253 47.906 271.955 47.934 271.955 47.934ZM272.011 47.094L275.301 47.066V46.968C275.301 46.016 274.853 45.386 273.845 45.386C272.753 45.386 272.109 46.254 272.011 47.094ZM279.087 46.814V51H277.939V44.56L279.087 44.378V45.512C279.535 44.798 280.067 44.378 280.879 44.378C281.313 44.378 281.747 44.49 282.083 44.7L281.789 45.778C281.439 45.568 281.089 45.484 280.767 45.484C280.151 45.484 279.563 45.932 279.087 46.814ZM24.79 63.766C24.79 65.712 23.446 67.21 21.528 67.21C21.15 67.21 20.548 67.126 20.142 67L18.994 67.21V57.564L20.142 57.382C20.142 57.382 20.142 61.106 20.142 61.176C20.604 60.742 21.178 60.378 21.934 60.378C23.74 60.378 24.79 61.834 24.79 63.766ZM23.6 63.794C23.6 62.38 22.886 61.442 21.696 61.442C21.094 61.442 20.576 61.68 20.142 62.058C20.142 61.988 20.142 65.712 20.142 65.712C20.52 66.02 21.01 66.174 21.57 66.174C22.872 66.174 23.6 65.11 23.6 63.794ZM27.6521 58.348C27.6521 58.782 27.4141 59.174 26.8961 59.174C26.3781 59.174 26.1401 58.782 26.1401 58.348C26.1401 57.914 26.3781 57.522 26.8961 57.522C27.4141 57.522 27.6521 57.914 27.6521 58.348ZM27.4701 67H26.3221V60.56L27.4701 60.378V67ZM30.195 63.934V63.99C30.237 65.25 31.077 66.146 32.309 66.146C32.981 66.146 33.709 65.964 34.227 65.614L34.437 66.678C33.863 67.028 33.093 67.21 32.281 67.21C30.349 67.21 29.033 65.824 29.033 63.864C29.033 61.792 30.405 60.378 32.197 60.378C33.751 60.378 34.647 61.358 34.647 62.884C34.647 63.234 34.591 63.626 34.507 63.906C34.493 63.906 30.195 63.934 30.195 63.934ZM30.251 63.094L33.541 63.066V62.968C33.541 62.016 33.093 61.386 32.085 61.386C30.993 61.386 30.349 62.254 30.251 63.094ZM41.4855 67H40.3375V62.968C40.3375 61.862 39.9175 61.484 39.0075 61.484C38.3355 61.484 37.6915 61.834 37.3275 62.184V67H36.1795V60.56L37.3275 60.378V61.344C37.9155 60.756 38.6715 60.378 39.4135 60.378C40.7155 60.378 41.4855 61.204 41.4855 62.59V67ZM44.868 66.3C44.868 66.776 44.504 67.21 43.986 67.21C43.454 67.21 43.076 66.776 43.076 66.3C43.076 65.824 43.454 65.418 43.986 65.418C44.504 65.418 44.868 65.824 44.868 66.3ZM48.0001 61.428H47.5241L49.1341 57.97L50.1841 58.474L48.0001 61.428ZM45.9001 61.428H45.4241L47.0341 57.97L48.0841 58.474L45.9001 61.428Z" fill="#242424"/>
</g>
<defs>
<filter id="filter0_d_1792_14799" x="0" y="0" width="336" height="81" filterUnits="userSpaceOnUse" color-interpolation-filters="sRGB">
<feFlood flood-opacity="0" result="BackgroundImageFix"/>
<feColorMatrix in="SourceAlpha" type="matrix" values="0 0 0 0 0 0 0 0 0 0 0 0 0 0 0 0 0 0 127 0" result="hardAlpha"/>
<feOffset dx="1" dy="2"/>
<feComposite in2="hardAlpha" operator="out"/>
<feColorMatrix type="matrix" values="0 0 0 0 1 0 0 0 0 0.846528 0 0 0 0 0.291667 0 0 0 1 0"/>
<feBlend mode="normal" in2="BackgroundImageFix" result="effect1_dropShadow_1792_14799"/>
<feBlend mode="normal" in="SourceGraphic" in2="effect1_dropShadow_1792_14799" result="shape"/>
</filter>
</defs>
</svg>
