<svg width="29" height="57" viewBox="0 0 29 57" fill="none" xmlns="http://www.w3.org/2000/svg">
<g filter="url(#filter0_d_1180_25123)">
<path d="M14.6055 23.9181C19.6916 23.9181 23.8146 19.7951 23.8146 14.7091C23.8146 9.62304 19.6916 5.5 14.6055 5.5C9.51952 5.5 5.39648 9.62304 5.39648 14.7091C5.39648 19.7951 9.51952 23.9181 14.6055 23.9181Z" fill="#FEFDFB"/>
<path d="M22.8146 14.7091C22.8146 19.2428 19.1393 22.9181 14.6055 22.9181C10.0718 22.9181 6.39648 19.2428 6.39648 14.7091C6.39648 10.1753 10.0718 6.5 14.6055 6.5C19.1393 6.5 22.8146 10.1753 22.8146 14.7091Z" stroke="#242424" stroke-width="2"/>
</g>
<g filter="url(#filter1_d_1180_25123)">
<path d="M10.2906 27.729C8.87396 27.729 7.46674 28.062 6.25183 28.7938C4.70389 29.7273 3.60156 31.1392 3.60156 33.2359C3.60156 38.1471 7.88279 53.5002 14.3715 53.5002C20.5788 53.5002 25.6105 38.1471 25.6105 33.2359C25.6105 30.7358 23.9219 29.2066 21.7735 28.306C20.7931 27.8979 19.7377 27.7102 18.6776 27.7149L10.2906 27.7337V27.729Z" fill="#FEFDFB"/>
<path d="M10.2906 27.729C8.87396 27.729 7.46674 28.062 6.25183 28.7938C4.70389 29.7273 3.60156 31.1392 3.60156 33.2359C3.60156 38.1471 7.88279 53.5002 14.3715 53.5002C20.5788 53.5002 25.6105 38.1471 25.6105 33.2359C25.6105 30.7358 23.9219 29.2066 21.7735 28.306C20.7931 27.8979 19.7377 27.7102 18.6776 27.7149L10.2906 27.7337V27.729Z" stroke="#242424" stroke-width="2" stroke-miterlimit="10"/>
</g>
<g clip-path="url(#clip0_1180_25123)">
<path d="M14.7207 13.3686C14.9846 13.3686 15.2176 13.522 15.3496 13.8058L16.1881 15.639C17.1199 17.6409 18.8203 18.4923 20.6915 18.4923C23.4246 18.4923 25.3503 16.8279 25.7928 13.8979L25.9403 12.9468C26.0956 11.9113 26.7168 11.5815 26.7168 11.1366C26.7168 10.7454 26.4295 10.5 25.8938 10.5C23.448 10.5 21.2273 10.6227 19.9073 10.8145C17.1354 11.221 16.0484 11.919 14.7207 11.919C13.3852 11.919 12.2981 11.221 9.52621 10.8145C8.20628 10.6227 5.98564 10.5 3.5476 10.5C3.01185 10.5 2.7168 10.7454 2.7168 11.1366C2.7168 11.5815 3.34572 11.9113 3.50101 12.9468L3.64853 13.8979C4.08334 16.8279 6.00893 18.4923 8.74979 18.4923C10.621 18.4923 12.3214 17.6409 13.2454 15.639L14.0918 13.8058C14.216 13.522 14.4489 13.3686 14.7207 13.3686Z" fill="#242424"/>
</g>
<defs>
<filter id="filter0_d_1180_25123" x="5.39648" y="5.5" width="19.418" height="20.418" filterUnits="userSpaceOnUse" color-interpolation-filters="sRGB">
<feFlood flood-opacity="0" result="BackgroundImageFix"/>
<feColorMatrix in="SourceAlpha" type="matrix" values="0 0 0 0 0 0 0 0 0 0 0 0 0 0 0 0 0 0 127 0" result="hardAlpha"/>
<feOffset dx="1" dy="2"/>
<feComposite in2="hardAlpha" operator="out"/>
<feColorMatrix type="matrix" values="0 0 0 0 0.141176 0 0 0 0 0.141176 0 0 0 0 0.141176 0 0 0 1 0"/>
<feBlend mode="normal" in2="BackgroundImageFix" result="effect1_dropShadow_1180_25123"/>
<feBlend mode="normal" in="SourceGraphic" in2="effect1_dropShadow_1180_25123" result="shape"/>
</filter>
<filter id="filter1_d_1180_25123" x="2.60156" y="26.7148" width="25.0098" height="29.7852" filterUnits="userSpaceOnUse" color-interpolation-filters="sRGB">
<feFlood flood-opacity="0" result="BackgroundImageFix"/>
<feColorMatrix in="SourceAlpha" type="matrix" values="0 0 0 0 0 0 0 0 0 0 0 0 0 0 0 0 0 0 127 0" result="hardAlpha"/>
<feOffset dx="1" dy="2"/>
<feComposite in2="hardAlpha" operator="out"/>
<feColorMatrix type="matrix" values="0 0 0 0 0.141176 0 0 0 0 0.141176 0 0 0 0 0.141176 0 0 0 1 0"/>
<feBlend mode="normal" in2="BackgroundImageFix" result="effect1_dropShadow_1180_25123"/>
<feBlend mode="normal" in="SourceGraphic" in2="effect1_dropShadow_1180_25123" result="shape"/>
</filter>
<clipPath id="clip0_1180_25123">
<rect width="24" height="8" fill="white" transform="translate(2.7168 10.5)"/>
</clipPath>
</defs>
</svg>
