<svg width="41" height="40" viewBox="0 0 41 40" fill="none" xmlns="http://www.w3.org/2000/svg">
<g clip-path="url(#clip0_1427_50725)">
<g style="mix-blend-mode:multiply">
<path d="M16.1211 7.56388C16.1287 7.56388 16.1287 7.56865 16.1287 7.57699C16.1287 7.57143 16.1302 7.56865 16.1331 7.56865C16.1331 7.56865 16.1255 7.5603 16.1211 7.56388Z" fill="#242424"/>
<path d="M16.1211 7.56388C16.1287 7.56388 16.1287 7.56865 16.1287 7.57699C16.1287 7.57143 16.1302 7.56865 16.1331 7.56865C16.1331 7.56865 16.1255 7.5603 16.1211 7.56388Z" fill="#242424"/>
<path d="M39.1029 8.69529C38.8034 8.15646 38.4667 7.65219 38.1059 7.17535C37.9802 6.91428 37.8468 6.65798 37.7047 6.40167C36.0059 3.38325 33.2215 1.19097 30.06 0.373181C26.8657 -0.462487 23.55 0.116878 20.7296 2.01352C20.0693 2.46056 19.4691 2.96006 18.9302 3.48578C18.5126 3.90182 18.1322 4.33932 17.7955 4.77683C17.5079 5.144 17.2445 5.52786 16.9974 5.92125C15.0034 3.91493 12.4946 3.02205 9.82278 3.38802C4.03432 4.17362 0.260608 9.90289 1.03896 16.7003C1.37567 19.6305 2.5104 22.482 4.41147 25.2048C7.19584 30.5049 12.7613 35.389 20.84 39.5792C21.1395 39.7342 21.9102 40.074 22.5585 39.9857C23.1302 39.9059 23.7337 39.4863 24.0988 39.1727C24.2409 39.0666 38.5607 28.2196 40.5995 18.8532C41.3615 15.3616 40.8269 11.7542 39.104 8.69648L39.1029 8.69529ZM20.1579 35.6226C13.5626 32.1965 8.73943 28.3424 5.84574 24.2273C4.711 22.6275 3.8758 20.9823 3.34123 19.3074C3.03732 18.3752 2.83071 17.4239 2.72139 16.4702C2.63612 15.7192 2.6077 14.9849 2.64487 14.2779C2.86788 9.46897 5.75829 5.80085 10.0338 5.21672C11.2494 5.0534 12.4213 5.20837 13.5036 5.67687C14.4557 6.07503 15.3358 6.70208 16.1097 7.55563C16.1141 7.55563 16.1174 7.5604 16.1218 7.56398C16.1261 7.55921 16.1294 7.56398 16.1338 7.56875C16.1338 7.56875 16.1323 7.57153 16.1294 7.57709C15.9993 7.84651 15.8867 8.12904 15.7807 8.41276C15.5457 9.041 15.3511 9.68593 15.2133 10.344C13.4456 18.4503 18.6744 31.9092 20.2355 35.6536C20.2114 35.6453 20.183 35.6357 20.1589 35.6226H20.1579ZM37.5506 16.1305C35.913 23.667 24.9493 32.8033 22.2863 34.9336C22.1365 35.0576 22.0152 35.1506 21.9212 35.2257C20.7821 32.5422 16.0398 20.7368 16.5831 12.7938C16.6279 12.0868 16.7208 11.4109 16.8586 10.7743C16.9515 10.3499 17.0652 9.93866 17.2073 9.52738C17.309 9.2222 17.4227 8.92179 17.5396 8.62615C17.6533 8.36984 17.7703 8.11831 17.896 7.86558V7.85724C17.9081 7.83101 17.9245 7.80359 17.9365 7.77737C18.2568 7.14555 18.6416 6.53519 19.0876 5.96536C19.3795 5.58508 19.7075 5.20956 20.0649 4.85551C20.5394 4.39535 21.0455 3.9805 21.6216 3.57757C24.0573 1.94676 26.9149 1.45204 29.6719 2.17207C30.0207 2.26029 30.365 2.36639 30.7017 2.49513C31.679 2.87065 32.6072 3.40114 33.4413 4.0556C33.7944 4.33813 34.1343 4.63854 34.4503 4.97114C35.1477 5.67329 35.7556 6.48274 36.2617 7.37086C36.4202 7.64981 36.5612 7.93234 36.687 8.21964C37.8337 10.6682 38.142 13.4351 37.5506 16.1317V16.1305Z" fill="#242424"/>
</g>
<path d="M16.1191 7.56388C16.1268 7.56388 16.1268 7.56865 16.1268 7.57699C16.1268 7.57143 16.1283 7.56865 16.1312 7.56865C16.1312 7.56865 16.1235 7.5603 16.1191 7.56388Z" fill="#FF6B4E"/>
<path d="M16.1191 7.56388C16.1268 7.56388 16.1268 7.56865 16.1268 7.57699C16.1268 7.57143 16.1283 7.56865 16.1312 7.56865C16.1312 7.56865 16.1235 7.5603 16.1191 7.56388Z" fill="#242424"/>
<path d="M20.2344 35.6536C20.2104 35.6453 20.1819 35.6358 20.1579 35.6227C13.5626 32.1965 8.73947 28.3424 5.84578 24.2273C4.71105 22.6275 3.87585 20.9824 3.34127 19.3075C3.03736 18.3752 2.83075 17.4239 2.72143 16.4702C2.63616 15.7192 2.60774 14.9849 2.64491 14.278C2.86792 9.46899 5.75833 5.80087 10.0338 5.21674C11.2494 5.05342 12.4213 5.20839 13.5036 5.67689C14.4558 6.07506 15.3358 6.70211 16.1098 7.55566C16.1142 7.55566 16.1174 7.56042 16.1218 7.564C16.1295 7.564 16.1295 7.56877 16.1295 7.57711C15.9994 7.84653 15.8868 8.12906 15.7807 8.41278C15.5457 9.04102 15.3511 9.68595 15.2134 10.344C13.4457 18.4503 18.6744 31.9092 20.2355 35.6536H20.2344Z" fill="#FF6B4E"/>
<path d="M36.6861 8.21837C36.5604 7.93107 36.4183 7.64854 36.2608 7.36959C35.7547 6.48147 35.1458 5.67203 34.4494 4.96987C34.1335 4.63847 33.7924 4.33806 33.4404 4.05434C32.6052 3.39987 31.6771 2.86938 30.7009 2.49387C30.3641 2.36512 30.0198 2.25902 29.6711 2.1708C26.9151 1.45077 24.0575 1.9455 21.6208 3.5763C21.0458 3.97804 20.5385 4.39409 20.0641 4.85424C19.7077 5.2083 19.3786 5.58381 19.0867 5.96409C18.6407 6.53392 18.2559 7.14428 17.9356 7.7761C17.9236 7.80232 17.9072 7.82974 17.8952 7.85597C17.8952 7.85597 17.6514 8.36857 17.5388 8.62488C17.4218 8.92052 17.3081 9.22213 17.2065 9.52611C17.0643 9.93739 16.9506 10.3487 16.8577 10.7731C16.72 11.4096 16.6271 12.0856 16.5822 12.7925C16.0389 20.7355 20.7812 32.541 21.9203 35.2244C22.0132 35.1493 22.1357 35.0563 22.2854 34.9323C24.9485 32.802 35.9132 23.6657 37.5497 16.1292C38.1411 13.4327 37.8339 10.6658 36.6861 8.21718V8.21837ZM32.0203 14.6975C31.9722 14.9144 31.9154 15.1266 31.8378 15.3388C31.688 15.7847 31.4814 16.2091 31.2136 16.612C30.832 17.1866 30.3423 17.6813 29.8033 18.0401C29.2436 18.4204 28.6358 18.6636 27.9875 18.7781C27.9187 18.7864 27.8575 18.7995 27.793 18.8091C27.5415 18.8448 27.2868 18.8532 27.0266 18.8401C26.7063 18.8269 26.3816 18.7781 26.0537 18.6946C25.8066 18.6279 25.5672 18.5492 25.3365 18.4383C25.1496 18.3632 24.9714 18.2702 24.7976 18.1641C24.4817 17.9746 24.1898 17.7445 23.9176 17.4834C23.5612 17.1425 23.2485 16.736 22.9895 16.277C22.6123 15.6094 22.3729 14.8715 22.2887 14.0847C22.2319 13.4708 22.2603 12.8473 22.386 12.2155C22.5314 11.5885 22.7588 11.0174 23.0627 10.5048C23.2289 10.2306 23.4235 9.96958 23.6344 9.73115C23.9099 9.40452 24.2423 9.10411 24.615 8.86092C25.7301 8.11346 27.0955 7.87027 28.3527 8.21598C29.6175 8.52951 30.7446 9.41405 31.4169 10.6383C31.6115 10.9781 31.7656 11.3369 31.8826 11.7077C32.0695 12.287 32.1537 12.901 32.1461 13.5113C32.1504 13.9047 32.1056 14.3112 32.0203 14.6999V14.6975Z" fill="#FF6B4E"/>
<path d="M31.8815 11.7077C31.7645 11.3322 31.6093 10.9757 31.4169 10.636C30.7424 9.41289 29.6164 8.52954 28.3516 8.21244C27.0944 7.86911 25.729 8.11111 24.6139 8.85856C24.2433 9.10175 23.9077 9.40097 23.6333 9.72999C23.4223 9.96961 23.2299 10.2319 23.0616 10.5025C22.7566 11.0151 22.5314 11.5861 22.3871 12.2132C22.2603 12.845 22.2297 13.4696 22.2887 14.0812C22.3729 14.8704 22.6112 15.6071 22.9894 16.2747C23.2474 16.736 23.5612 17.1401 23.9186 17.4823C24.1876 17.7433 24.4805 17.9698 24.7987 18.163C24.9703 18.2703 25.1518 18.3632 25.3365 18.4372C25.565 18.5492 25.8077 18.6267 26.0547 18.6935C26.3827 18.7793 26.7074 18.8282 27.0277 18.8401C27.2857 18.8544 27.5404 18.8449 27.7918 18.8103C27.8585 18.8007 27.9197 18.7864 27.9875 18.7769C28.6347 18.6637 29.2436 18.4193 29.8033 18.039C30.3423 17.6802 30.832 17.1854 31.2157 16.612C31.4825 16.2091 31.6902 15.7847 31.8377 15.3365C31.9165 15.1267 31.9711 14.9145 32.0203 14.6975C32.1067 14.3077 32.1515 13.9036 32.146 13.5078C32.1559 12.8986 32.0684 12.2835 31.8826 11.7077H31.8815ZM30.3718 14.2707V14.2767C30.2756 14.7237 30.0963 15.1457 29.8449 15.5272C29.5923 15.9027 29.2709 16.2318 28.9124 16.4738C28.5472 16.7157 28.146 16.8826 27.7153 16.953C27.3032 17.034 26.8801 17.0114 26.4461 16.8969C26.1531 16.8195 25.8787 16.7074 25.6273 16.55C25.5541 16.5047 25.4797 16.4583 25.4109 16.3998C25.3901 16.3224 25.3824 16.2484 25.3726 16.1698C25.3311 15.7597 25.3562 15.3341 25.4404 14.9264C25.5311 14.5235 25.6754 14.1432 25.8755 13.8118C25.9859 13.6353 26.1138 13.4625 26.2701 13.2861C26.4505 13.0691 26.6571 12.8855 26.8998 12.7222C27.2966 12.4575 27.7426 12.2847 28.1963 12.2227C28.5833 12.1702 28.9779 12.1965 29.3606 12.3002C29.7301 12.392 30.0788 12.5565 30.3947 12.7854C30.4855 13.2753 30.4811 13.7844 30.3718 14.2707Z" fill="#242424"/>
</g>
<defs>
<clipPath id="clip0_1427_50725">
<rect width="40" height="40" fill="white" transform="translate(0.9375)"/>
</clipPath>
</defs>
</svg>
