<svg width="45" height="44" viewBox="0 0 45 44" fill="none" xmlns="http://www.w3.org/2000/svg">
<g filter="url(#filter0_d_1166_3158)">
<path d="M22.4993 21.0834C21.2838 21.0834 20.118 20.6005 19.2584 19.741C18.3989 18.8814 17.916 17.7157 17.916 16.5001C17.916 15.2845 18.3989 14.1187 19.2584 13.2592C20.118 12.3996 21.2838 11.9167 22.4993 11.9167C23.7149 11.9167 24.8807 12.3996 25.7403 13.2592C26.5998 14.1187 27.0827 15.2845 27.0827 16.5001C27.0827 17.102 26.9641 17.698 26.7338 18.254C26.5035 18.8101 26.1659 19.3154 25.7403 19.741C25.3147 20.1666 24.8094 20.5042 24.2533 20.7345C23.6972 20.9649 23.1012 21.0834 22.4993 21.0834ZM22.4993 3.66675C19.0957 3.66675 15.8315 5.01883 13.4248 7.42554C11.0181 9.83226 9.66602 13.0965 9.66602 16.5001C9.66602 26.1251 22.4993 40.3334 22.4993 40.3334C22.4993 40.3334 35.3327 26.1251 35.3327 16.5001C35.3327 13.0965 33.9806 9.83226 31.5739 7.42554C29.1672 5.01883 25.903 3.66675 22.4993 3.66675Z" fill="#FF6B4E"/>
<path d="M22.4993 21.0834C21.2838 21.0834 20.118 20.6005 19.2584 19.741C18.3989 18.8814 17.916 17.7157 17.916 16.5001C17.916 15.2845 18.3989 14.1187 19.2584 13.2592C20.118 12.3996 21.2838 11.9167 22.4993 11.9167C23.7149 11.9167 24.8807 12.3996 25.7403 13.2592C26.5998 14.1187 27.0827 15.2845 27.0827 16.5001C27.0827 17.102 26.9641 17.698 26.7338 18.254C26.5035 18.8101 26.1659 19.3154 25.7403 19.741C25.3147 20.1666 24.8094 20.5042 24.2533 20.7345C23.6972 20.9649 23.1012 21.0834 22.4993 21.0834ZM22.4993 3.66675C19.0957 3.66675 15.8315 5.01883 13.4248 7.42554C11.0181 9.83226 9.66602 13.0965 9.66602 16.5001C9.66602 26.1251 22.4993 40.3334 22.4993 40.3334C22.4993 40.3334 35.3327 26.1251 35.3327 16.5001C35.3327 13.0965 33.9806 9.83226 31.5739 7.42554C29.1672 5.01883 25.903 3.66675 22.4993 3.66675Z" stroke="#242424" stroke-width="2"/>
</g>
<defs>
<filter id="filter0_d_1166_3158" x="8.66602" y="2.66675" width="28.666" height="41.1584" filterUnits="userSpaceOnUse" color-interpolation-filters="sRGB">
<feFlood flood-opacity="0" result="BackgroundImageFix"/>
<feColorMatrix in="SourceAlpha" type="matrix" values="0 0 0 0 0 0 0 0 0 0 0 0 0 0 0 0 0 0 127 0" result="hardAlpha"/>
<feOffset dx="1" dy="2"/>
<feComposite in2="hardAlpha" operator="out"/>
<feColorMatrix type="matrix" values="0 0 0 0 0.141176 0 0 0 0 0.141176 0 0 0 0 0.141176 0 0 0 1 0"/>
<feBlend mode="normal" in2="BackgroundImageFix" result="effect1_dropShadow_1166_3158"/>
<feBlend mode="normal" in="SourceGraphic" in2="effect1_dropShadow_1166_3158" result="shape"/>
</filter>
</defs>
</svg>
