<svg width="24" height="34" viewBox="0 0 24 34" fill="none" xmlns="http://www.w3.org/2000/svg">
<path d="M12.208 32.5765L11.9002 32.8545L12.208 33.1953L12.5158 32.8545L12.208 32.5765ZM12.208 32.5765C12.5158 32.8545 12.5159 32.8544 12.516 32.8542L12.5165 32.8537L12.5182 32.8519L12.5245 32.8449L12.5485 32.818C12.5697 32.7944 12.6008 32.7594 12.6412 32.7137C12.722 32.6222 12.8401 32.4874 12.9901 32.3133C13.2901 31.965 13.7181 31.4591 14.2313 30.8268C15.2573 29.5625 16.6261 27.7905 17.9957 25.7606C19.3645 23.7319 20.7392 21.4379 21.773 19.1303C22.8044 16.8282 23.5105 14.4818 23.5105 12.3565C23.5105 9.35885 22.3197 6.48402 20.2001 4.3644C18.0804 2.24477 15.2056 1.05398 12.208 1.05398C9.21041 1.05398 6.33559 2.24477 4.21596 4.3644C2.09634 6.48402 0.905543 9.35885 0.905543 12.3565C0.905543 14.4818 1.61163 16.8282 2.643 19.1303C3.6768 21.4379 5.05154 23.7319 6.42034 25.7606C7.78993 27.7905 9.1587 29.5625 10.1848 30.8268C10.698 31.4591 11.1259 31.965 11.426 32.3133C11.576 32.4874 11.6941 32.6222 11.7749 32.7137C11.8153 32.7594 11.8464 32.7944 11.8675 32.818L11.8916 32.8449L11.8979 32.8519L11.8995 32.8537L11.9 32.8542C11.9001 32.8544 11.9002 32.8545 12.208 32.5765ZM12.208 15.8301C11.2867 15.8301 10.4032 15.4642 9.75174 14.8127C9.1003 14.1613 8.73432 13.2777 8.73432 12.3565C8.73432 11.4352 9.1003 10.5516 9.75174 9.90018C10.4032 9.24873 11.2867 8.88276 12.208 8.88276C13.1293 8.88276 14.0128 9.24873 14.6643 9.90018C15.3157 10.5516 15.6817 11.4352 15.6817 12.3565C15.6817 12.8126 15.5919 13.2643 15.4173 13.6858C15.2427 14.1072 14.9869 14.4902 14.6643 14.8127C14.3417 15.1353 13.9588 15.3912 13.5373 15.5657C13.1159 15.7403 12.6642 15.8301 12.208 15.8301Z" fill="#5D5DF0" stroke="#F9F7F0" stroke-width="0.829539"/>
</svg>
