<svg width="45" height="44" viewBox="0 0 45 44" fill="none" xmlns="http://www.w3.org/2000/svg">
<g filter="url(#filter0_d_1162_2600)">
<path d="M22.9447 21.0834C21.7291 21.0834 20.5633 20.6005 19.7038 19.741C18.8442 18.8814 18.3613 17.7157 18.3613 16.5001C18.3613 15.2845 18.8442 14.1187 19.7038 13.2592C20.5633 12.3996 21.7291 11.9167 22.9447 11.9167C24.1602 11.9167 25.326 12.3996 26.1856 13.2592C27.0451 14.1187 27.528 15.2845 27.528 16.5001C27.528 17.102 27.4094 17.698 27.1791 18.254C26.9488 18.8101 26.6112 19.3154 26.1856 19.741C25.76 20.1666 25.2547 20.5042 24.6986 20.7345C24.1426 20.9649 23.5466 21.0834 22.9447 21.0834V21.0834ZM22.9447 3.66675C19.541 3.66675 16.2768 5.01883 13.8701 7.42554C11.4634 9.83226 10.1113 13.0965 10.1113 16.5001C10.1113 26.1251 22.9447 40.3334 22.9447 40.3334C22.9447 40.3334 35.778 26.1251 35.778 16.5001C35.778 13.0965 34.4259 9.83226 32.0192 7.42554C29.6125 5.01883 26.3483 3.66675 22.9447 3.66675V3.66675Z" fill="#FF6B4E"/>
<path d="M22.9447 21.0834C21.7291 21.0834 20.5633 20.6005 19.7038 19.741C18.8442 18.8814 18.3613 17.7157 18.3613 16.5001C18.3613 15.2845 18.8442 14.1187 19.7038 13.2592C20.5633 12.3996 21.7291 11.9167 22.9447 11.9167C24.1602 11.9167 25.326 12.3996 26.1856 13.2592C27.0451 14.1187 27.528 15.2845 27.528 16.5001C27.528 17.102 27.4094 17.698 27.1791 18.254C26.9488 18.8101 26.6112 19.3154 26.1856 19.741C25.76 20.1666 25.2547 20.5042 24.6986 20.7345C24.1426 20.9649 23.5466 21.0834 22.9447 21.0834V21.0834ZM22.9447 3.66675C19.541 3.66675 16.2768 5.01883 13.8701 7.42554C11.4634 9.83226 10.1113 13.0965 10.1113 16.5001C10.1113 26.1251 22.9447 40.3334 22.9447 40.3334C22.9447 40.3334 35.778 26.1251 35.778 16.5001C35.778 13.0965 34.4259 9.83226 32.0192 7.42554C29.6125 5.01883 26.3483 3.66675 22.9447 3.66675V3.66675Z" stroke="#242424" stroke-width="2"/>
</g>
<defs>
<filter id="filter0_d_1162_2600" x="9.11133" y="2.66675" width="28.666" height="41.1584" filterUnits="userSpaceOnUse" color-interpolation-filters="sRGB">
<feFlood flood-opacity="0" result="BackgroundImageFix"/>
<feColorMatrix in="SourceAlpha" type="matrix" values="0 0 0 0 0 0 0 0 0 0 0 0 0 0 0 0 0 0 127 0" result="hardAlpha"/>
<feOffset dx="1" dy="2"/>
<feComposite in2="hardAlpha" operator="out"/>
<feColorMatrix type="matrix" values="0 0 0 0 0.141176 0 0 0 0 0.141176 0 0 0 0 0.141176 0 0 0 1 0"/>
<feBlend mode="normal" in2="BackgroundImageFix" result="effect1_dropShadow_1162_2600"/>
<feBlend mode="normal" in="SourceGraphic" in2="effect1_dropShadow_1162_2600" result="shape"/>
</filter>
</defs>
</svg>
