<svg width="32" height="29" viewBox="0 0 32 29" fill="none" xmlns="http://www.w3.org/2000/svg">
<g clip-path="url(#clip0_1312_2267)">
<path d="M27.1251 25.8268C27.5235 26.1198 28.0978 26.0026 28.4142 25.5339C30.465 22.569 31.6954 18.8073 31.6954 14.6706C31.6954 10.5221 30.4298 6.78384 28.4142 3.80728C28.0978 3.32681 27.5235 3.22134 27.1251 3.51431C26.6798 3.819 26.6212 4.36978 26.9376 4.85025C28.754 7.53384 29.9025 10.9088 29.9025 14.6706C29.9025 18.4206 28.754 21.819 26.9376 24.4909C26.6212 24.9714 26.6798 25.5222 27.1251 25.8268Z" fill="#5D5DF0"/>
<path d="M22.7303 22.7213C23.1639 23.0142 23.7029 22.9088 24.0193 22.4635C25.5193 20.401 26.3982 17.565 26.3982 14.6705C26.3982 11.7759 25.5311 8.91655 24.0193 6.87749C23.7029 6.43218 23.1639 6.32671 22.7303 6.61968C22.2967 6.91265 22.2264 7.46343 22.5662 7.9439C23.8436 9.74858 24.5818 12.1744 24.5818 14.6705C24.5818 17.1666 23.8201 19.5689 22.5662 21.3971C22.2381 21.8775 22.2967 22.4283 22.7303 22.7213Z" fill="#5D5DF0"/>
<path d="M18.3824 19.6627C18.7691 19.9322 19.3199 19.8502 19.6363 19.3932C20.5387 18.2096 21.0777 16.4635 21.0777 14.6705C21.0777 12.8776 20.5387 11.1432 19.6363 9.94789C19.3199 9.49086 18.7691 9.39711 18.3824 9.67836C17.902 10.0065 17.8316 10.5924 18.1949 11.0729C18.8746 12.0104 19.2613 13.3112 19.2613 14.6705C19.2613 16.0299 18.8629 17.3189 18.1949 18.2682C17.8434 18.7603 17.902 19.3228 18.3824 19.6627Z" fill="#5D5DF0"/>
<path d="M12.875 25.0184C13.6484 25.0184 14.1992 24.4676 14.1992 23.7059V5.72925C14.1992 4.96753 13.6484 4.34644 12.8516 4.34644C12.3008 4.34644 11.9258 4.58081 11.3399 5.15503L6.33594 9.84253C6.26563 9.91285 6.16016 9.948 6.04297 9.948H2.69141C1.09766 9.948 0.242188 10.8269 0.242188 12.5144V16.8738C0.242188 18.573 1.09766 19.4402 2.69141 19.4402H6.04297C6.16016 19.4402 6.26563 19.4754 6.33594 19.5457L11.3399 24.2801C11.8672 24.7957 12.3242 25.0184 12.875 25.0184Z" fill="#5D5DF0"/>
</g>
<defs>
<clipPath id="clip0_1312_2267">
<rect width="31.4531" height="22.6497" fill="white" transform="translate(0.242188 3.35156)"/>
</clipPath>
</defs>
</svg>
